<?xml version="1.0" standalone="no"?><!DOCTYPE svg PUBLIC "-//W3C//DTD SVG 1.1//EN" "http://www.w3.org/Graphics/SVG/1.1/DTD/svg11.dtd"><svg class="icon" width="200px" height="200.00px" viewBox="0 0 1024 1024" version="1.1" xmlns="http://www.w3.org/2000/svg"><path d="M796.3 170.4a90.6 75.4 0 1 0 181.2 0 90.6 75.4 0 1 0-181.2 0Z" fill="#F0F2F4" /><path d="M886.9 256.5c-56.5 0-102.4-45.9-102.4-102.4S830.4 51.7 886.9 51.7c56.5 0 102.4 45.9 102.4 102.4s-46 102.4-102.4 102.4z m0-184.3c-45.2 0-81.9 36.8-81.9 81.9s36.8 81.9 81.9 81.9c45.2 0 81.9-36.8 81.9-81.9s-36.7-81.9-81.9-81.9z" fill="#CDD4DB" /><path d="M888.3 178.7c-5.7 0-10.2-4.6-10.2-10.2v-12.6c0-2.2 0.7-4.3 2-6 0.2-0.2 4.6-6.3 12.9-16.2 3.5-4.1 5.1-10 3.9-14.3-0.7-2.6-2.3-4.2-5.1-5.1-4.3-1.5-7.8-1.4-10.6 0.1-5.3 2.9-8.3 10.5-9 13.2-1.4 5.5-7 8.7-12.4 7.4-5.5-1.4-8.8-6.9-7.4-12.4 0.5-1.9 4.9-18.4 19-26.1 5.5-3 14.7-5.8 27.1-1.5 9.2 3.1 15.6 9.9 18.2 19 3 10.9 0 23.5-8 33-4.7 5.6-8.1 9.9-10.1 12.4v9.2c-0.1 5.5-4.7 10.1-10.3 10.1zM888.1 215.5c-2.8 0-5.3-1.1-7.3-3.1-0.9-0.9-1.7-2.1-2.2-3.3-0.5-1.2-0.8-2.6-0.8-3.9 0-2.7 1.1-5.3 3-7.3 3.8-3.8 10.6-3.8 14.5 0 1.8 1.9 3 4.6 3 7.3 0 2.8-1 5.3-3 7.2-1 1-2.2 1.7-3.4 2.2-1.1 0.6-2.5 0.9-3.8 0.9z" fill="#CDD4DB" /><path d="M244 300.4c0-18.4 2.4-36.2 6.6-53.3-26.3 3.7-46.5 26.1-46.5 53.3 0 27.3 20.3 49.6 46.5 53.3-4.2-17.1-6.6-34.9-6.6-53.3z" fill="#F0F2F4" /><path d="M232.3 364.8c-35.5 0-64.3-28.9-64.3-64.3s28.9-64.3 64.3-64.3c35.5 0 64.3 28.9 64.3 64.3s-28.9 64.3-64.3 64.3z m0-108.2c-24.2 0-43.9 19.7-43.9 43.9s19.7 43.9 43.9 43.9 43.9-19.7 43.9-43.9-19.7-43.9-43.9-43.9z" fill="#CDD4DB" /><path d="M683.5 300.4c0-18.4-2.4-36.2-6.6-53.3 26.3 3.7 46.5 26.1 46.5 53.3 0 27.3-20.3 49.6-46.5 53.3 4.1-17.1 6.6-34.9 6.6-53.3z" fill="#F0F2F4" /><path d="M697.5 364.8c-35.5 0-64.3-28.9-64.3-64.3s28.9-64.3 64.3-64.3c35.5 0 64.3 28.9 64.3 64.3s-28.8 64.3-64.3 64.3z m0-108.2c-24.2 0-43.9 19.7-43.9 43.9s19.7 43.9 43.9 43.9 43.9-19.7 43.9-43.9-19.7-43.9-43.9-43.9z" fill="#CDD4DB" /><path d="M70.5 911.4a399.4 61.4 0 1 0 798.8 0 399.4 61.4 0 1 0-798.8 0Z" fill="#F0F2F4" /><path d="M146.8 778.2c-11.3 0-20.5-9.2-20.5-20.5s9.2-20.5 20.5-20.5 20.5 9.2 20.5 20.5c-0.1 11.3-9.2 20.5-20.5 20.5z m0-30.7c-5.6 0-10.2 4.6-10.2 10.2s4.6 10.2 10.2 10.2c5.7 0 10.2-4.6 10.2-10.2s-4.6-10.2-10.2-10.2zM87.5 393c-14.1 0-25.6-11.5-25.6-25.6s11.5-25.6 25.6-25.6 25.6 11.5 25.6 25.6S101.6 393 87.5 393z m0-41c-8.5 0-15.4 6.9-15.4 15.4s6.9 15.4 15.4 15.4 15.4-6.9 15.4-15.4-7-15.4-15.4-15.4zM892.8 673.5c-8 0-15.5-2.9-21.6-8.2-6.5-5.8-10.4-13.8-11-22.5-1.1-18 12.6-33.5 30.6-34.6 8.6-0.5 17.1 2.3 23.7 8.1 6.5 5.8 10.4 13.8 11 22.5 1.1 18-12.6 33.5-30.6 34.6-0.7 0.1-1.4 0.1-2.1 0.1z m0.1-55.1h-1.4c-12.3 0.8-21.8 11.4-21 23.8 0.4 6 3 11.5 7.5 15.4 4.5 4 10.3 6 16.2 5.6 12.3-0.8 21.8-11.4 21-23.8-0.4-6-3.1-11.5-7.5-15.4-4.1-3.6-9.3-5.6-14.8-5.6zM875 412c-2.1-2.4-5.8-2.5-8.1-0.4l-17 15.5-15.5-17c-2.1-2.3-5.8-2.5-8.1-0.4-2.4 2.1-2.5 5.8-0.4 8.1l15.5 17-17 15.5c-2.4 2.1-2.5 5.8-0.4 8.1s5.8 2.5 8.1 0.4l17-15.5 15.5 17c2.1 2.4 5.8 2.5 8.1 0.4s2.5-5.8 0.4-8.1l-15.5-17 17-15.5c2.4-2.2 2.6-5.8 0.4-8.1z" fill="#E1E5E9" /><path d="M465.5 295m-225.7 0a225.7 225.7 0 1 0 451.4 0 225.7 225.7 0 1 0-451.4 0Z" fill="#FFFFFF" /><path d="M466 289.6m-162.3 0a162.3 162.3 0 1 0 324.6 0 162.3 162.3 0 1 0-324.6 0Z" fill="#F0F2F4" /><path d="M465.5 531c-130.1 0-236-105.8-236-236s105.9-236 236-236 236 105.9 236 236-105.9 236-236 236z m0-451.5C346.6 79.5 250 176.2 250 295s96.7 215.5 215.5 215.5S680.9 413.8 680.9 295 584.3 79.5 465.5 79.5z" fill="#CDD4DB" /><path d="M465.5 467.5C370.4 467.5 293 390.1 293 295s77.4-172.5 172.5-172.5S638 199.9 638 295s-77.4 172.5-172.5 172.5z m0-324.5c-83.8 0-152.1 68.2-152.1 152.1 0 83.8 68.2 152.1 152.1 152.1 83.8 0 152-68.2 152-152.1 0-83.9-68.2-152.1-152-152.1z" fill="#CDD4DB" /><path d="M566.5 323.4h-1c-5.6-0.5-9.8-5.5-9.2-11.1 0.3-3.5 0.5-6.9 0.4-10.4 0-5.6 4.5-10.3 10.2-10.3 5.9-0.3 10.3 4.5 10.3 10.2 0 4.1-0.1 8.3-0.5 12.4-0.5 5.2-5 9.2-10.2 9.2zM558.7 271.6c-4 0-7.8-2.4-9.5-6.3-11.7-28-36.1-49.3-65.3-57-5.5-1.4-8.7-7-7.3-12.5 1.4-5.5 7.1-8.7 12.5-7.3 35.3 9.3 64.9 35.1 79 69 2.2 5.2-0.3 11.2-5.5 13.4-1.2 0.4-2.6 0.7-3.9 0.7z" fill="#CDD4DB" /><path d="M319.2 851.3c-27.1 6.9-28.1 60-28.1 60l122.4-2.5 14.2-81.4h-95.3s0 20.5-13.2 23.9zM614.7 851.3c-13.2-3.4-13.2-23.8-13.2-23.8H495.9l24.4 81.4 122.4 2.5c0.1-0.1-0.9-53.3-28-60.1z" fill="#F0F2F4" /><path d="M510.6 921.6c-5.1 0-9.4-3.8-10.1-8.9l-19.4-142h-32.5l-19.4 142c-0.7 5.1-5 8.9-10.1 8.9l-128-0.1c-5.6 0-10.1-4.5-10.2-10l-0.4-21.7c-0.3-13.3 4.7-26 14.1-35.5 7-7.1 15.8-11.9 25.4-13.8l4.2-97.4c-1.9 1.7-3.8 3.2-5.9 4.5-12.2 8-27 10-42.9 5.6-33.9-9.3-49.8-34.1-42.5-66.2 7.6-33.7 83.4-200.9 86.6-208 2.3-5.1 8.4-7.5 13.5-5.1 5.1 2.3 7.4 8.4 5.1 13.6-27 59.5-79.6 178.6-85.3 204-4.8 21.4 4.6 35.5 28 41.9 10.1 2.8 18.9 1.8 26.2-3 11.6-7.6 17.6-23.4 19.3-35.6 0.8-5.4 5.7-9.3 11.1-8.8 5.4 0.5 9.5 5.2 9.3 10.6L340.1 850c-0.2 5.5-4.7 9.8-10.2 9.8-7.8 0-15.1 3.1-20.6 8.7-5.5 5.6-8.4 12.9-8.2 20.8l0.2 11.6 109.1 0.1 19.4-142c0.7-5.1 5-8.9 10.1-8.9h50.4c5.1 0 9.5 3.8 10.2 8.9l19.3 142 109.1-0.1 0.2-11.6c0.2-7.8-2.8-15.2-8.2-20.8-5.5-5.6-12.8-8.7-20.6-8.7-5.5 0-10-4.3-10.2-9.8l-6.6-153.4c-0.2-5.5 3.9-10.1 9.3-10.6 5.3-0.5 10.3 3.4 11.1 8.8 1.7 12.2 7.7 28 19.3 35.6 7.2 4.8 16.1 5.8 26.2 3 23.4-6.4 32.8-20.5 28-41.9-5.7-25.4-58.3-144.5-85.3-204-2.3-5.2-0.1-11.2 5.1-13.6 5.2-2.4 11.2-0.1 13.5 5.1 3.2 7.1 79 174.2 86.6 208 7.3 32.1-8.6 56.9-42.5 66.2-15.8 4.3-30.7 2.4-42.9-5.6-2-1.3-4-2.9-5.9-4.5l4.2 97.4c9.6 1.9 18.4 6.7 25.4 13.8 9.3 9.5 14.3 22.2 14.1 35.5l-0.4 21.7c-0.1 5.6-4.7 10-10.2 10l-128.5 0.1z" fill="#CDD4DB" /><path d="M512 608.4h-94.3c-13.6 0-24.6 11-24.6 24.6v12.3c0 13.6 11 24.6 24.6 24.6H512c13.6 0 24.6-11 24.6-24.6V633c0-13.6-11-24.6-24.6-24.6z" fill="#F0F2F4" /><path d="M512 577.2h-94.3c-19.4 0-35.3 15.8-35.3 35.3v43.1c0 19.5 15.8 35.3 35.3 35.3H512c19.5 0 35.3-15.8 35.3-35.3v-43.1c0-19.5-15.8-35.3-35.3-35.3z m13.9 78.3c0 7.6-6.2 13.8-13.8 13.8h-94.3c-7.6 0-13.8-6.2-13.8-13.8v-43.1c0-7.6 6.2-13.8 13.8-13.8H512c7.6 0 13.8 6.2 13.8 13.8v43.1z" fill="#CDD4DB" /><path d="M435.9 634m-10.2 0a10.2 10.2 0 1 0 20.4 0 10.2 10.2 0 1 0-20.4 0Z" fill="#CDD4DB" /><path d="M504.2 618.6h-25.6c-2.8 0-5.1 2.3-5.1 5.1s2.3 5.1 5.1 5.1h25.6c2.8 0 5.1-2.3 5.1-5.1s-2.3-5.1-5.1-5.1zM504.2 639.1h-25.6c-2.8 0-5.1 2.3-5.1 5.1s2.3 5.1 5.1 5.1h25.6c2.8 0 5.1-2.3 5.1-5.1s-2.3-5.1-5.1-5.1z" fill="#CDD4DB" /><path d="M874.1 863c-1.7-2.6-44.3-63.8-142.6-24.2-23.8 9.6-46.3 9-67-1.8-53.8-27.9-75.1-115.4-76-119.1l19.9-4.7c0.2 0.8 20 82.2 65.5 105.7 15.4 7.9 31.7 8.2 49.9 0.9C783 796 825.1 805.6 850 817.9c27.4 13.5 40.5 33 41.1 33.9l-17 11.2z" fill="#CDD4DB" /><path d="M927.3 858.4L891.5 901c-0.9 1.1-2.5 1.2-3.5 0.3l-14-11.8c-12.8-10.8-14.5-30-3.7-42.8 10.8-12.8 30-14.5 42.8-3.7l14 11.8c1 0.9 1.1 2.5 0.2 3.6z" fill="#CDD4DB" /><path d="M894.087 889.04l6.826-8.108 18.82 15.842-6.827 8.11zM909.142 871.109l6.827-8.11 18.819 15.843-6.827 8.11z" fill="#CDD4DB" /><path d="M910 857.4l-20.8 24.7-5.5-4.7c-6.8-5.8-7.7-16-2-22.8 5.8-6.8 16-7.7 22.8-2l5.5 4.8z" fill="#FFFFFF" /></svg>