<?xml version="1.0" standalone="no"?><!DOCTYPE svg PUBLIC "-//W3C//DTD SVG 1.1//EN" "http://www.w3.org/Graphics/SVG/1.1/DTD/svg11.dtd"><svg class="icon" width="200px" height="169.82px" viewBox="0 0 1206 1024" version="1.1" xmlns="http://www.w3.org/2000/svg"><path d="M640 236.307692h418.461538c54.153846 0 98.461538 44.307692 98.461539 98.461539v541.538461c0 54.153846-44.307692 98.461538-98.461539 98.461539H147.692308c-54.153846 0-98.461538-44.307692-98.461539-98.461539V334.769231c0-54.153846 44.307692-98.461538 98.461539-98.461539h354.461538" fill="#FFF6E3" /><path d="M1058.461538 999.384615H147.692308c-67.864615 0-123.076923-55.212308-123.076923-123.076923V334.769231c0-67.864615 55.212308-123.076923 123.076923-123.076923h354.461538v49.230769H147.692308c-40.718769 0-73.846154 33.127385-73.846154 73.846154v541.538461c0 40.718769 33.127385 73.846154 73.846154 73.846154h910.76923c40.718769 0 73.846154-33.127385 73.846154-73.846154V334.769231c0-40.718769-33.127385-73.846154-73.846154-73.846154h-418.461538V211.692308h418.461538c67.864615 0 123.076923 55.212308 123.076924 123.076923v541.538461c0 67.864615-55.212308 123.076923-123.076924 123.076923z" fill="#6E6E96" /><path d="M331.569231 549.681231m-111.108923 0a111.108923 111.108923 0 1 0 222.217846 0 111.108923 111.108923 0 1 0-222.217846 0Z" fill="#FFF6E3" /><path d="M331.569231 685.405538c-74.840615 0-135.724308-60.883692-135.724308-135.719384 0-74.840615 60.888615-135.724308 135.724308-135.724308s135.724308 60.888615 135.724307 135.724308c0 74.830769-60.883692 135.719385-135.724307 135.719384z m0-222.217846c-47.694769 0-86.493538 38.798769-86.493539 86.493539 0 47.694769 38.798769 86.488615 86.493539 86.488615 47.694769 0 86.493538-38.798769 86.493538-86.488615 0-47.694769-38.798769-86.493538-86.493538-86.493539z" fill="#6E6E96" /><path d="M679.384615 315.490462h-152.615384L443.076923 49.230769h320z" fill="#BFDDFF" /><path d="M679.384615 340.105846h-152.615384a24.615385 24.615385 0 0 1-23.483077-17.230769l-83.692308-266.259692A24.625231 24.625231 0 0 1 443.076923 24.615385h320a24.615385 24.615385 0 0 1 23.478154 32l-83.692308 266.259692a24.605538 24.605538 0 0 1-23.478154 17.230769z m-134.552615-49.230769h116.484923L729.540923 73.846154H476.617846l68.214154 217.028923z" fill="#6E6E96" /><path d="M630.153846 516.923077h344.615385" fill="#FFF6E3" /><path d="M630.153846 492.307692h344.615385v49.23077h-344.615385z" fill="#6E6E96" /><path d="M630.153846 718.769231h219.076923" fill="#FFF6E3" /><path d="M630.153846 694.153846h219.076923v49.230769H630.153846z" fill="#6E6E96" /><path d="M448 768s-14.769231-102.286769-116.430769-102.286769S216.615385 768 216.615385 768" fill="#FFF6E3" /><path d="M423.655385 771.638154c-1.289846-8.32-14.818462-81.314462-92.086154-81.314462-76.967385 0-89.398154 72.679385-90.56 80.964923l-48.807385-6.464c5.563077-42.791385 41.846154-123.731692 139.367385-123.731692 97.275077 0 134.631385 80.713846 140.795077 123.382154l-48.708923 7.163077z" fill="#6E6E96" /><path d="M513.038769 257.038769h182.134154v49.230769h-182.134154z" fill="#666666" opacity=".15" /></svg>