<?xml version="1.0" standalone="no"?><!DOCTYPE svg PUBLIC "-//W3C//DTD SVG 1.1//EN" "http://www.w3.org/Graphics/SVG/1.1/DTD/svg11.dtd"><svg class="icon" width="200px" height="196.17px" viewBox="0 0 1044 1024" version="1.1" xmlns="http://www.w3.org/2000/svg"><path d="M43.885777 676.657241s18.287203-354.829673 269.467448-354.829673c187.124564 0 237.786305 266.891353 308.916373 423.787394 49.353945 108.867447 232.770161 60.882738 316.153137-158.278443v392.777704H43.885777v-303.456982z" fill="#FFEDAD" /><path d="M143.10713 377.483511h43.885777V976.458538h-43.885777zM272.82471 318.171883h43.885777v661.213836h-43.885777zM398.627678 359.130479h43.885777v620.250852h-43.885777zM525.90082 555.339399h43.885777v424.774824h-43.885777zM663.408125 786.2883h43.885777v187.243056h-43.885777zM793.604059 767.268205h43.885777v212.846018h-43.885777z" fill="#966E6E" opacity=".33" /><path d="M621.444545 744.039463c-71.125679-156.891653-121.78742-423.783005-308.916373-423.783005-251.180245 0-269.467448 354.829673-269.467448 354.829672v303.452594h60.777413L105.325865 748.252498s-15.360022-356.93619 193.830311-356.93619c187.124564 0 201.839465 231.339485 272.969533 388.239914 49.353945 108.871836 282.093386 136.541818 365.476362-82.614975v-111.180227c-83.382976 219.161182-266.790415 267.141502-316.157526 158.278443z" fill="#E0CC98" opacity=".6" /><path d="M43.885777 958.171335a21.942888 21.942888 0 0 1 21.942888 21.942888v-303.452593c0 0.377418-0.008777 0.754835-0.03072 1.132253v0.013165c0.175543-3.344096 20.279618-334.032203 247.55528-334.032203 133.210887 0 192.864824 160.165532 245.497036 301.473345 14.613964 39.24705 28.424818 76.326143 43.429365 109.437962 20.573652 45.373505 61.633185 70.484946 112.659178 68.896282 79.117279-2.461992 185.250642-74.039694 243.991754-228.438635l-41.015647-15.610171c-51.552622 135.501725-139.7762 198.170615-204.340954 200.176194-32.914333 1.01815-58.240815-14.306763-71.323165-43.157273-14.381369-31.725028-27.933297-68.115114-42.279558-106.629272-57.617637-154.697364-122.924061-330.042986-286.622398-330.042986-112.369532 0-198.565587 66.087592-249.258047 191.113782-36.93427 91.080542-41.928471 180.756738-42.121569 184.526526a24.698915 24.698915 0 0 0-0.026332 1.136642v303.452593a21.942888 21.942888 0 0 0 21.942889 21.942889" fill="#6E6E96" /><path d="M21.942888 0v1002.057112h1022.538604v-43.885777H43.885777l21.942888 21.942888V0z" fill="#6E6E96" /></svg>