<?xml version="1.0" standalone="no"?><!DOCTYPE svg PUBLIC "-//W3C//DTD SVG 1.1//EN" "http://www.w3.org/Graphics/SVG/1.1/DTD/svg11.dtd"><svg class="icon" width="200px" height="200.00px" viewBox="0 0 1024 1024" version="1.1" xmlns="http://www.w3.org/2000/svg"><path d="M916.48 977.92l-35.84-102.4h-168.96l-35.84 102.4h-107.52l163.84-430.08h122.88l163.84 430.08h-102.4z m-117.76-337.92l-61.44 158.72h122.88l-61.44-158.72zM527.36 798.72l46.08-107.52c-15.36-10.24-30.72-20.48-40.96-30.72 76.8-87.04 138.24-194.56 184.32-322.56h138.24v-102.4H465.92l76.8-25.6c-10.24-35.84-35.84-92.16-61.44-138.24l-112.64 35.84c20.48 40.96 40.96 92.16 51.2 128H40.96v102.4h143.36c46.08 128 112.64 235.52 189.44 322.56C281.6 732.16 163.84 783.36 25.6 819.2c20.48 25.6 51.2 76.8 66.56 102.4 143.36-40.96 266.24-102.4 363.52-184.32 20.48 20.48 46.08 40.96 71.68 61.44z m-235.52-460.8h307.2c-35.84 97.28-87.04 179.2-148.48 250.88-66.56-71.68-122.88-153.6-158.72-250.88z" /></svg>