<?xml version="1.0" standalone="no"?><!DOCTYPE svg PUBLIC "-//W3C//DTD SVG 1.1//EN" "http://www.w3.org/Graphics/SVG/1.1/DTD/svg11.dtd"><svg class="icon" width="200px" height="195.98px" viewBox="0 0 1045 1024" version="1.1" xmlns="http://www.w3.org/2000/svg"><path d="M1002.539207 980.793249H43.206751v-172.507274s130.056641 71.152878 130.056641-130.060962c0 0-1.40854-153.103122 95.089418-153.103123 96.502278 0 79.712135 221.607426 185.996422 221.607426 171.284523 0 21.655224-479.257924 212.568574-479.257924 141.769992 0 45.116489 482.04908 215.35973 482.049081 92.302582 0 120.261671-139.847291 120.261671-139.847292" fill="#FFE39C" /><path d="M1002.539207 1002.396624H43.206751a21.603376 21.603376 0 0 1-21.603375-21.603375v-172.507274a21.612017 21.612017 0 0 1 31.972995-18.954802c0.267882 0.146903 36.185654 19.015291 62.252287 3.400371 23.439662-14.042194 35.831359-53.641181 35.831359-114.506531-0.034565-3.784911-0.345654-97.880574 47.475578-146.146836 18.773333-18.950481 42.061772-28.555342 69.217215-28.555342 61.971443 0 86.417823 64.12746 107.986633 120.70238 23.236591 60.951764 41.223561 100.905046 78.009789 100.905047 58.68773 0 68.4827-83.021772 76.730869-209.682363 8.222245-126.358143 17.550582-269.575561 135.837705-269.575561 40.402633 0 70.068388 28.317705 88.167696 84.16243 14.184776 43.764118 21.024405 99.90265 28.261536 159.337856 14.284152 117.280405 29.052219 238.548793 98.926177 238.548794 72.561418 0 98.831122-121.251105 99.077401-122.482498l42.372861 8.472844c-1.283241 6.416203-32.681586 157.216405-141.445941 157.216405-108.142177 0-126.034093-146.915916-141.817519-276.531848-12.305283-101.038987-25.02535-205.517232-73.542211-205.517232-72.388591 0-83.71308 90.738498-92.726009 229.177249-3.957738 60.804861-7.699443 118.235274-21.655223 163.567797-17.671561 57.404489-50.703122 86.508557-98.191663 86.508557-69.307949 0-95.378903-68.383325-118.382177-128.721553-21.391662-56.108287-37.650363-92.885873-67.614245-92.885873-15.390245 0-27.972051 5.137283-38.471291 15.709975-29.168878 29.367629-35.165975 93.412996-35.014751 115.616945 0 78.394329-19.235646 129.456068-57.166852 151.945181-25.116084 14.880405-52.431392 13.571241-72.889789 8.853063V959.189873h937.72908v43.206751z" fill="#6E6E96" /><path d="M21.603376 0h43.206751v980.793249H21.603376z" fill="#6E6E96" /><path d="M91.848911 842.060692c-31.398346 0-57.430414-13.95146-59.01178-14.819916l20.652827-37.95281c0.362937 0.19011 36.272068 19.067139 62.3387 3.447899 23.439662-14.042194 35.831359-53.641181 35.831359-114.506532-0.034565-3.784911-0.345654-97.880574 47.475578-146.146835 18.773333-18.950481 42.061772-28.555342 69.217215-28.555342 61.971443 0 86.417823 64.12746 107.986633 120.70238 23.236591 60.951764 41.223561 100.905046 78.009789 100.905046 58.68773 0 68.4827-83.021772 76.730869-209.682363 8.222245-126.358143 17.550582-269.575561 135.837705-269.575561 40.402633 0 70.068388 28.317705 88.167696 84.162431 14.184776 43.764118 21.024405 99.90265 28.261536 159.337856 14.284152 117.280405 29.052219 238.548793 98.926177 238.548793 72.561418 0 98.831122-121.251105 99.077401-122.482497l42.372861 8.472843c-1.283241 6.416203-32.681586 157.216405-141.445941 157.216405-108.142177 0-126.034093-146.915916-141.817519-276.531848-12.305283-101.038987-25.02535-205.517232-73.542211-205.517232-72.388591 0-83.71308 90.738498-92.726009 229.177249-3.957738 60.804861-7.699443 118.235274-21.655223 163.567798-17.671561 57.404489-50.703122 86.508557-98.191663 86.508557-69.307949 0-95.378903-68.387646-118.382177-128.721553-21.391662-56.108287-37.650363-92.885873-67.614245-92.885874-15.390245 0-27.972051 5.137283-38.471291 15.709975-29.168878 29.367629-35.165975 93.412996-35.014751 115.616945 0 78.394329-19.235646 129.456068-57.166852 151.945182-15.143966 8.974042-31.087257 12.059004-45.846684 12.059004z" fill="#6E6E96" /><path d="M83.207561 889.350481c-31.398346 0-57.430414-13.95146-59.01178-14.819916l20.652827-37.95281c0.358616 0.19011 36.272068 19.045536 62.3387 3.447899 23.439662-14.046515 35.831359-53.641181 35.831359-114.510852-0.034565-3.784911-0.345654-97.871932 47.475578-146.138194 18.777654-18.950481 42.061772-28.555342 69.217215-28.555342 61.971443 0 86.417823 64.123139 107.986633 120.70238 23.236591 60.947443 41.223561 100.905046 78.009789 100.905046 58.68773 0 68.4827-83.021772 76.726548-209.678042 8.226565-126.358143 17.550582-269.575561 135.842026-269.575561 40.402633 0 70.068388 28.313384 88.167696 84.16243 14.184776 43.764118 21.024405 99.90265 28.261536 159.337857 14.284152 117.280405 29.052219 238.548793 98.926177 238.548793 72.561418 0 98.831122-121.251105 99.077401-122.482498l42.372861 8.472844c-1.283241 6.416203-32.681586 157.216405-141.445941 157.216405-108.142177 0-126.034093-146.915916-141.817519-276.531848-12.305283-101.038987-25.02535-205.517232-73.542211-205.517232-72.388591 0-83.71308 90.738498-92.726009 229.177249-3.957738 60.804861-7.699443 118.235274-21.655223 163.567797-17.671561 57.404489-50.703122 86.508557-98.191663 86.508557-69.307949 0-95.378903-68.383325-118.382177-128.721553-21.391662-56.103966-37.650363-92.881553-67.614245-92.881552-15.416169 0-28.015257 5.154565-38.52746 15.761822-29.281215 29.549097-35.165975 93.412996-34.958582 115.526211 0 78.415932-19.235646 129.486312-57.171173 151.971106-15.139646 8.974042-31.087257 12.059004-45.842363 12.059004z" fill="#666666" opacity=".15" /></svg>