<?xml version="1.0" standalone="no"?><!DOCTYPE svg PUBLIC "-//W3C//DTD SVG 1.1//EN" "http://www.w3.org/Graphics/SVG/1.1/DTD/svg11.dtd"><svg height="1024" node-id="1" sillyvg="true" template-height="1024" template-width="1024" version="1.1" viewBox="0 0 1024 1024" width="1024" xmlns="http://www.w3.org/2000/svg" xmlns:xlink="http://www.w3.org/1999/xlink"><defs node-id="162"><linearGradient gradientUnits="objectBoundingBox" id="linear-gradient" node-id="5" spreadMethod="pad" x1="0" x2="1" y1="0.418" y2="0.457"><stop offset="0" stop-color="#c3d2ef"></stop><stop offset="1" stop-color="#ffffff"></stop></linearGradient><clipPath id="clip-工作汇报-2" node-id="8"><path d="M 0.00 0.00 L 1024.00 0.00 L 1024.00 1024.00 L 0.00 1024.00 Z" fill="#000000" fill-rule="nonzero" node-id="171" stroke="none" target-height="1024" target-width="1024" target-x="0" target-y="0"></path></clipPath><clipPath id="clip-path" node-id="3"><path d="M 0.00 0.00 L 1024.00 0.00 L 1024.00 1024.00 L 0.00 1024.00 Z" fill="#000000" fill-rule="nonzero" id="工作汇报" node-id="4" stroke="none" target-height="1024" target-width="1024" target-x="0" target-y="0"></path></clipPath></defs><g clip-path="url(#clip-工作汇报-2)" id="工作汇报-2" node-id="10"><path d="M 0.00 0.00 L 1024.00 0.00 L 1024.00 1024.00 L 0.00 1024.00 Z" fill="#ffffff" fill-rule="nonzero" node-id="179" stroke="none" target-height="1024" target-width="1024" target-x="0" target-y="0"></path><g clip-path="url(#clip-path)" group-id="1" id="工作汇报-3" node-id="12"><path d="M 0.00 0.00 L 1024.00 0.00 L 1024.00 1024.00 L 0.00 1024.00 Z" fill="#ffffff" fill-rule="nonzero" group-id="1,2" id="工作汇报-4" node-id="13" stroke="none" target-height="1024" target-width="1024" target-x="0" target-y="0"></path><path d="M 56.30 346.73 L 58.82 339.09 L 61.55 332.06 L 64.47 325.59 L 67.58 319.65 L 70.86 314.21 L 75.54 307.52 L 80.44 301.52 L 85.57 296.16 L 90.94 291.40 L 96.71 287.03 L 102.67 283.15 L 108.82 279.76 L 115.17 276.83 L 121.72 274.32 L 128.40 272.18 L 135.21 270.41 L 142.19 269.01 L 151.57 267.66 L 161.04 266.81 L 170.62 266.46 L 180.22 266.54 L 189.71 266.95 L 199.12 267.70 L 213.07 269.29 L 226.30 271.24 L 239.18 273.45 L 250.82 275.60 L 271.29 279.31 L 279.99 280.49 L 286.37 280.87 L 302.15 280.96 L 331.01 281.37 L 370.72 282.29 L 419.07 283.95 L 445.47 285.10 L 473.84 286.54 L 502.74 288.24 L 532.81 290.28 L 563.12 292.64 L 593.77 295.37 L 624.37 298.49 L 654.50 302.01 L 674.51 304.63 L 693.93 307.43 L 712.77 310.41 L 731.60 313.70 L 749.45 317.16 L 766.39 320.79 L 783.27 324.82 L 798.82 329.01 L 813.11 333.34 L 823.90 336.99 L 833.73 340.70 L 842.65 344.47 L 850.74 348.27 L 858.89 352.64 L 865.92 357.02 L 871.94 361.40 L 877.05 365.80 L 880.94 369.82 L 884.11 373.84 L 886.61 377.89 L 888.50 381.97 L 889.83 386.12 L 892.10 394.54 L 894.68 402.73 L 897.56 410.70 L 900.76 418.45 L 905.45 428.62 L 910.45 438.46 L 915.77 447.98 L 924.20 461.93 L 932.78 475.24 L 949.69 500.74 L 957.54 513.13 L 964.42 525.00 L 968.56 533.02 L 972.04 540.86 L 974.88 548.51 L 976.62 554.40 L 977.88 560.23 L 978.67 566.03 L 979.00 571.81 L 978.81 577.57 L 978.04 583.40 L 976.67 589.34 L 974.67 595.40 L 972.17 601.13 L 968.92 607.09 L 964.83 613.30 L 959.82 619.80 L 946.97 635.71 L 935.98 650.10 L 925.70 664.18 L 916.64 676.97 L 899.81 700.68 L 891.64 711.54 L 883.51 721.52 L 877.86 727.88 L 871.95 733.97 L 865.76 739.78 L 859.28 745.26 L 852.23 750.57 L 844.56 755.72 L 836.64 760.44 L 827.79 765.08 L 817.94 769.64 L 811.15 772.96 L 805.01 776.61 L 799.49 780.58 L 794.26 784.95 L 789.34 789.58 L 784.72 794.45 L 778.09 802.11 L 771.55 810.13 L 764.94 818.23 L 757.86 826.46 L 752.91 831.79 L 747.48 837.08 L 741.56 842.33 L 735.36 847.21 L 728.37 851.97 L 720.55 856.59 L 714.58 859.66 L 707.99 862.61 L 700.72 865.44 L 692.74 868.11 L 684.88 870.34 L 676.19 872.37 L 666.59 874.19 L 656.01 875.76 L 645.74 876.89 L 634.42 877.73 L 621.95 878.24 L 608.27 878.39 L 595.05 878.17 L 580.55 877.53 L 564.71 876.45 L 547.42 874.89 L 526.84 872.63 L 508.51 870.34 L 492.27 868.03 L 476.09 865.43 L 461.84 862.85 L 449.36 860.30 L 436.94 857.45 L 426.12 854.67 L 416.76 851.97 L 407.47 848.97 L 399.44 846.08 L 392.54 843.31 L 382.68 838.79 L 374.77 834.59 L 367.54 830.18 L 361.54 826.08 L 350.90 818.07 L 345.94 814.33 L 340.94 810.83 L 335.69 807.62 L 329.73 804.61 L 325.57 802.89 L 320.79 801.25 L 315.33 799.71 L 309.81 798.48 L 303.34 797.36 L 295.82 796.40 L 287.46 795.80 L 278.75 795.69 L 269.66 796.09 L 260.59 796.90 L 251.30 798.04 L 241.80 799.52 L 227.57 802.16 L 213.25 805.18 L 185.04 811.55 L 171.25 814.57 L 158.20 817.14 L 149.53 818.60 L 141.39 819.68 L 133.74 820.42 L 126.06 820.75 L 119.06 820.56 L 112.69 819.89 L 107.93 818.96 L 103.60 817.67 L 99.66 816.02 L 96.06 814.04 L 92.75 811.61 L 89.79 808.72 L 87.17 805.32 L 84.88 801.36 L 83.15 797.25 L 81.75 792.44 L 80.74 786.84 L 80.17 780.34 L 79.58 762.66 L 79.46 748.31 L 79.70 734.94 L 80.23 723.99 L 81.03 713.72 L 81.97 704.97 L 84.16 688.83 L 86.29 673.15 L 87.15 664.92 L 87.84 655.52 L 88.24 645.56 L 88.31 633.51 L 87.91 626.25 L 86.90 618.31 L 85.22 609.63 L 81.98 596.50 L 77.75 581.86 L 67.95 550.43 L 62.89 533.61 L 57.90 515.60 L 54.87 503.39 L 52.11 490.72 L 49.65 477.57 L 47.66 464.35 L 46.19 450.70 L 45.26 436.60 L 44.99 426.04 L 45.15 415.25 L 45.74 404.21 L 46.79 392.91 L 48.29 381.76 L 50.37 370.37 L 53.03 358.69 L 56.30 346.73 Z" fill="#f2f6fe" fill-rule="nonzero" group-id="1,3" id="路径_1166" node-id="14" stroke="none" target-height="611.9339" target-width="934.0067" target-x="44.99012" target-y="266.46088"></path><path d="M 762.65 152.54 L 762.65 138.19 L 748.30 138.19 L 747.10 137.95 L 746.13 137.29 L 745.47 136.32 L 745.23 135.12 L 745.47 133.91 L 746.13 132.94 L 747.10 132.29 L 748.30 132.04 L 762.65 132.04 L 762.65 117.69 L 762.90 116.48 L 763.55 115.52 L 764.52 114.86 L 765.73 114.61 L 766.93 114.86 L 767.90 115.52 L 768.56 116.48 L 768.80 117.69 L 768.80 132.04 L 783.15 132.04 L 784.36 132.29 L 785.33 132.94 L 785.98 133.91 L 786.23 135.12 L 785.98 136.32 L 785.33 137.29 L 784.36 137.95 L 783.15 138.19 L 768.80 138.19 L 768.80 152.54 L 768.56 153.75 L 767.90 154.72 L 766.93 155.37 L 765.73 155.62 L 764.52 155.37 L 763.55 154.72 L 762.90 153.75 L 762.65 152.54 Z" fill="#d1e6ff" fill-rule="nonzero" group-id="1,4" id="联合_163" node-id="15" stroke="none" target-height="41.001" target-width="41.000977" target-x="745.22754" target-y="114.615"></path><path d="M 822.30 245.44 L 820.17 245.19 L 818.27 244.52 L 816.54 243.43 L 815.09 242.00 L 814.00 240.30 L 813.27 238.28 L 813.02 236.15 L 813.23 234.14 L 813.89 232.21 L 814.95 230.47 L 816.36 229.02 L 818.15 227.84 L 818.11 226.86 L 818.25 224.76 L 818.68 222.80 L 819.41 220.94 L 820.41 219.21 L 821.64 217.67 L 823.10 216.31 L 824.75 215.19 L 826.57 214.32 L 828.58 213.72 L 830.66 213.45 L 832.67 213.49 L 834.64 213.84 L 836.53 214.48 L 838.28 215.38 L 839.90 216.55 L 841.32 217.95 L 842.53 219.56 L 843.51 221.42 L 845.06 220.85 L 846.69 220.66 L 848.45 220.90 L 850.00 221.49 L 851.38 222.44 L 852.51 223.69 L 853.30 225.14 L 853.76 226.86 L 855.45 227.02 L 857.01 227.45 L 858.44 228.14 L 860.32 229.59 L 861.77 231.48 L 862.45 232.92 L 862.87 234.47 L 863.03 236.17 L 862.87 237.86 L 862.44 239.42 L 861.75 240.85 L 860.29 242.73 L 858.41 244.18 L 856.97 244.86 L 855.42 245.28 L 853.72 245.44 Z" fill="#e2efff" fill-rule="nonzero" group-id="1,5" id="联合_164" node-id="16" stroke="none" target-height="31.992172" target-width="50.00702" target-x="813.022" target-y="213.44682"></path><path d="M 648.30 196.94 L 646.46 196.68 L 644.88 196.02 L 643.50 194.96 L 642.44 193.58 L 641.78 192.01 L 641.51 190.17 L 641.77 188.32 L 642.43 186.75 L 643.49 185.37 L 644.87 184.30 L 646.45 183.64 L 648.29 183.38 L 648.62 182.13 L 649.20 181.06 L 650.03 180.16 L 651.04 179.46 L 652.17 179.03 L 653.45 178.86 L 654.65 179.00 L 655.78 179.41 L 656.94 177.43 L 658.41 175.86 L 660.23 174.66 L 662.26 173.88 L 664.40 173.59 L 666.68 173.80 L 668.85 174.55 L 670.68 175.68 L 672.22 177.22 L 673.38 179.06 L 674.09 181.10 L 674.34 183.38 L 674.31 184.09 L 675.62 184.95 L 676.65 186.01 L 677.43 187.28 L 677.91 188.69 L 678.06 190.16 L 677.89 191.71 L 677.35 193.18 L 676.56 194.43 L 675.50 195.47 L 674.23 196.27 L 672.84 196.75 L 671.29 196.94 Z" fill="#e2efff" fill-rule="nonzero" group-id="1,6" id="联合_165" node-id="17" stroke="none" target-height="23.34407" target-width="36.55066" target-x="641.51355" target-y="173.59393"></path><path d="M 891.71 271.82 L 894.63 272.09 L 897.30 272.82 L 899.78 274.00 L 902.03 275.59 L 903.93 277.50 L 905.52 279.74 L 906.71 282.22 L 907.44 284.90 L 907.71 287.82 L 907.71 574.84 L 907.44 577.76 L 906.71 580.44 L 905.52 582.92 L 903.93 585.16 L 902.03 587.07 L 899.78 588.66 L 897.30 589.84 L 894.63 590.57 L 891.71 590.84 L 479.33 590.84 L 476.41 590.57 L 473.74 589.84 L 471.26 588.66 L 469.01 587.07 L 467.11 585.16 L 465.52 582.92 L 464.33 580.44 L 463.60 577.76 L 463.33 574.84 L 463.33 287.82 L 463.60 284.90 L 464.33 282.22 L 465.52 279.74 L 467.11 277.50 L 469.01 275.59 L 471.26 274.00 L 473.74 272.82 L 476.41 272.09 L 479.33 271.82 Z" fill="#458cfb" fill-rule="nonzero" group-id="1,7,15" id="矩形_1402" node-id="19" stroke="none" target-height="319.01996" target-width="444.376" target-x="463.332" target-y="271.82"></path><path d="M 876.91 320.11 L 878.74 320.28 L 880.41 320.74 L 881.96 321.48 L 883.36 322.47 L 884.55 323.66 L 885.55 325.07 L 886.29 326.62 L 886.74 328.29 L 886.91 330.11 L 886.91 561.32 L 886.74 563.15 L 886.29 564.82 L 885.55 566.37 L 884.55 567.77 L 883.36 568.96 L 881.96 569.96 L 880.41 570.70 L 878.74 571.15 L 876.91 571.32 L 493.07 571.32 L 491.24 571.15 L 489.57 570.70 L 488.02 569.96 L 486.62 568.96 L 485.43 567.77 L 484.44 566.37 L 483.70 564.82 L 483.24 563.15 L 483.07 561.32 L 483.07 330.11 L 483.24 328.29 L 483.70 326.62 L 484.44 325.07 L 485.43 323.66 L 486.62 322.47 L 488.02 321.48 L 489.57 320.74 L 491.24 320.28 L 493.07 320.11 Z" fill="#cde2fc" fill-rule="nonzero" group-id="1,7,16" id="矩形_1404" node-id="20" stroke="none" target-height="251.21097" target-width="403.84198" target-x="483.07" target-y="320.113"></path><path d="M 550.92 299.93 L 551.16 298.26 L 551.76 296.82 L 552.73 295.57 L 553.98 294.60 L 555.41 294.00 L 557.09 293.76 L 558.76 294.00 L 560.20 294.60 L 561.45 295.57 L 562.42 296.82 L 563.02 298.26 L 563.26 299.93 L 563.02 301.61 L 562.42 303.04 L 561.45 304.29 L 560.20 305.26 L 558.76 305.86 L 557.09 306.10 L 555.41 305.86 L 553.98 305.26 L 552.73 304.29 L 551.76 303.04 L 551.16 301.61 L 550.92 299.93 Z" fill="#152e77" fill-rule="nonzero" group-id="1,7,17,46" id="椭圆_365" node-id="22" stroke="none" target-height="12.335999" target-width="12.335999" target-x="550.921" target-y="293.763"></path><path d="M 808.75 299.93 L 808.99 298.26 L 809.59 296.82 L 810.56 295.57 L 811.81 294.60 L 813.25 294.00 L 814.92 293.76 L 816.59 294.00 L 818.03 294.60 L 819.28 295.57 L 820.25 296.82 L 820.85 298.26 L 821.09 299.93 L 820.85 301.61 L 820.25 303.04 L 819.28 304.29 L 818.03 305.26 L 816.59 305.86 L 814.92 306.10 L 813.25 305.86 L 811.81 305.26 L 810.56 304.29 L 809.59 303.04 L 808.99 301.61 L 808.75 299.93 Z" fill="#152e77" fill-rule="nonzero" group-id="1,7,17,47" id="椭圆_366" node-id="23" stroke="none" target-height="12.335999" target-width="12.335999" target-x="808.752" target-y="293.763"></path><path d="M 760.64 293.76 L 762.31 294.00 L 763.75 294.60 L 765.00 295.57 L 765.97 296.82 L 766.57 298.26 L 766.81 299.93 L 766.57 301.61 L 765.97 303.04 L 765.00 304.29 L 763.75 305.26 L 762.31 305.86 L 760.64 306.10 L 612.60 306.10 L 610.93 305.86 L 609.49 305.26 L 608.24 304.29 L 607.27 303.04 L 606.67 301.61 L 606.43 299.93 L 606.67 298.26 L 607.27 296.82 L 608.24 295.57 L 609.49 294.60 L 610.93 294.00 L 612.60 293.76 Z" fill="#152e77" fill-rule="nonzero" group-id="1,7,17,48" id="矩形_1431" node-id="24" stroke="none" target-height="12.335999" target-width="160.37299" target-x="606.435" target-y="293.763"></path><path d="M 586.71 352.38 L 588.53 352.55 L 590.20 353.00 L 591.75 353.74 L 593.16 354.74 L 594.35 355.93 L 595.34 357.33 L 596.08 358.88 L 596.54 360.55 L 596.71 362.38 L 596.71 416.40 L 596.54 418.22 L 596.08 419.89 L 595.34 421.44 L 594.35 422.85 L 593.16 424.04 L 591.75 425.03 L 590.20 425.77 L 588.53 426.23 L 586.71 426.40 L 532.69 426.40 L 530.86 426.23 L 529.19 425.77 L 527.64 425.03 L 526.24 424.04 L 525.05 422.85 L 524.05 421.44 L 523.31 419.89 L 522.86 418.22 L 522.69 416.40 L 522.69 362.38 L 522.86 360.55 L 523.31 358.88 L 524.05 357.33 L 525.05 355.93 L 526.24 354.74 L 527.64 353.74 L 529.19 353.00 L 530.86 352.55 L 532.69 352.38 Z" fill="#f1f7ff" fill-rule="nonzero" group-id="1,7,18,49" id="矩形_1432" node-id="26" stroke="none" target-height="74.018005" target-width="74.018005" target-x="522.687" target-y="352.377"></path><path d="M 541.19 390.00 L 541.50 386.74 L 542.31 383.75 L 543.63 380.97 L 545.41 378.46 L 547.54 376.33 L 550.05 374.56 L 552.82 373.23 L 555.81 372.42 L 559.08 372.12 L 562.35 372.42 L 565.34 373.23 L 568.11 374.56 L 570.62 376.33 L 572.75 378.46 L 574.53 380.97 L 575.85 383.75 L 576.66 386.74 L 576.97 390.00 L 576.66 393.27 L 575.85 396.26 L 574.53 399.03 L 572.75 401.54 L 570.62 403.67 L 568.11 405.45 L 565.34 406.77 L 562.35 407.59 L 559.08 407.89 L 555.81 407.59 L 552.82 406.77 L 550.05 405.45 L 547.54 403.67 L 545.41 401.54 L 543.63 399.03 L 542.31 396.26 L 541.50 393.27 L 541.19 390.00 Z" fill="none" group-id="1,7,18,50" node-id="231" stroke="none" target-height="35.776" target-width="35.776" target-x="541.192" target-y="372.11502"></path><path d="M 559.08 374.12 L 555.95 374.42 L 553.00 375.32 L 550.28 376.77 L 547.85 378.77 L 545.85 381.20 L 544.39 383.92 L 543.50 386.87 L 543.19 390.00 L 543.50 393.14 L 544.39 396.09 L 545.85 398.80 L 547.85 401.24 L 550.28 403.24 L 553.00 404.69 L 555.95 405.58 L 559.08 405.89 L 562.21 405.58 L 565.16 404.69 L 567.88 403.24 L 570.31 401.24 L 572.31 398.80 L 573.77 396.09 L 574.66 393.14 L 574.97 390.00 L 574.66 386.87 L 573.77 383.92 L 572.31 381.20 L 570.31 378.77 L 567.88 376.77 L 565.16 375.32 L 562.21 374.42 L 559.08 374.12 M 559.08 372.12 L 562.34 372.42 L 565.34 373.23 L 568.11 374.56 L 570.62 376.33 L 572.75 378.46 L 574.53 380.97 L 575.85 383.75 L 576.66 386.74 L 576.97 390.00 L 576.66 393.27 L 575.85 396.26 L 574.53 399.03 L 572.75 401.54 L 570.62 403.67 L 568.11 405.45 L 565.34 406.77 L 562.34 407.59 L 559.08 407.89 L 555.81 407.59 L 552.82 406.77 L 550.05 405.45 L 547.54 403.67 L 545.41 401.54 L 543.63 399.03 L 542.31 396.26 L 541.50 393.27 L 541.19 390.00 L 541.50 386.74 L 542.31 383.75 L 543.63 380.97 L 545.41 378.46 L 547.54 376.33 L 550.05 374.56 L 552.82 373.23 L 555.81 372.42 L 559.08 372.12 Z" fill="#a1c7f6" fill-rule="nonzero" group-id="1,7,18,50" node-id="233" stroke="none" target-height="35.775604" target-width="35.775574" target-x="541.192" target-y="372.11502"></path><path d="M 586.71 529.28 L 532.69 529.28 L 530.55 528.99 L 528.65 528.19 L 527.03 526.94 L 525.78 525.32 L 524.98 523.42 L 524.69 521.28 L 524.69 467.26 L 524.98 465.12 L 525.78 463.23 L 527.03 461.61 L 528.65 460.36 L 530.55 459.56 L 532.69 459.26 L 586.71 459.26 L 588.85 459.56 L 590.74 460.36 L 592.36 461.61 L 593.61 463.23 L 594.41 465.12 L 594.71 467.26 L 594.71 521.28 L 594.41 523.42 L 593.61 525.32 L 592.36 526.94 L 590.74 528.19 L 588.85 528.99 L 586.71 529.28 Z" fill="#4d91fd" fill-rule="nonzero" group-id="1,7,19,51" node-id="239" stroke="none" target-height="70.01843" target-width="70.01843" target-x="524.687" target-y="459.265"></path><path d="M 532.69 461.26 L 531.06 461.50 L 529.66 462.08 L 528.45 463.02 L 527.50 464.24 L 526.92 465.64 L 526.69 467.26 L 526.69 521.28 L 526.92 522.91 L 527.50 524.31 L 528.45 525.52 L 529.66 526.47 L 531.06 527.05 L 532.69 527.28 L 586.71 527.28 L 588.33 527.05 L 589.73 526.47 L 590.95 525.52 L 591.89 524.31 L 592.47 522.91 L 592.71 521.28 L 592.71 467.26 L 592.47 465.64 L 591.89 464.24 L 590.95 463.02 L 589.73 462.08 L 588.33 461.50 L 586.71 461.26 L 532.69 461.26 M 532.69 457.26 L 586.71 457.26 L 588.53 457.43 L 590.20 457.89 L 591.75 458.63 L 593.16 459.62 L 594.35 460.81 L 595.34 462.22 L 596.08 463.77 L 596.54 465.44 L 596.71 467.26 L 596.71 521.28 L 596.54 523.11 L 596.08 524.78 L 595.34 526.33 L 594.35 527.73 L 593.16 528.92 L 591.75 529.92 L 590.20 530.66 L 588.53 531.11 L 586.71 531.28 L 532.69 531.28 L 530.86 531.11 L 529.19 530.66 L 527.64 529.92 L 526.24 528.92 L 525.05 527.73 L 524.05 526.33 L 523.31 524.78 L 522.86 523.11 L 522.69 521.28 L 522.69 467.26 L 522.86 465.44 L 523.31 463.77 L 524.05 462.22 L 525.05 460.81 L 526.24 459.62 L 527.64 458.63 L 529.19 457.89 L 530.86 457.43 L 532.69 457.26 Z" fill="#eef5ff" fill-rule="nonzero" group-id="1,7,19,51" node-id="241" stroke="none" target-height="74.01843" target-width="74.01843" target-x="522.687" target-y="457.265"></path><path d="M 541.19 494.89 L 541.50 491.63 L 542.31 488.63 L 543.63 485.86 L 545.41 483.35 L 547.54 481.22 L 550.05 479.45 L 552.82 478.12 L 555.81 477.31 L 559.08 477.00 L 562.35 477.31 L 565.34 478.12 L 568.11 479.45 L 570.62 481.22 L 572.75 483.35 L 574.53 485.86 L 575.85 488.63 L 576.66 491.63 L 576.97 494.89 L 576.66 498.16 L 575.85 501.15 L 574.53 503.92 L 572.75 506.43 L 570.62 508.56 L 568.11 510.34 L 565.34 511.66 L 562.35 512.48 L 559.08 512.78 L 555.81 512.48 L 552.82 511.66 L 550.05 510.34 L 547.54 508.56 L 545.41 506.43 L 543.63 503.92 L 542.31 501.15 L 541.50 498.16 L 541.19 494.89 Z" fill="none" group-id="1,7,19,52" node-id="245" stroke="none" target-height="35.77603" target-width="35.776" target-x="541.192" target-y="477.00302"></path><path d="M 559.08 479.00 L 555.95 479.31 L 553.00 480.20 L 550.28 481.66 L 547.85 483.66 L 545.85 486.09 L 544.39 488.81 L 543.50 491.76 L 543.19 494.89 L 543.50 498.03 L 544.39 500.97 L 545.85 503.69 L 547.85 506.13 L 550.28 508.12 L 553.00 509.58 L 555.95 510.47 L 559.08 510.78 L 562.21 510.47 L 565.16 509.58 L 567.88 508.12 L 570.31 506.13 L 572.31 503.69 L 573.77 500.97 L 574.66 498.03 L 574.97 494.89 L 574.66 491.76 L 573.77 488.81 L 572.31 486.09 L 570.31 483.66 L 567.88 481.66 L 565.16 480.20 L 562.21 479.31 L 559.08 479.00 M 559.08 477.00 L 562.34 477.31 L 565.34 478.12 L 568.11 479.45 L 570.62 481.22 L 572.75 483.35 L 574.53 485.86 L 575.85 488.63 L 576.66 491.63 L 576.97 494.89 L 576.66 498.16 L 575.85 501.15 L 574.53 503.92 L 572.75 506.43 L 570.62 508.56 L 568.11 510.34 L 565.34 511.66 L 562.34 512.47 L 559.08 512.78 L 555.81 512.47 L 552.82 511.66 L 550.05 510.34 L 547.54 508.56 L 545.41 506.43 L 543.63 503.92 L 542.31 501.15 L 541.50 498.16 L 541.19 494.89 L 541.50 491.63 L 542.31 488.63 L 543.63 485.86 L 545.41 483.35 L 547.54 481.22 L 550.05 479.45 L 552.82 478.12 L 555.81 477.31 L 559.08 477.00 Z" fill="#a1c7f6" fill-rule="nonzero" group-id="1,7,19,52" node-id="247" stroke="none" target-height="35.775604" target-width="35.775574" target-x="541.192" target-y="477.00302"></path><path d="M 711.69 352.38 L 713.51 352.55 L 715.19 353.00 L 716.74 353.74 L 718.14 354.74 L 719.33 355.93 L 720.32 357.33 L 721.06 358.88 L 721.52 360.55 L 721.69 362.38 L 721.69 416.40 L 721.52 418.22 L 721.06 419.89 L 720.32 421.44 L 719.33 422.85 L 718.14 424.04 L 716.74 425.03 L 715.19 425.77 L 713.51 426.23 L 711.69 426.40 L 657.67 426.40 L 655.84 426.23 L 654.17 425.77 L 652.62 425.03 L 651.22 424.04 L 650.03 422.85 L 649.04 421.44 L 648.30 419.89 L 647.84 418.22 L 647.67 416.40 L 647.67 362.38 L 647.84 360.55 L 648.30 358.88 L 649.04 357.33 L 650.03 355.93 L 651.22 354.74 L 652.62 353.74 L 654.17 353.00 L 655.84 352.55 L 657.67 352.38 Z" fill="#f1f7ff" fill-rule="nonzero" group-id="1,7,20,53" id="矩形_1432-3" node-id="38" stroke="none" target-height="74.018005" target-width="74.018005" target-x="647.67" target-y="352.377"></path><path d="M 666.17 390.00 L 666.48 386.74 L 667.29 383.75 L 668.62 380.97 L 670.39 378.46 L 672.52 376.33 L 675.03 374.56 L 677.81 373.23 L 680.80 372.42 L 684.06 372.12 L 687.33 372.42 L 690.32 373.23 L 693.09 374.56 L 695.60 376.33 L 697.73 378.46 L 699.51 380.97 L 700.83 383.75 L 701.65 386.74 L 701.95 390.00 L 701.65 393.27 L 700.83 396.26 L 699.51 399.03 L 697.73 401.54 L 695.60 403.67 L 693.09 405.45 L 690.32 406.77 L 687.33 407.59 L 684.06 407.89 L 680.80 407.59 L 677.81 406.77 L 675.03 405.45 L 672.52 403.67 L 670.39 401.54 L 668.62 399.03 L 667.29 396.26 L 666.48 393.27 L 666.17 390.00 Z" fill="none" group-id="1,7,20,54" node-id="257" stroke="none" target-height="35.776" target-width="35.776" target-x="666.175" target-y="372.11502"></path><path d="M 684.06 374.12 L 680.93 374.42 L 677.98 375.32 L 675.26 376.77 L 672.83 378.77 L 670.83 381.20 L 669.38 383.92 L 668.48 386.87 L 668.17 390.00 L 668.48 393.14 L 669.38 396.09 L 670.83 398.80 L 672.83 401.24 L 675.26 403.24 L 677.98 404.69 L 680.93 405.58 L 684.06 405.89 L 687.20 405.58 L 690.15 404.69 L 692.86 403.24 L 695.30 401.24 L 697.30 398.80 L 698.75 396.09 L 699.64 393.14 L 699.95 390.00 L 699.64 386.87 L 698.75 383.92 L 697.30 381.20 L 695.30 378.77 L 692.86 376.77 L 690.15 375.32 L 687.20 374.42 L 684.06 374.12 M 684.06 372.12 L 687.33 372.42 L 690.32 373.23 L 693.09 374.56 L 695.60 376.33 L 697.73 378.46 L 699.51 380.97 L 700.83 383.75 L 701.65 386.74 L 701.95 390.00 L 701.65 393.27 L 700.83 396.26 L 699.51 399.03 L 697.73 401.54 L 695.60 403.67 L 693.09 405.45 L 690.32 406.77 L 687.33 407.59 L 684.06 407.89 L 680.80 407.59 L 677.81 406.77 L 675.03 405.45 L 672.52 403.67 L 670.39 401.54 L 668.62 399.03 L 667.29 396.26 L 666.48 393.27 L 666.17 390.00 L 666.48 386.74 L 667.29 383.75 L 668.62 380.97 L 670.39 378.46 L 672.52 376.33 L 675.03 374.56 L 677.81 373.23 L 680.80 372.42 L 684.06 372.12 Z" fill="#a1c7f6" fill-rule="nonzero" group-id="1,7,20,54" node-id="259" stroke="none" target-height="35.775604" target-width="35.775574" target-x="666.175" target-y="372.11502"></path><path d="M 837.29 352.38 L 839.12 352.55 L 840.79 353.00 L 842.34 353.74 L 843.74 354.74 L 844.93 355.93 L 845.93 357.33 L 846.67 358.88 L 847.12 360.55 L 847.29 362.38 L 847.29 416.40 L 847.12 418.22 L 846.67 419.89 L 845.93 421.44 L 844.93 422.85 L 843.74 424.04 L 842.34 425.03 L 840.79 425.77 L 839.12 426.23 L 837.29 426.40 L 783.27 426.40 L 781.45 426.23 L 779.78 425.77 L 778.23 425.03 L 776.82 424.04 L 775.63 422.85 L 774.64 421.44 L 773.90 419.89 L 773.45 418.22 L 773.27 416.40 L 773.27 362.38 L 773.45 360.55 L 773.90 358.88 L 774.64 357.33 L 775.63 355.93 L 776.82 354.74 L 778.23 353.74 L 779.78 353.00 L 781.45 352.55 L 783.27 352.38 Z" fill="#f1f7ff" fill-rule="nonzero" group-id="1,7,21,55" id="矩形_1432-4" node-id="43" stroke="none" target-height="74.018005" target-width="74.018005" target-x="773.275" target-y="352.377"></path><path d="M 791.78 390.00 L 792.08 386.74 L 792.90 383.75 L 794.22 380.97 L 796.00 378.46 L 798.13 376.33 L 800.64 374.56 L 803.41 373.23 L 806.40 372.42 L 809.67 372.12 L 812.93 372.42 L 815.93 373.23 L 818.70 374.56 L 821.21 376.33 L 823.34 378.46 L 825.11 380.97 L 826.44 383.75 L 827.25 386.74 L 827.56 390.00 L 827.25 393.27 L 826.44 396.26 L 825.11 399.03 L 823.34 401.54 L 821.21 403.67 L 818.70 405.45 L 815.93 406.77 L 812.93 407.59 L 809.67 407.89 L 806.40 407.59 L 803.41 406.77 L 800.64 405.45 L 798.13 403.67 L 796.00 401.54 L 794.22 399.03 L 792.90 396.26 L 792.08 393.27 L 791.78 390.00 Z" fill="none" group-id="1,7,21,56" node-id="269" stroke="none" target-height="35.776" target-width="35.776" target-x="791.78" target-y="372.11502"></path><path d="M 809.67 374.12 L 806.53 374.42 L 803.58 375.32 L 800.87 376.77 L 798.43 378.77 L 796.43 381.20 L 794.98 383.92 L 794.09 386.87 L 793.78 390.00 L 794.09 393.14 L 794.98 396.09 L 796.43 398.80 L 798.43 401.24 L 800.87 403.24 L 803.58 404.69 L 806.53 405.58 L 809.67 405.89 L 812.80 405.58 L 815.75 404.69 L 818.47 403.24 L 820.90 401.24 L 822.90 398.80 L 824.35 396.09 L 825.25 393.14 L 825.56 390.00 L 825.25 386.87 L 824.35 383.92 L 822.90 381.20 L 820.90 378.77 L 818.47 376.77 L 815.75 375.32 L 812.80 374.42 L 809.67 374.12 M 809.67 372.12 L 812.93 372.42 L 815.92 373.23 L 818.70 374.56 L 821.21 376.33 L 823.34 378.46 L 825.11 380.97 L 826.44 383.75 L 827.25 386.74 L 827.56 390.00 L 827.25 393.27 L 826.44 396.26 L 825.11 399.03 L 823.34 401.54 L 821.21 403.67 L 818.70 405.45 L 815.92 406.77 L 812.93 407.59 L 809.67 407.89 L 806.40 407.59 L 803.41 406.77 L 800.64 405.45 L 798.13 403.67 L 796.00 401.54 L 794.22 399.03 L 792.90 396.26 L 792.08 393.27 L 791.78 390.00 L 792.08 386.74 L 792.90 383.75 L 794.22 380.97 L 796.00 378.46 L 798.13 376.33 L 800.64 374.56 L 803.41 373.23 L 806.40 372.42 L 809.67 372.12 Z" fill="#a1c7f6" fill-rule="nonzero" group-id="1,7,21,56" node-id="271" stroke="none" target-height="35.775604" target-width="35.775574" target-x="791.78" target-y="372.11502"></path><path d="M 711.69 529.28 L 657.67 529.28 L 655.53 528.99 L 653.64 528.19 L 652.02 526.94 L 650.76 525.32 L 649.96 523.42 L 649.67 521.28 L 649.67 467.26 L 649.96 465.12 L 650.76 463.23 L 652.02 461.61 L 653.64 460.36 L 655.53 459.56 L 657.67 459.26 L 711.69 459.26 L 713.83 459.56 L 715.72 460.36 L 717.34 461.61 L 718.59 463.23 L 719.40 465.12 L 719.69 467.26 L 719.69 521.28 L 719.40 523.42 L 718.59 525.32 L 717.34 526.94 L 715.72 528.19 L 713.83 528.99 L 711.69 529.28 Z" fill="#4d91fd" fill-rule="nonzero" group-id="1,7,22,57" node-id="277" stroke="none" target-height="70.01843" target-width="70.01837" target-x="649.67" target-y="459.265"></path><path d="M 657.67 461.26 L 656.04 461.50 L 654.65 462.08 L 653.43 463.02 L 652.48 464.24 L 651.90 465.64 L 651.67 467.26 L 651.67 521.28 L 651.90 522.91 L 652.48 524.31 L 653.43 525.52 L 654.65 526.47 L 656.04 527.05 L 657.67 527.28 L 711.69 527.28 L 713.32 527.05 L 714.71 526.47 L 715.93 525.52 L 716.87 524.31 L 717.46 522.91 L 717.69 521.28 L 717.69 467.26 L 717.46 465.64 L 716.87 464.24 L 715.93 463.02 L 714.71 462.08 L 713.32 461.50 L 711.69 461.26 L 657.67 461.26 M 657.67 457.26 L 711.69 457.26 L 713.51 457.43 L 715.19 457.89 L 716.74 458.63 L 718.14 459.62 L 719.33 460.81 L 720.32 462.22 L 721.06 463.77 L 721.52 465.44 L 721.69 467.26 L 721.69 521.28 L 721.52 523.11 L 721.06 524.78 L 720.32 526.33 L 719.33 527.73 L 718.14 528.92 L 716.74 529.92 L 715.19 530.66 L 713.51 531.11 L 711.69 531.28 L 657.67 531.28 L 655.84 531.11 L 654.17 530.66 L 652.62 529.92 L 651.22 528.92 L 650.03 527.73 L 649.04 526.33 L 648.30 524.78 L 647.84 523.11 L 647.67 521.28 L 647.67 467.26 L 647.84 465.44 L 648.30 463.77 L 649.04 462.22 L 650.03 460.81 L 651.22 459.62 L 652.62 458.63 L 654.17 457.89 L 655.84 457.43 L 657.67 457.26 Z" fill="#eef5ff" fill-rule="nonzero" group-id="1,7,22,57" node-id="279" stroke="none" target-height="74.01843" target-width="74.01837" target-x="647.67" target-y="457.265"></path><path d="M 666.17 494.89 L 666.48 491.63 L 667.29 488.63 L 668.62 485.86 L 670.39 483.35 L 672.52 481.22 L 675.03 479.45 L 677.81 478.12 L 680.80 477.31 L 684.06 477.00 L 687.33 477.31 L 690.32 478.12 L 693.09 479.45 L 695.60 481.22 L 697.73 483.35 L 699.51 485.86 L 700.83 488.63 L 701.65 491.63 L 701.95 494.89 L 701.65 498.16 L 700.83 501.15 L 699.51 503.92 L 697.73 506.43 L 695.60 508.56 L 693.09 510.34 L 690.32 511.66 L 687.33 512.48 L 684.06 512.78 L 680.80 512.48 L 677.81 511.66 L 675.03 510.34 L 672.52 508.56 L 670.39 506.43 L 668.62 503.92 L 667.29 501.15 L 666.48 498.16 L 666.17 494.89 Z" fill="none" group-id="1,7,22,58" node-id="283" stroke="none" target-height="35.77603" target-width="35.776" target-x="666.175" target-y="477.00302"></path><path d="M 684.06 479.00 L 680.93 479.31 L 677.98 480.20 L 675.26 481.66 L 672.83 483.66 L 670.83 486.09 L 669.38 488.81 L 668.48 491.76 L 668.17 494.89 L 668.48 498.03 L 669.38 500.97 L 670.83 503.69 L 672.83 506.13 L 675.26 508.12 L 677.98 509.58 L 680.93 510.47 L 684.06 510.78 L 687.20 510.47 L 690.15 509.58 L 692.86 508.12 L 695.30 506.13 L 697.30 503.69 L 698.75 500.97 L 699.64 498.03 L 699.95 494.89 L 699.64 491.76 L 698.75 488.81 L 697.30 486.09 L 695.30 483.66 L 692.86 481.66 L 690.15 480.20 L 687.20 479.31 L 684.06 479.00 M 684.06 477.00 L 687.33 477.31 L 690.32 478.12 L 693.09 479.45 L 695.60 481.22 L 697.73 483.35 L 699.51 485.86 L 700.83 488.63 L 701.65 491.63 L 701.95 494.89 L 701.65 498.16 L 700.83 501.15 L 699.51 503.92 L 697.73 506.43 L 695.60 508.56 L 693.09 510.34 L 690.32 511.66 L 687.33 512.47 L 684.06 512.78 L 680.80 512.47 L 677.81 511.66 L 675.03 510.34 L 672.52 508.56 L 670.39 506.43 L 668.62 503.92 L 667.29 501.15 L 666.48 498.16 L 666.17 494.89 L 666.48 491.63 L 667.29 488.63 L 668.62 485.86 L 670.39 483.35 L 672.52 481.22 L 675.03 479.45 L 677.81 478.12 L 680.80 477.31 L 684.06 477.00 Z" fill="#a1c7f6" fill-rule="nonzero" group-id="1,7,22,58" node-id="285" stroke="none" target-height="35.775604" target-width="35.775574" target-x="666.175" target-y="477.00302"></path><path d="M 837.29 529.28 L 783.27 529.28 L 781.13 528.99 L 779.24 528.19 L 777.62 526.94 L 776.37 525.32 L 775.57 523.42 L 775.27 521.28 L 775.27 467.26 L 775.57 465.12 L 776.37 463.23 L 777.62 461.61 L 779.24 460.36 L 781.13 459.56 L 783.27 459.26 L 837.29 459.26 L 839.43 459.56 L 841.33 460.36 L 842.95 461.61 L 844.20 463.23 L 845.00 465.12 L 845.29 467.26 L 845.29 521.28 L 845.00 523.42 L 844.20 525.32 L 842.95 526.94 L 841.33 528.19 L 839.43 528.99 L 837.29 529.28 Z" fill="#4d91fd" fill-rule="nonzero" group-id="1,7,23,59" node-id="291" stroke="none" target-height="70.01843" target-width="70.01843" target-x="775.275" target-y="459.265"></path><path d="M 783.27 461.26 L 781.65 461.50 L 780.25 462.08 L 779.03 463.02 L 778.09 464.24 L 777.51 465.64 L 777.27 467.26 L 777.27 521.28 L 777.51 522.91 L 778.09 524.31 L 779.03 525.52 L 780.25 526.47 L 781.65 527.05 L 783.27 527.28 L 837.29 527.28 L 838.92 527.05 L 840.32 526.47 L 841.53 525.52 L 842.48 524.31 L 843.06 522.91 L 843.29 521.28 L 843.29 467.26 L 843.06 465.64 L 842.48 464.24 L 841.53 463.02 L 840.32 462.08 L 838.92 461.50 L 837.29 461.26 L 783.27 461.26 M 783.27 457.26 L 837.29 457.26 L 839.12 457.43 L 840.79 457.89 L 842.34 458.63 L 843.74 459.62 L 844.93 460.81 L 845.93 462.22 L 846.67 463.77 L 847.12 465.44 L 847.29 467.26 L 847.29 521.28 L 847.12 523.11 L 846.67 524.78 L 845.93 526.33 L 844.93 527.73 L 843.74 528.92 L 842.34 529.92 L 840.79 530.66 L 839.12 531.11 L 837.29 531.28 L 783.27 531.28 L 781.45 531.11 L 779.78 530.66 L 778.23 529.92 L 776.82 528.92 L 775.63 527.73 L 774.64 526.33 L 773.90 524.78 L 773.45 523.11 L 773.27 521.28 L 773.27 467.26 L 773.45 465.44 L 773.90 463.77 L 774.64 462.22 L 775.63 460.81 L 776.82 459.62 L 778.23 458.63 L 779.78 457.89 L 781.45 457.43 L 783.27 457.26 Z" fill="#eef5ff" fill-rule="nonzero" group-id="1,7,23,59" node-id="293" stroke="none" target-height="74.01843" target-width="74.01843" target-x="773.275" target-y="457.265"></path><path d="M 791.78 494.89 L 792.08 491.63 L 792.90 488.63 L 794.22 485.86 L 796.00 483.35 L 798.13 481.22 L 800.64 479.45 L 803.41 478.12 L 806.40 477.31 L 809.67 477.00 L 812.93 477.31 L 815.93 478.12 L 818.70 479.45 L 821.21 481.22 L 823.34 483.35 L 825.11 485.86 L 826.44 488.63 L 827.25 491.63 L 827.56 494.89 L 827.25 498.16 L 826.44 501.15 L 825.11 503.92 L 823.34 506.43 L 821.21 508.56 L 818.70 510.34 L 815.93 511.66 L 812.93 512.48 L 809.67 512.78 L 806.40 512.48 L 803.41 511.66 L 800.64 510.34 L 798.13 508.56 L 796.00 506.43 L 794.22 503.92 L 792.90 501.15 L 792.08 498.16 L 791.78 494.89 Z" fill="none" group-id="1,7,23,60" node-id="297" stroke="none" target-height="35.77603" target-width="35.776" target-x="791.78" target-y="477.00302"></path><path d="M 809.67 479.00 L 806.53 479.31 L 803.58 480.20 L 800.87 481.66 L 798.43 483.66 L 796.43 486.09 L 794.98 488.81 L 794.09 491.76 L 793.78 494.89 L 794.09 498.03 L 794.98 500.97 L 796.43 503.69 L 798.43 506.13 L 800.87 508.12 L 803.58 509.58 L 806.53 510.47 L 809.67 510.78 L 812.80 510.47 L 815.75 509.58 L 818.47 508.12 L 820.90 506.13 L 822.90 503.69 L 824.35 500.97 L 825.25 498.03 L 825.56 494.89 L 825.25 491.76 L 824.35 488.81 L 822.90 486.09 L 820.90 483.66 L 818.47 481.66 L 815.75 480.20 L 812.80 479.31 L 809.67 479.00 M 809.67 477.00 L 812.93 477.31 L 815.92 478.12 L 818.70 479.45 L 821.21 481.22 L 823.34 483.35 L 825.11 485.86 L 826.44 488.63 L 827.25 491.63 L 827.56 494.89 L 827.25 498.16 L 826.44 501.15 L 825.11 503.92 L 823.34 506.43 L 821.21 508.56 L 818.70 510.34 L 815.92 511.66 L 812.93 512.47 L 809.67 512.78 L 806.40 512.47 L 803.41 511.66 L 800.64 510.34 L 798.13 508.56 L 796.00 506.43 L 794.22 503.92 L 792.90 501.15 L 792.08 498.16 L 791.78 494.89 L 792.08 491.63 L 792.90 488.63 L 794.22 485.86 L 796.00 483.35 L 798.13 481.22 L 800.64 479.45 L 803.41 478.12 L 806.40 477.31 L 809.67 477.00 Z" fill="#a1c7f6" fill-rule="nonzero" group-id="1,7,23,60" node-id="299" stroke="none" target-height="35.775604" target-width="35.775574" target-x="791.78" target-y="477.00302"></path><path d="M 191.22 632.28 L 191.22 728.05 L 190.78 728.78 L 190.09 729.47 L 188.53 730.52 L 186.51 731.47 L 183.09 732.59 L 179.05 733.49 L 173.06 734.33 L 166.30 734.84 L 157.05 735.05 L 147.76 734.84 L 140.74 734.33 L 134.43 733.49 L 129.98 732.59 L 126.10 731.48 L 123.65 730.52 L 121.66 729.48 L 120.67 728.78 L 119.92 728.05 L 119.92 632.28 Z" fill="url(#linear-gradient)" fill-rule="nonzero" group-id="1,8,24" id="路径_1167" node-id="62" stroke="none" target-height="102.77899" target-width="71.29401" target-x="119.923004" target-y="632.276"></path><path d="M 119.57 632.63 L 119.83 631.78 L 120.67 630.87 L 122.40 629.86 L 125.47 628.73 L 130.11 627.61 L 135.24 626.76 L 141.54 626.08 L 148.16 625.68 L 155.54 625.53 L 162.92 625.68 L 169.54 626.08 L 175.84 626.76 L 180.97 627.61 L 185.61 628.73 L 188.68 629.86 L 190.41 630.87 L 191.25 631.78 L 191.51 632.63 L 191.25 633.47 L 190.41 634.38 L 188.68 635.39 L 185.61 636.52 L 180.97 637.65 L 175.84 638.49 L 169.54 639.17 L 162.92 639.58 L 155.54 639.73 L 148.16 639.58 L 141.54 639.17 L 135.24 638.49 L 130.11 637.65 L 125.47 636.52 L 122.40 635.39 L 120.67 634.38 L 119.83 633.47 L 119.57 632.63 Z" fill="#b7bbc2" fill-rule="nonzero" group-id="1,8,25" id="椭圆_359" node-id="63" stroke="none" target-height="14.200012" target-width="71.933" target-x="119.573" target-y="625.526"></path><path d="M 123.36 635.46 L 123.68 634.87 L 124.87 634.16 L 127.69 633.31 L 132.29 632.50 L 139.07 631.79 L 146.42 631.37 L 155.07 631.21 L 163.71 631.37 L 171.07 631.79 L 177.84 632.50 L 182.44 633.31 L 185.26 634.16 L 186.45 634.87 L 186.77 635.46 L 186.45 636.06 L 185.26 636.77 L 182.44 637.61 L 177.84 638.43 L 171.07 639.14 L 163.71 639.56 L 155.07 639.72 L 146.42 639.56 L 139.07 639.14 L 132.29 638.43 L 127.69 637.61 L 124.87 636.77 L 123.68 636.06 L 123.36 635.46 Z" fill="#769be5" fill-rule="nonzero" group-id="1,8,26" id="椭圆_360" node-id="64" stroke="none" target-height="8.518005" target-width="63.415" target-x="123.359" target-y="631.205"></path><path d="M 169.24 609.88 L 168.32 606.04 L 167.58 603.69 L 166.73 601.78 L 166.01 600.66 L 164.37 599.01 L 163.53 598.20 L 162.51 596.97 L 161.62 595.24 L 160.77 592.46 L 160.20 589.42 L 159.89 586.17 L 159.92 582.98 L 160.32 580.43 L 160.89 578.93 L 161.62 578.04 L 162.51 577.59 L 164.11 576.97 L 165.87 575.67 L 167.44 573.95 L 168.80 571.87 L 169.79 569.61 L 170.27 567.38 L 170.26 565.89 L 169.92 564.56 L 169.24 563.33 L 167.76 561.88 L 166.05 560.85 L 162.31 559.26 L 160.51 558.32 L 158.87 557.01 L 157.99 555.94 L 157.22 554.49 L 156.59 552.57 L 156.19 549.50 L 156.25 546.43 L 156.90 540.63 L 157.04 537.99 L 156.78 535.88 L 156.30 534.67 L 155.45 533.70 L 154.17 532.93 L 151.85 532.34 L 149.33 532.32 L 146.80 532.81 L 144.32 533.73 L 142.01 535.02 L 140.06 536.56 L 138.47 538.35 L 137.49 540.19 L 136.52 541.91 L 135.18 543.24 L 133.59 544.32 L 131.94 545.20 L 129.05 546.81 L 128.12 547.74 L 127.80 548.80 L 128.02 550.04 L 128.68 551.53 L 130.56 554.49 L 132.34 557.09 L 132.88 558.18 L 132.91 558.76 L 132.41 559.34 L 131.24 560.20 L 129.96 561.24 L 128.49 562.96 L 127.70 564.31 L 127.01 566.19 L 126.46 568.71 L 125.91 570.79 L 125.15 572.01 L 124.14 572.93 L 123.07 573.59 L 122.02 574.23 L 121.09 575.03 L 120.43 576.10 L 120.05 577.90 L 120.12 580.11 L 120.81 583.78 L 121.61 587.46 L 121.96 589.81 L 122.03 591.81 L 121.87 593.04 L 121.50 594.09 L 121.04 594.96 L 119.98 597.03 L 119.55 598.45 L 119.19 600.73 L 118.37 606.90 L 118.07 609.89 L 118.08 612.57 L 118.35 614.28 L 118.91 615.83 L 119.76 617.23 L 120.90 618.40 L 122.55 619.45 L 124.84 620.38 L 128.08 621.19 L 130.93 621.66 L 133.44 621.81 L 137.18 621.68 L 140.55 621.27 L 147.18 620.38 L 152.28 620.15 L 158.52 619.66 L 161.65 619.09 L 164.42 618.23 L 166.11 617.41 L 167.45 616.40 L 168.49 615.20 L 169.17 613.80 L 169.44 612.07 L 169.24 609.88 Z" fill="#adbbb4" fill-rule="nonzero" group-id="1,8,27,61" id="路径_1168" node-id="66" stroke="none" target-height="89.49054" target-width="52.20102" target-x="118.06914" target-y="532.32074"></path><path d="M 147.45 539.92 L 146.60 544.23 L 144.62 555.65 L 143.51 563.10 L 142.37 571.90 L 141.40 581.04 L 140.67 590.69 L 140.30 600.38 L 140.39 609.74 L 140.76 615.93 L 141.43 621.59 L 142.37 626.76 L 143.74 631.82 L 145.45 636.02 L 147.45 639.48" fill="none" group-id="1,8,27,62" id="路径_1169" node-id="67" stroke="#ababab" stroke-linecap="butt" stroke-width="0.6" target-height="99.560974" target-width="7.148697" target-x="140.2993" target-y="539.917"></path><path d="M 152.33 549.26 L 144.00 559.79 L 139.59 553.91" fill="none" group-id="1,8,27,63" id="路径_1170" node-id="68" stroke="#ababab" stroke-linecap="butt" stroke-width="0.6" target-height="10.53302" target-width="12.7369995" target-x="139.591" target-y="549.258"></path><path d="M 157.72 566.65 L 154.36 568.09 L 151.32 570.05 L 148.58 572.36 L 146.32 574.67 L 143.07 578.74 L 141.90 580.49 L 141.09 579.28 L 138.97 576.32 L 136.03 572.63 L 134.37 570.81 L 132.73 569.22" fill="none" group-id="1,8,27,64" id="路径_1171" node-id="69" stroke="#ababab" stroke-linecap="butt" stroke-width="0.6" target-height="13.838013" target-width="24.987" target-x="132.733" target-y="566.64795"></path><path d="M 155.92 588.82 L 153.10 590.06 L 150.23 591.97 L 147.54 594.24 L 145.15 596.61 L 141.50 600.83 L 140.10 602.66 L 139.24 600.50 L 138.24 598.35 L 136.69 595.49 L 134.83 592.64 L 132.54 589.84 L 130.80 588.17 L 128.91 586.82 L 126.86 585.76" fill="none" group-id="1,8,27,65" id="路径_1172" node-id="70" stroke="#ababab" stroke-linecap="butt" stroke-width="0.6" target-height="16.90503" target-width="29.064995" target-x="126.855" target-y="585.756"></path><path d="M 150.25 608.41 L 148.51 608.92 L 146.76 610.03 L 145.17 611.49 L 143.75 613.11 L 141.64 616.10 L 140.84 617.45 L 128.45 612.70" fill="none" group-id="1,8,27,66" id="路径_1173" node-id="71" stroke="#ababab" stroke-linecap="butt" stroke-width="0.6" target-height="9.03302" target-width="21.800003" target-x="128.448" target-y="608.41296"></path><path d="M 135.10 604.29 L 136.19 599.73 L 137.08 596.93 L 138.09 594.65 L 138.95 593.33 L 140.90 591.36 L 141.90 590.40 L 143.10 588.94 L 143.97 587.35 L 144.83 584.91 L 145.47 582.22 L 145.96 579.17 L 146.23 576.07 L 146.24 573.14 L 145.95 570.35 L 145.38 568.24 L 144.75 567.03 L 144.00 566.29 L 143.10 565.90 L 141.85 565.49 L 140.53 564.75 L 139.11 563.61 L 137.25 561.58 L 135.63 559.10 L 134.45 556.41 L 133.88 553.75 L 133.89 551.99 L 134.30 550.41 L 135.10 548.95 L 136.87 547.22 L 138.89 546.00 L 143.34 544.11 L 145.49 542.99 L 147.43 541.43 L 148.49 540.15 L 149.40 538.43 L 150.14 536.15 L 150.62 532.50 L 150.55 528.85 L 149.78 521.95 L 149.61 518.81 L 149.92 516.31 L 150.49 514.87 L 151.50 513.71 L 153.02 512.79 L 154.84 512.25 L 156.75 512.01 L 158.77 512.07 L 161.79 512.65 L 164.74 513.75 L 167.48 515.28 L 169.80 517.11 L 171.68 519.25 L 172.86 521.43 L 174.00 523.47 L 175.60 525.05 L 177.49 526.33 L 179.45 527.39 L 181.38 528.38 L 182.89 529.30 L 183.71 530.03 L 184.19 530.81 L 184.37 531.67 L 184.11 533.14 L 183.33 534.91 L 181.09 538.43 L 178.97 541.52 L 178.33 542.81 L 178.29 543.50 L 178.70 544.03 L 179.58 544.72 L 181.89 546.54 L 183.10 547.87 L 184.32 549.80 L 185.26 552.09 L 185.97 555.34 L 186.38 557.11 L 186.91 558.38 L 187.53 559.26 L 188.73 560.35 L 190.00 561.14 L 191.25 561.90 L 192.35 562.85 L 192.91 563.61 L 193.33 564.71 L 193.59 566.26 L 193.51 568.88 L 192.69 573.25 L 191.73 577.64 L 191.32 580.42 L 191.24 582.80 L 191.43 584.27 L 191.86 585.51 L 192.41 586.55 L 193.67 589.01 L 194.18 590.69 L 194.61 593.41 L 195.59 600.75 L 195.95 604.29 L 195.93 607.49 L 195.62 609.52 L 194.95 611.36 L 193.94 613.03 L 192.58 614.41 L 190.62 615.67 L 187.89 616.76 L 184.05 617.74 L 180.66 618.29 L 177.67 618.47 L 173.23 618.32 L 169.22 617.83 L 161.34 616.76 L 155.27 616.49 L 151.65 616.29 L 147.85 615.91 L 144.13 615.24 L 140.83 614.22 L 138.83 613.24 L 137.24 612.04 L 136.00 610.61 L 135.19 608.95 L 134.87 606.89 L 135.10 604.29 Z" fill="#cbd7d1" fill-rule="nonzero" group-id="1,8,28,67" id="路径_1168-2" node-id="73" stroke="none" target-height="106.462585" target-width="62.065506" target-x="133.8814" target-y="512.0072"></path><path d="M 161.01 521.11 L 161.80 525.08 L 163.71 535.78 L 166.07 551.39 L 167.20 560.33 L 168.21 570.09 L 168.98 580.02 L 169.45 590.07 L 169.52 600.06 L 169.11 609.51 L 168.52 615.73 L 167.65 621.41 L 166.52 626.58 L 164.98 631.64 L 163.13 635.90 L 161.01 639.48" fill="none" group-id="1,8,28,68" id="路径_1169-2" node-id="74" stroke="#707070" stroke-linecap="butt" stroke-width="0.6" target-height="118.37201" target-width="8.50621" target-x="161.012" target-y="521.105"></path><path d="M 155.21 532.21 L 165.11 544.73 L 170.35 537.74" fill="none" group-id="1,8,28,69" id="路径_1170-2" node-id="75" stroke="#707070" stroke-linecap="butt" stroke-width="0.6" target-height="12.52301" target-width="15.141998" target-x="155.208" target-y="532.211"></path><path d="M 148.80 552.89 L 151.51 553.96 L 154.04 555.31 L 156.41 556.93 L 159.67 559.68 L 162.36 562.42 L 164.69 565.19 L 166.23 567.26 L 167.61 569.34 L 168.58 567.90 L 171.09 564.39 L 174.60 560.00 L 176.56 557.83 L 178.51 555.95" fill="none" group-id="1,8,28,70" id="路径_1171-2" node-id="76" stroke="#707070" stroke-linecap="butt" stroke-width="0.6" target-height="16.450989" target-width="29.708008" target-x="148.802" target-y="552.889"></path><path d="M 150.94 579.25 L 153.63 580.36 L 156.38 582.02 L 159.00 584.02 L 161.48 586.24 L 165.74 590.71 L 168.66 594.26 L 169.75 595.70 L 170.41 594.01 L 172.36 589.80 L 173.77 587.24 L 175.55 584.44 L 177.60 581.75 L 179.95 579.26 L 182.60 577.15 L 185.50 575.60" fill="none" group-id="1,8,28,71" id="路径_1172-2" node-id="77" stroke="#707070" stroke-linecap="butt" stroke-width="0.6" target-height="20.099976" target-width="34.559998" target-x="150.941" target-y="575.604"></path><path d="M 157.69 602.54 L 159.07 602.88 L 160.44 603.51 L 161.83 604.47 L 163.72 606.20 L 165.41 608.13 L 167.92 611.69 L 168.87 613.28 L 183.61 607.64" fill="none" group-id="1,8,28,72" id="路径_1173-2" node-id="78" stroke="#707070" stroke-linecap="butt" stroke-width="0.6" target-height="10.739014" target-width="25.919998" target-x="157.68599" target-y="602.545"></path><path d="M 802.79 729.50 L 802.79 570.50 L 617.79 570.50 L 617.79 729.50 L 605.79 729.50 L 605.79 570.50 L 539.79 570.50 L 539.79 559.50 L 881.79 559.50 L 881.79 570.50 L 814.79 570.50 L 814.79 729.50 Z" fill="#000519" fill-rule="nonzero" group-id="1,9" id="联合_168" node-id="79" stroke="none" target-height="170" target-width="342" target-x="539.795" target-y="559.504"></path><path d="M 666.26 519.39 L 665.57 516.54 L 665.37 514.20 L 665.64 510.27 L 665.79 508.69 L 665.70 507.61 L 665.24 506.80 L 664.15 506.25 L 663.32 506.28 L 662.64 506.67 L 662.07 507.50 L 661.49 509.11 L 661.07 511.15 L 660.56 514.92 L 660.23 516.30 L 659.93 516.57 L 659.40 516.18 L 658.15 514.70 L 655.15 510.59 L 651.85 505.95 L 649.14 502.50 L 648.14 501.79 L 647.31 501.71 L 646.52 502.14 L 645.53 503.47 L 644.73 505.75 L 644.36 508.32 L 644.45 511.17 L 644.87 513.49 L 645.71 516.70 L 646.80 520.05 L 648.17 523.57 L 649.77 526.97 L 651.48 529.87 L 652.79 531.63 L 654.04 532.87 L 655.24 533.69 L 660.20 536.29 L 664.02 538.43 L 665.55 539.32 L 667.90 529.23 L 668.04 528.40 L 668.06 527.38 L 667.83 525.38 L 667.33 523.03 L 666.26 519.39 Z" fill="#ffa271" fill-rule="nonzero" group-id="1,10,29,73" id="路径_1228" node-id="82" stroke="none" target-height="37.60971" target-width="23.692078" target-x="644.36316" target-y="501.70627"></path><path d="M 722.75 619.92 L 717.89 619.94 L 710.81 619.73 L 703.92 619.65 L 701.05 619.78 L 699.59 620.03 L 698.64 620.54 L 697.17 621.89 L 695.80 623.67 L 694.33 626.34 L 693.19 629.43 L 692.35 633.47 L 692.10 636.30 L 692.14 639.56 L 692.51 643.33 L 693.20 647.03 L 694.36 651.23 L 696.08 656.00 L 707.79 656.96 L 716.61 657.38 L 724.52 657.47 L 729.94 657.30 L 734.58 656.95 L 737.14 656.63 L 739.30 656.21 L 776.22 633.15 L 769.82 600.50 L 724.90 614.70 L 725.12 615.47 L 725.31 617.19 L 725.17 618.13 L 724.76 618.97 L 724.04 619.58 L 722.75 619.92 Z" fill="#172065" fill-rule="nonzero" group-id="1,10,29,74" id="路径_1230" node-id="83" stroke="none" target-height="56.971436" target-width="84.1225" target-x="692.0995" target-y="600.496"></path><path d="M 745.41 493.78 L 765.52 493.78 L 765.52 516.98 L 745.41 516.98 Z" fill="#ffae80" fill-rule="nonzero" group-id="1,10,29,75,122" id="矩形_1512" node-id="85" stroke="none" target-height="23.200012" target-width="20.106018" target-x="745.41296" target-y="493.781"></path><path d="M 743.61 506.91 L 743.10 509.01 L 743.02 511.11 L 743.37 513.24 L 767.29 512.77 L 768.46 509.25 L 766.89 507.90 L 765.08 506.74 L 762.19 505.44 L 760.07 504.82 L 757.51 504.42 L 754.41 504.31 L 751.36 504.59 L 747.79 505.42 L 743.61 506.91 Z" fill="#06083b" fill-rule="nonzero" group-id="1,10,29,75,123" id="路径_1225" node-id="86" stroke="none" target-height="8.930206" target-width="25.440796" target-x="743.0212" target-y="504.30978"></path><path d="M 730.26 499.37 L 729.77 499.38 L 729.32 498.90 L 728.84 497.51 L 728.48 495.05 L 728.30 491.28 L 728.37 487.20 L 728.69 482.46 L 729.26 477.63 L 730.08 472.82 L 731.18 468.16 L 732.51 464.15 L 733.63 461.63 L 734.82 459.69 L 736.05 458.23 L 738.24 456.34 L 740.75 454.65 L 743.60 453.15 L 746.59 451.99 L 749.72 451.20 L 753.00 450.79 L 756.30 450.85 L 759.59 451.45 L 762.93 452.61 L 765.25 453.82 L 767.53 455.43 L 769.78 457.49 L 772.02 460.05 L 773.97 463.07 L 775.49 466.26 L 776.58 469.65 L 777.58 474.89 L 777.94 480.08 L 777.80 485.19 L 777.35 489.66 L 776.68 493.79 L 776.08 496.66 L 775.37 499.37 L 772.28 499.25 L 764.49 498.97 L 754.19 498.69 L 743.58 498.56 L 734.87 498.74 L 731.59 499.04 L 730.26 499.37 Z" fill="#182162" fill-rule="nonzero" group-id="1,10,29,75,124" id="路径_1224" node-id="87" stroke="none" target-height="48.587402" target-width="49.635254" target-x="728.3039" target-y="450.79425"></path><path d="M 724.96 615.28 L 771.98 616.13 L 770.18 599.17 L 732.48 602.06 L 724.90 607.38 Z" fill="#ffffff" fill-rule="nonzero" group-id="1,10,29,75,125" id="路径_1229" node-id="88" stroke="none" target-height="16.955994" target-width="47.080017" target-x="724.898" target-y="599.17"></path><path d="M 669.54 528.06 L 658.99 537.67 L 665.09 542.13 L 673.29 532.51 Z" fill="#06083b" fill-rule="nonzero" group-id="1,10,29,75,126" id="路径_1227" node-id="89" stroke="none" target-height="14.069031" target-width="14.299988" target-x="658.99" target-y="528.059"></path><path d="M 792.64 520.32 L 790.71 517.91 L 788.40 515.77 L 785.70 513.90 L 782.79 512.35 L 779.73 511.08 L 776.52 510.09 L 771.65 509.14 L 767.08 508.83 L 759.20 508.78 L 749.94 508.80 L 740.80 509.13 L 736.61 509.50 L 733.32 510.00 L 731.35 510.64 L 729.28 511.74 L 727.08 513.39 L 724.00 516.31 L 720.71 520.03 L 714.26 528.34 L 707.76 536.74 L 703.23 542.35 L 698.93 548.13 L 694.86 554.09 L 673.29 531.58 L 662.51 540.72 L 687.60 575.19 L 688.43 576.14 L 689.35 577.01 L 690.73 578.00 L 692.32 578.78 L 694.23 579.24 L 695.56 579.27 L 697.02 578.98 L 698.67 578.34 L 700.18 577.41 L 701.87 575.94 L 703.77 573.78 L 710.83 565.12 L 717.66 557.28 L 722.83 551.59 L 724.87 549.40 L 724.87 608.25 L 764.97 609.42 L 783.96 582.22 L 783.96 549.40 L 792.64 565.57 L 809.06 561.59 L 808.20 559.07 L 805.95 552.61 L 802.79 543.85 L 799.19 534.46 L 795.65 526.06 L 793.95 522.57 L 792.64 520.32 Z" fill="#3f61ff" fill-rule="nonzero" group-id="1,10,29,75,127" id="路径_1226" node-id="90" stroke="none" target-height="100.64032" target-width="146.55096" target-x="662.508" target-y="508.78265"></path><path d="M 677.19 623.32 L 675.44 623.57 L 673.69 624.05 L 671.28 625.09 L 668.89 626.62 L 666.34 629.06 L 664.87 631.00 L 663.50 633.49 L 662.25 636.66 L 661.40 639.93 L 660.84 644.01 L 660.65 649.05 L 660.62 654.89 L 660.38 662.66 L 659.44 680.32 L 658.11 699.80 L 656.63 718.85 L 655.26 735.23 L 654.25 746.70 L 653.86 751.02 L 662.88 752.46 L 663.71 748.76 L 665.90 738.98 L 669.01 725.12 L 672.60 709.15 L 676.21 693.07 L 679.39 678.88 L 681.71 668.55 L 682.72 664.08 L 683.19 663.37 L 684.62 662.19 L 688.67 659.71 L 693.40 657.21 L 697.33 655.29 L 698.96 654.52 L 698.96 623.32 Z" fill="#ffa37f" fill-rule="nonzero" group-id="1,10,29,76" id="路径_1231" node-id="91" stroke="none" target-height="129.14001" target-width="45.10498" target-x="653.86" target-y="623.322"></path><path d="M 726.37 747.95 L 726.11 748.24 L 725.07 748.52 L 722.22 748.72 L 719.37 748.71 L 718.07 748.67 L 717.20 745.32 L 714.92 736.46 L 711.69 723.85 L 707.99 709.28 L 704.31 694.51 L 701.10 681.33 L 698.86 671.49 L 698.18 667.98 L 698.05 666.78 L 698.47 665.64 L 699.68 664.46 L 701.31 663.46 L 703.40 662.51 L 707.81 661.03 L 711.49 660.08 L 713.02 659.75 L 721.50 665.34 L 721.71 668.85 L 722.26 678.10 L 723.04 691.19 L 723.94 706.24 L 724.83 721.34 L 725.61 734.59 L 726.16 744.09 L 726.37 747.95 Z" fill="#ffa27a" fill-rule="nonzero" group-id="1,10,29,77" id="路径_1232" node-id="92" stroke="none" target-height="88.966125" target-width="28.317993" target-x="698.053" target-y="659.751"></path><path d="M 665.67 773.53 L 661.03 773.53 L 661.03 759.52 L 659.11 761.11 L 654.70 764.94 L 649.82 769.62 L 647.72 771.98 L 646.46 773.77 L 644.34 773.82 L 639.28 773.86 L 633.24 773.91 L 628.18 773.96 L 626.06 774.01 L 626.77 771.71 L 628.00 769.04 L 629.71 766.46 L 632.24 763.74 L 634.21 762.13 L 636.68 760.56 L 639.73 759.04 L 644.22 756.77 L 647.74 754.50 L 650.82 752.14 L 652.89 750.34 L 654.62 748.83 L 655.19 748.48 L 657.20 748.39 L 660.76 748.29 L 664.16 748.19 L 665.67 748.16 Z" fill="#2c353a" fill-rule="nonzero" group-id="1,10,29,78" id="路径_1233" node-id="93" stroke="none" target-height="25.853027" target-width="39.611023" target-x="626.057" target-y="748.156"></path><path d="M 729.20 773.53 L 724.56 773.53 L 724.56 759.52 L 722.64 761.11 L 718.23 764.94 L 713.34 769.62 L 711.24 771.98 L 709.99 773.77 L 707.86 773.82 L 702.81 773.86 L 696.77 773.91 L 691.71 773.96 L 689.59 774.01 L 690.30 771.71 L 691.53 769.04 L 693.24 766.46 L 695.77 763.74 L 697.74 762.13 L 700.21 760.56 L 703.26 759.04 L 707.75 756.77 L 711.27 754.50 L 714.35 752.14 L 716.42 750.34 L 718.14 748.83 L 718.72 748.48 L 720.73 748.39 L 724.29 748.29 L 727.68 748.19 L 729.20 748.16 Z" fill="#2c353a" fill-rule="nonzero" group-id="1,10,29,79" id="路径_1234" node-id="94" stroke="none" target-height="25.853027" target-width="39.611023" target-x="689.586" target-y="748.156"></path><path d="M 805.72 774.76 L 796.81 774.76 L 782.74 668.79 L 790.48 668.79 Z" fill="#8a95d3" fill-rule="nonzero" group-id="1,10,30,80" id="路径_1237" node-id="96" stroke="none" target-height="105.979004" target-width="22.978027" target-x="782.73804" target-y="668.78503"></path><path d="M 762.67 774.76 L 753.76 774.76 L 739.69 668.79 L 747.43 668.79 Z" fill="#8a95d3" fill-rule="nonzero" group-id="1,10,30,81" id="路径_1238" node-id="97" stroke="none" target-height="105.979004" target-width="22.978027" target-x="739.69" target-y="668.78503"></path><path d="M 708.60 774.76 L 717.51 774.76 L 731.58 668.79 L 723.84 668.79 Z" fill="#8a95d3" fill-rule="nonzero" group-id="1,10,30,82" id="路径_1239" node-id="98" stroke="none" target-height="105.979004" target-width="22.97699" target-x="708.601" target-y="668.78503"></path><path d="M 665.55 774.76 L 674.46 774.76 L 688.53 668.79 L 680.79 668.79 Z" fill="#8a95d3" fill-rule="nonzero" group-id="1,10,30,83" id="路径_1240" node-id="99" stroke="none" target-height="105.979004" target-width="22.97699" target-x="665.551" target-y="668.78503"></path><path d="M 810.36 554.02 L 794.37 553.01 L 783.19 552.64 L 778.98 552.58 L 777.53 552.73 L 776.04 553.09 L 773.90 553.94 L 771.74 555.23 L 769.24 557.37 L 767.74 559.08 L 766.21 561.31 L 764.66 564.17 L 763.42 567.15 L 762.29 570.88 L 761.30 575.49 L 758.65 588.72 L 755.09 603.88 L 751.25 619.02 L 747.73 632.23 L 745.16 641.57 L 744.17 645.11 L 743.13 646.70 L 741.85 648.21 L 739.66 650.16 L 737.97 651.33 L 735.85 652.44 L 733.21 653.48 L 730.48 654.19 L 727.19 654.61 L 723.24 654.67 L 713.84 654.42 L 702.58 654.35 L 691.04 654.40 L 680.83 654.51 L 673.54 654.62 L 670.75 654.67 L 669.52 655.74 L 668.48 656.95 L 667.42 658.75 L 666.93 660.09 L 666.71 661.63 L 666.80 663.42 L 667.25 665.14 L 668.28 667.13 L 670.03 669.46 L 675.43 669.43 L 687.05 669.46 L 703.05 669.52 L 721.60 669.61 L 740.89 669.72 L 759.07 669.82 L 774.32 669.91 L 784.81 669.98 L 788.72 670.00 L 790.10 670.01 L 791.53 669.84 L 793.62 669.29 L 795.78 668.37 L 798.34 666.73 L 799.93 665.37 L 801.59 663.56 L 803.33 661.21 L 804.80 658.70 L 806.25 655.54 L 807.65 651.60 L 809.16 646.24 L 810.83 639.42 L 814.03 624.42 L 816.99 608.83 L 819.44 594.91 L 821.11 584.92 L 821.72 581.08 L 822.11 579.18 L 822.70 574.39 L 822.82 571.40 L 822.67 568.09 L 822.15 564.81 L 821.16 561.68 L 820.19 559.75 L 818.93 558.04 L 817.34 556.53 L 815.51 555.37 L 813.22 554.52 L 810.36 554.02 Z" fill="#98a6e8" fill-rule="nonzero" group-id="1,10,30,84" id="路径_1235" node-id="100" stroke="none" target-height="117.428894" target-width="156.10931" target-x="666.71014" target-y="552.58203"></path><path d="M 810.36 554.02 L 797.92 553.14 L 790.43 552.76 L 783.76 552.58 L 782.30 552.73 L 780.82 553.09 L 778.68 553.94 L 776.51 555.23 L 774.02 557.37 L 772.52 559.08 L 770.99 561.31 L 769.45 564.17 L 768.21 567.15 L 767.07 570.88 L 766.08 575.49 L 763.44 588.90 L 759.88 604.50 L 756.03 620.22 L 752.51 634.00 L 749.94 643.78 L 748.95 647.50 L 747.84 649.10 L 746.49 650.60 L 744.20 652.55 L 742.46 653.72 L 740.28 654.83 L 737.59 655.87 L 734.82 656.59 L 731.50 657.00 L 727.55 657.06 L 717.83 656.81 L 705.77 656.74 L 693.20 656.79 L 681.95 656.90 L 673.85 657.01 L 670.75 657.06 L 669.52 657.76 L 668.47 658.61 L 667.41 659.95 L 666.93 660.98 L 666.71 662.24 L 666.79 663.80 L 667.23 665.29 L 668.24 667.14 L 670.03 669.46 L 675.43 669.43 L 687.04 669.46 L 703.04 669.52 L 721.60 669.61 L 740.88 669.72 L 759.06 669.82 L 774.32 669.92 L 784.81 669.98 L 788.71 670.00 L 790.09 670.01 L 791.52 669.84 L 793.61 669.30 L 795.78 668.37 L 798.33 666.73 L 799.93 665.37 L 801.59 663.56 L 803.33 661.21 L 804.80 658.70 L 806.25 655.54 L 807.65 651.61 L 809.16 646.24 L 810.82 639.43 L 814.03 624.42 L 816.99 608.83 L 819.44 594.92 L 821.11 584.92 L 821.72 581.08 L 822.11 579.18 L 822.70 574.39 L 822.82 571.40 L 822.67 568.09 L 822.15 564.81 L 821.16 561.68 L 820.19 559.75 L 818.93 558.04 L 817.34 556.53 L 815.51 555.37 L 813.22 554.52 L 810.36 554.02 Z" fill="#a3b1f2" fill-rule="nonzero" group-id="1,10,30,85" id="路径_1236" node-id="101" stroke="none" target-height="117.431885" target-width="156.11224" target-x="666.7072" target-y="552.58203"></path><path d="M 233.56 373.76 L 214.90 341.44 L 191.42 341.44 L 187.77 341.10 L 184.42 340.19 L 181.32 338.71 L 178.52 336.72 L 176.14 334.34 L 174.15 331.53 L 172.67 328.43 L 171.76 325.09 L 171.42 321.44 L 171.42 217.44 L 171.76 213.79 L 172.67 210.44 L 174.15 207.34 L 176.14 204.54 L 178.52 202.16 L 181.32 200.17 L 184.42 198.69 L 187.77 197.78 L 191.42 197.44 L 468.42 197.44 L 472.07 197.78 L 475.41 198.69 L 478.51 200.17 L 481.32 202.16 L 483.70 204.54 L 485.69 207.34 L 487.17 210.44 L 488.08 213.79 L 488.42 217.44 L 488.42 321.44 L 488.08 325.09 L 487.17 328.43 L 485.69 331.53 L 483.70 334.34 L 481.32 336.72 L 478.51 338.71 L 475.41 340.19 L 472.07 341.10 L 468.42 341.44 L 260.70 341.44 L 240.41 373.88 L 239.75 374.68 L 238.93 375.27 L 237.98 375.64 L 236.95 375.76 L 235.92 375.60 L 234.99 375.20 L 234.19 374.58 L 233.56 373.76 Z" fill="#bcd5fb" fill-rule="nonzero" group-id="1,11,31" id="联合_170" node-id="103" stroke="none" target-height="178.3195" target-width="317" target-x="171.419" target-y="197.438"></path><path d="M 327.42 218.44 L 471.42 218.44 L 471.42 228.44 L 327.42 228.44 Z" fill="#ffffff" fill-rule="nonzero" group-id="1,11,32,86" id="矩形_1472" node-id="105" stroke="none" target-height="10" target-width="144" target-x="327.419" target-y="218.438"></path><path d="M 327.42 240.44 L 471.42 240.44 L 471.42 250.44 L 327.42 250.44 Z" fill="#ffffff" fill-rule="nonzero" group-id="1,11,32,87" id="矩形_1473" node-id="106" stroke="none" target-height="10" target-width="144" target-x="327.419" target-y="240.438"></path><path d="M 395.42 262.44 L 471.42 262.44 L 471.42 272.44 L 395.42 272.44 Z" fill="#ffffff" fill-rule="nonzero" group-id="1,11,32,88" id="矩形_1474" node-id="107" stroke="none" target-height="10" target-width="76" target-x="395.419" target-y="262.438"></path><path d="M 462.42 304.44 L 464.83 304.76 L 466.96 305.67 L 468.78 307.07 L 470.19 308.90 L 471.09 311.03 L 471.42 313.44 L 471.09 315.85 L 470.19 317.98 L 468.78 319.80 L 466.96 321.21 L 464.83 322.11 L 462.42 322.44 L 364.42 322.44 L 362.01 322.11 L 359.88 321.21 L 358.06 319.80 L 356.65 317.98 L 355.75 315.85 L 355.42 313.44 L 355.75 311.03 L 356.65 308.90 L 358.06 307.07 L 359.88 305.67 L 362.01 304.76 L 364.42 304.44 Z" fill="#458cfb" fill-rule="nonzero" group-id="1,11,32,89" id="矩形_1475" node-id="108" stroke="none" target-height="18" target-width="116" target-x="355.419" target-y="304.438"></path><path d="M 245.42 322.44 L 240.77 322.22 L 236.28 321.63 L 231.94 320.66 L 227.72 319.33 L 223.61 317.63 L 219.71 315.63 L 216.02 313.31 L 212.51 310.68 L 209.24 307.76 L 206.24 304.60 L 203.50 301.18 L 201.03 297.49 L 198.88 293.62 L 197.08 289.55 L 195.61 285.27 L 194.47 280.75 L 193.76 276.15 L 193.45 271.64 L 193.53 267.19 L 194.00 262.78 L 194.84 258.42 L 196.03 254.21 L 197.56 250.12 L 199.44 246.16 L 201.65 242.37 L 204.15 238.80 L 206.96 235.44 L 210.08 232.28 L 213.45 229.41 L 217.08 226.83 L 220.98 224.53 L 225.18 222.52 L 230.26 220.70 L 235.31 219.42 L 240.35 218.67 L 245.40 218.44 L 250.48 218.71 L 255.42 219.44 L 260.23 220.63 L 264.95 222.29 L 269.49 224.40 L 273.77 226.90 L 277.81 229.83 L 281.63 233.18 L 285.08 236.88 L 288.17 240.93 L 290.89 245.37 L 293.26 250.23 L 295.09 255.31 L 296.38 260.36 L 297.13 265.40 L 297.37 270.45 L 297.12 275.53 L 296.39 280.46 L 295.21 285.28 L 293.55 290.00 L 291.46 294.54 L 288.95 298.83 L 286.04 302.87 L 282.69 306.70 L 279.00 310.16 L 274.95 313.25 L 270.51 315.98 L 265.66 318.35 L 260.77 320.14 L 255.75 321.42 L 250.62 322.19 L 245.42 322.44 Z M 245.42 237.44 L 240.89 237.75 L 236.62 238.62 L 232.57 240.03 L 228.74 241.96 L 225.26 244.31 L 222.08 247.10 L 219.29 250.28 L 216.94 253.76 L 215.01 257.59 L 213.60 261.64 L 212.73 265.91 L 212.42 270.44 L 212.73 274.97 L 213.60 279.24 L 215.01 283.28 L 216.94 287.11 L 219.29 290.60 L 222.08 293.77 L 225.26 296.57 L 228.74 298.92 L 232.57 300.84 L 236.62 302.26 L 240.89 303.12 L 245.42 303.44 L 249.95 303.12 L 254.22 302.26 L 258.26 300.84 L 262.09 298.92 L 265.58 296.57 L 268.75 293.77 L 271.55 290.60 L 273.90 287.11 L 275.83 283.28 L 277.24 279.24 L 278.10 274.97 L 278.42 270.44 L 278.10 265.91 L 277.23 261.64 L 275.82 257.60 L 273.89 253.77 L 271.54 250.29 L 268.74 247.11 L 265.57 244.32 L 262.09 241.97 L 258.26 240.04 L 254.21 238.63 L 249.95 237.76 L 245.42 237.44 Z" fill="#458cfb" fill-rule="nonzero" group-id="1,11,33,90" id="减去_40" node-id="110" stroke="none" target-height="103.99542" target-width="103.92314" target-x="193.44774" target-y="218.44257"></path><path d="M 245.42 322.44 L 245.42 322.44 L 240.77 322.22 L 236.28 321.63 L 231.94 320.66 L 227.72 319.33 L 223.61 317.63 L 219.72 315.62 L 216.02 313.31 L 212.52 310.68 L 209.24 307.76 L 206.24 304.60 L 203.51 301.18 L 201.03 297.49 L 198.89 293.61 L 197.08 289.55 L 195.61 285.26 L 194.48 280.75 L 193.76 276.15 L 193.45 271.64 L 193.53 267.19 L 194.00 262.78 L 194.84 258.42 L 196.03 254.21 L 197.56 250.12 L 199.45 246.16 L 201.65 242.37 L 204.15 238.80 L 206.96 235.44 L 210.08 232.28 L 213.45 229.41 L 217.08 226.83 L 220.98 224.53 L 225.18 222.52 L 230.07 220.74 L 235.09 219.46 L 240.22 218.69 L 245.42 218.44 L 245.42 237.44 L 240.89 237.75 L 236.62 238.62 L 232.57 240.03 L 228.74 241.96 L 225.26 244.31 L 222.08 247.10 L 219.29 250.28 L 216.94 253.76 L 215.01 257.59 L 213.60 261.64 L 212.73 265.91 L 212.42 270.44 L 212.73 274.97 L 213.60 279.24 L 215.01 283.28 L 216.94 287.11 L 219.29 290.60 L 222.08 293.77 L 225.26 296.57 L 228.74 298.92 L 232.57 300.84 L 236.62 302.26 L 240.89 303.12 L 245.42 303.44 L 245.42 322.44 Z" fill="#fbb245" fill-rule="nonzero" group-id="1,11,33,91" id="减去_42" node-id="111" stroke="none" target-height="103.999985" target-width="51.96733" target-x="193.45168" target-y="218.438"></path><path d="M 245.42 322.44 L 245.42 322.44 L 240.22 322.19 L 235.09 321.42 L 230.07 320.14 L 225.18 318.35 L 220.63 316.16 L 216.37 313.58 L 212.39 310.60 L 208.65 307.21 L 205.26 303.47 L 202.28 299.48 L 199.70 295.23 L 197.50 290.68 L 196.01 286.69 L 194.85 282.62 L 194.03 278.44 L 213.40 278.44 L 214.54 282.07 L 216.01 285.43 L 217.81 288.56 L 219.96 291.46 L 222.42 294.12 L 225.10 296.46 L 228.02 298.49 L 231.20 300.23 L 234.53 301.61 L 238.00 302.60 L 241.62 303.22 L 245.42 303.44 L 245.42 322.44 Z" fill="#c62bcb" fill-rule="nonzero" group-id="1,11,33,92" id="减去_45" node-id="112" stroke="none" target-height="44" target-width="51.388" target-x="194.031" target-y="278.438"></path><path d="M 320.96 695.11 L 310.04 695.11 L 310.04 679.32 L 320.64 681.39 Z" fill="#c77760" fill-rule="nonzero" group-id="1,12,34,93,128" id="路径_1163" node-id="116" stroke="none" target-height="15.786987" target-width="10.925995" target-x="310.03702" target-y="679.319"></path><path d="M 310.20 690.61 L 309.88 703.76 L 312.54 703.72 L 319.21 703.62 L 327.87 703.47 L 336.54 703.33 L 343.22 703.20 L 345.92 703.13 L 345.62 702.35 L 344.80 701.39 L 343.20 700.17 L 340.51 698.59 L 337.00 696.86 L 329.66 693.77 L 323.53 691.50 L 320.96 690.61 Z" fill="#272f31" fill-rule="nonzero" group-id="1,12,34,93,129" id="路径_1164" node-id="117" stroke="none" target-height="13.156006" target-width="36.04001" target-x="309.88" target-y="690.608"></path><path d="M 247.29 695.11 L 258.21 695.11 L 258.21 679.32 L 247.61 681.39 Z" fill="#c77760" fill-rule="nonzero" group-id="1,12,34,94,130" id="路径_1163-2" node-id="119" stroke="none" target-height="15.786987" target-width="10.924011" target-x="247.28699" target-y="679.319"></path><path d="M 258.05 690.61 L 258.37 703.76 L 255.71 703.72 L 249.04 703.62 L 240.38 703.48 L 231.71 703.33 L 225.02 703.20 L 222.33 703.13 L 222.63 702.35 L 223.45 701.39 L 225.05 700.17 L 227.74 698.59 L 231.25 696.86 L 238.59 693.77 L 244.72 691.50 L 247.28 690.61 Z" fill="#272f31" fill-rule="nonzero" group-id="1,12,34,94,131" id="路径_1164-2" node-id="120" stroke="none" target-height="13.156006" target-width="36.043" target-x="222.327" target-y="690.608"></path><path d="M 318.92 596.08 L 319.44 602.01 L 320.02 612.96 L 320.62 627.15 L 321.20 642.78 L 321.71 658.05 L 322.13 671.18 L 322.41 680.38 L 322.51 683.84 L 320.86 684.07 L 316.96 684.44 L 312.43 684.52 L 310.32 684.28 L 308.85 683.84 L 308.33 683.06 L 307.50 680.04 L 306.05 670.97 L 304.58 658.32 L 303.13 643.77 L 301.78 629.02 L 300.59 615.76 L 299.63 605.68 L 298.95 600.46 L 297.48 594.61 L 294.84 584.54 L 291.61 572.58 L 288.37 561.08 L 285.73 552.37 L 284.63 549.39 L 284.26 548.80 L 283.96 549.13 L 283.02 551.48 L 280.78 558.74 L 277.96 568.79 L 274.97 579.84 L 272.26 590.11 L 270.24 597.81 L 269.35 601.16 L 268.84 605.25 L 267.78 615.19 L 266.37 629.00 L 264.79 644.72 L 263.23 660.38 L 261.88 674.00 L 260.93 683.62 L 260.57 687.26 L 246.23 687.26 L 246.23 683.02 L 246.26 671.86 L 246.35 656.16 L 246.52 638.30 L 246.81 620.65 L 247.23 605.59 L 247.82 595.49 L 248.82 585.57 L 250.31 570.95 L 252.02 553.84 L 253.72 536.46 L 255.15 521.02 L 256.08 509.75 L 256.28 505.85 L 256.25 504.84 L 256.56 504.56 L 258.79 504.40 L 265.82 504.82 L 275.57 505.82 L 286.24 507.11 L 296.07 508.39 L 303.27 509.37 L 306.06 509.76 L 306.56 513.16 L 307.89 522.19 L 309.79 535.10 L 312.01 550.11 L 314.29 565.48 L 316.37 579.43 L 318.00 590.22 L 318.92 596.08 Z" fill="#1b245d" fill-rule="nonzero" group-id="1,12,34,95" id="路径_1165" node-id="121" stroke="none" target-height="182.86407" target-width="76.28801" target-x="246.226" target-y="504.39893"></path><path d="M 288.38 390.36 L 288.59 392.57 L 288.60 396.53 L 288.37 398.80 L 287.90 401.09 L 287.12 403.25 L 285.99 405.06 L 285.01 406.05 L 283.81 406.78 L 282.35 407.27 L 282.24 411.57 L 282.13 417.17 L 282.04 422.02 L 282.00 424.09 L 267.02 423.99 L 267.02 407.28 L 264.70 404.12 L 262.70 400.78 L 261.00 397.25 L 260.11 394.53 L 259.72 392.45 L 259.62 390.54 L 259.71 389.34 L 259.94 388.24 L 260.32 387.60 L 260.86 387.18 L 261.92 386.92 L 263.21 387.08 L 265.43 388.04 L 265.71 386.24 L 266.39 384.99 L 267.40 384.04 L 268.58 383.41 L 269.85 383.01 L 270.97 382.81 L 272.51 382.67 L 274.35 381.73 L 277.90 379.95 L 280.06 379.17 L 282.36 378.68 L 283.35 378.82 L 284.58 379.39 L 286.69 380.65 L 287.77 381.53 L 288.41 382.71 L 288.71 384.09 L 288.76 385.60 L 288.50 388.44 L 288.38 390.36 Z" fill="#c37163" fill-rule="nonzero" group-id="1,12,35,96" id="路径_1152" node-id="123" stroke="none" target-height="45.414" target-width="29.141235" target-x="259.62228" target-y="378.678"></path><path d="M 291.01 384.23 L 291.38 382.70 L 291.53 381.45 L 291.53 379.88 L 291.29 378.28 L 290.67 376.64 L 289.66 375.15 L 288.02 373.81 L 286.32 372.59 L 285.29 371.58 L 283.96 369.66 L 283.43 368.87 L 282.80 368.25 L 281.99 367.80 L 280.61 367.49 L 278.69 367.50 L 277.35 367.88 L 275.20 369.13 L 274.23 369.64 L 273.15 369.85 L 270.68 369.46 L 267.98 368.92 L 266.60 368.90 L 265.17 369.21 L 263.68 369.87 L 261.88 370.95 L 260.18 372.28 L 258.72 373.79 L 257.66 375.49 L 257.25 377.16 L 256.57 380.90 L 256.17 383.45 L 256.04 386.66 L 256.23 388.85 L 256.78 391.28 L 257.74 393.98 L 259.04 396.53 L 261.00 399.32 L 263.73 402.41 L 263.11 401.55 L 262.61 400.20 L 262.07 397.35 L 261.93 395.54 L 261.84 394.09 L 261.84 391.47 L 262.02 390.09 L 262.36 389.00 L 262.96 388.24 L 263.83 388.03 L 264.87 388.41 L 266.65 389.87 L 266.93 388.11 L 267.43 386.72 L 268.14 385.62 L 269.54 384.27 L 271.16 383.34 L 272.91 382.70 L 274.52 382.31 L 278.28 381.11 L 280.43 380.43 L 282.47 380.06 L 283.79 380.08 L 284.88 380.44 L 285.82 381.14 L 286.86 382.77 L 287.59 384.78 L 288.04 386.87 L 288.26 388.58 L 288.36 390.35 L 288.98 388.94 L 290.19 386.18 L 291.01 384.23 Z" fill="#1c2463" fill-rule="nonzero" group-id="1,12,35,97" id="路径_1153" node-id="124" stroke="none" target-height="34.919983" target-width="35.490997" target-x="256.04388" target-y="367.489"></path><path d="M 286.88 415.67 L 285.84 418.11 L 284.35 420.18 L 282.44 421.88 L 280.22 423.12 L 277.77 423.85 L 275.13 424.03 L 272.45 423.80 L 269.99 423.09 L 267.70 421.89 L 265.68 420.27 L 264.04 418.30 L 262.75 415.94 L 266.80 415.67 L 267.88 416.96 L 269.12 417.99 L 270.55 418.76 L 272.09 419.25 L 273.69 419.45 L 275.37 419.33 L 278.10 418.73 L 279.83 418.02 L 281.21 417.13 L 281.91 416.44 L 282.43 415.67 Z" fill="#ffffff" fill-rule="nonzero" group-id="1,12,36,98" id="路径_1154" node-id="126" stroke="none" target-height="8.363007" target-width="24.12201" target-x="262.755" target-y="415.67"></path><path d="M 309.96 509.26 L 305.72 511.76 L 301.31 513.78 L 296.70 515.34 L 291.96 516.42 L 287.14 517.00 L 282.22 517.09 L 276.19 516.56 L 271.14 515.60 L 266.48 514.25 L 262.89 512.87 L 259.72 511.38 L 257.73 510.26 L 255.95 509.09 L 255.53 505.34 L 309.80 506.18 Z" fill="#ffffff" fill-rule="nonzero" group-id="1,12,36,99" id="路径_1156" node-id="127" stroke="none" target-height="11.744995" target-width="54.428986" target-x="255.53" target-y="505.341"></path><path d="M 298.75 415.67 L 298.44 417.57 L 298.07 422.41 L 298.13 425.45 L 298.51 428.88 L 299.30 432.31 L 300.63 435.70 L 301.83 437.81 L 303.37 439.75 L 305.27 441.55 L 305.89 443.71 L 306.58 447.75 L 307.63 458.08 L 308.46 470.71 L 309.08 483.75 L 309.51 495.37 L 309.75 503.71 L 309.83 506.90 L 306.84 508.22 L 303.59 509.39 L 298.68 510.80 L 293.25 511.88 L 286.59 512.58 L 282.02 512.65 L 277.10 512.30 L 271.79 511.50 L 266.61 510.20 L 261.19 508.22 L 255.52 505.50 L 255.08 502.43 L 254.16 495.91 L 253.09 488.32 L 252.21 482.02 L 251.84 479.40 L 244.48 449.27 L 245.51 448.56 L 246.45 447.63 L 247.69 445.91 L 248.73 443.77 L 249.66 440.55 L 250.03 438.23 L 250.18 435.32 L 250.07 431.70 L 249.68 428.13 L 248.87 423.80 L 247.56 418.60 L 248.01 418.10 L 249.42 417.52 L 253.42 416.70 L 258.09 416.12 L 261.96 415.78 L 263.58 415.67 L 263.88 416.88 L 264.35 418.06 L 265.23 419.59 L 266.46 421.02 L 268.29 422.39 L 269.71 423.07 L 271.50 423.57 L 273.74 423.87 L 276.00 423.78 L 277.97 423.41 L 279.69 422.77 L 282.03 421.42 L 283.85 419.90 L 285.36 418.24 L 286.31 416.93 L 287.11 415.57 Z" fill="#192160" fill-rule="nonzero" group-id="1,12,36,100" id="路径_1155" node-id="128" stroke="none" target-height="97.084656" target-width="65.343994" target-x="244.482" target-y="415.56702"></path><path d="M 286.27 456.51 L 288.28 452.53 L 289.54 449.43 L 290.21 447.04 L 290.39 445.23 L 290.15 443.81 L 289.53 442.67 L 288.53 441.75 L 287.67 441.41 L 286.78 441.40 L 285.81 441.75 L 284.39 442.65 L 282.91 443.96 L 280.24 446.71 L 279.02 447.83 L 278.20 448.31 L 277.55 448.27 L 277.18 447.82 L 276.99 447.10 L 276.92 446.12 L 276.88 444.21 L 276.75 443.44 L 276.50 443.12 L 275.76 443.08 L 274.83 443.79 L 274.05 445.09 L 273.20 447.55 L 272.13 451.34 L 271.05 454.83 L 270.32 457.08 L 270.31 457.66 L 270.59 458.66 L 271.60 460.83 L 272.69 462.76 L 273.20 463.59 L 274.66 463.58 L 276.14 463.42 L 278.18 462.97 L 280.26 462.20 L 282.47 460.90 L 283.82 459.79 L 285.08 458.35 L 286.27 456.51 Z" fill="#c37163" fill-rule="nonzero" group-id="1,12,37,101" id="路径_1159" node-id="130" stroke="none" target-height="22.19043" target-width="20.082825" target-x="270.31015" target-y="441.40356"></path><path d="M 274.45 464.22 L 271.46 466.11 L 270.16 466.90 L 269.87 467.05 L 264.97 457.57 L 270.25 455.12 L 271.12 455.75 L 272.92 457.56 L 273.77 458.85 L 274.43 460.43 L 274.70 462.17 L 274.45 464.22 Z" fill="#ffffff" fill-rule="nonzero" group-id="1,12,37,102" id="路径_1158" node-id="131" stroke="none" target-height="11.936005" target-width="9.733429" target-x="264.97" target-y="455.117"></path><path d="M 244.41 449.24 L 243.67 450.62 L 241.79 453.90 L 239.58 458.03 L 237.82 461.96 L 237.33 463.64 L 237.31 464.62 L 237.62 465.18 L 238.23 465.60 L 239.28 465.88 L 241.06 465.96 L 243.41 465.71 L 245.84 465.20 L 248.37 464.44 L 250.80 463.49 L 252.86 462.44 L 257.71 459.11 L 260.06 457.41 L 262.34 455.97 L 264.69 454.89 L 267.06 454.36 L 268.08 455.83 L 269.04 457.81 L 269.81 459.94 L 270.42 462.12 L 271.10 465.94 L 271.14 467.41 L 270.99 467.94 L 269.23 469.18 L 266.08 470.94 L 258.28 474.64 L 249.61 478.33 L 242.09 481.30 L 237.72 482.87 L 234.59 483.86 L 232.52 484.43 L 230.22 484.89 L 227.92 485.07 L 225.83 484.84 L 224.55 484.40 L 223.49 483.67 L 222.60 482.63 L 222.03 481.38 L 221.72 479.61 L 221.76 477.16 L 222.22 474.21 L 223.21 469.85 L 224.49 465.14 L 226.20 459.60 L 228.12 453.91 L 230.31 447.96 L 232.66 442.07 L 235.10 436.49 L 237.69 431.16 L 240.15 426.71 L 242.78 422.77 L 245.04 420.19 L 246.71 418.91 L 248.10 418.40 L 249.32 418.46 L 250.62 419.15 L 251.63 420.24 L 252.37 421.82 L 252.92 424.58 L 252.97 428.08 L 252.57 431.74 L 251.80 435.59 L 250.75 439.36 L 249.54 442.71 L 248.13 445.76 L 246.85 447.80 L 245.84 448.89 L 245.07 449.28 L 244.41 449.24 Z" fill="#3b62fb" fill-rule="nonzero" group-id="1,12,37,103" id="路径_1157" node-id="132" stroke="none" target-height="66.67029" target-width="49.417923" target-x="221.72273" target-y="418.39532"></path><path d="M 313.74 506.21 L 312.81 506.77 L 311.36 507.40 L 308.05 508.42 L 304.91 508.96 L 303.65 508.93 L 303.04 508.69 L 302.85 508.18 L 303.07 507.19 L 304.36 504.75 L 306.17 502.19 L 307.76 500.29 L 308.56 499.18 L 309.47 497.37 L 310.92 493.62 L 311.53 491.41 L 311.69 491.35 L 312.46 491.65 L 314.51 492.79 L 316.55 494.05 L 317.48 494.65 L 317.18 496.24 L 316.38 499.84 L 315.19 503.74 L 314.43 505.37 L 313.74 506.21 Z" fill="#c37163" fill-rule="nonzero" group-id="1,12,38,104" id="路径_1162" node-id="134" stroke="none" target-height="17.612762" target-width="14.627899" target-x="302.8511" target-y="491.3477"></path><path d="M 319.58 498.13 L 315.89 496.19 L 312.53 493.80 L 309.48 490.95 L 311.79 488.42 L 313.78 485.62 L 321.36 492.23 Z" fill="#ffffff" fill-rule="nonzero" group-id="1,12,38,105" id="路径_1161" node-id="135" stroke="none" target-height="12.51001" target-width="11.877014" target-x="309.48" target-y="485.616"></path><path d="M 305.64 442.75 L 310.68 446.04 L 314.50 449.03 L 317.78 451.99 L 319.89 454.11 L 321.61 455.87 L 322.06 456.20 L 322.06 456.46 L 321.50 458.30 L 319.60 463.58 L 317.02 470.50 L 314.40 477.50 L 312.38 483.06 L 311.62 485.63 L 311.79 486.32 L 312.51 487.72 L 313.65 489.15 L 315.80 490.92 L 317.48 491.92 L 319.78 492.93 L 322.86 493.92 L 323.99 492.37 L 325.63 489.32 L 328.97 481.68 L 332.21 473.34 L 334.65 466.62 L 335.62 463.86 L 336.10 462.60 L 336.47 461.28 L 336.76 459.38 L 336.79 457.34 L 336.39 455.01 L 335.86 453.49 L 335.01 451.93 L 333.78 450.30 L 329.74 445.76 L 323.48 438.96 L 315.84 431.24 L 309.98 425.62 L 304.63 420.55 L 300.58 416.94 L 299.10 415.83 L 298.66 415.67 L 298.25 416.20 L 297.73 418.12 L 297.44 420.46 L 297.34 423.66 L 297.53 427.03 L 298.10 430.68 L 299.12 434.26 L 300.66 437.58 L 302.02 439.59 L 303.67 441.30 L 305.64 442.75 Z" fill="#3b62fb" fill-rule="nonzero" group-id="1,12,38,106" id="路径_1160" node-id="136" stroke="none" target-height="78.24802" target-width="39.44919" target-x="297.33624" target-y="415.66998"></path><path d="M 497.00 679.31 L 497.00 714.55 L 496.71 714.96 L 496.26 715.31 L 495.19 715.84 L 493.81 716.27 L 491.43 716.73 L 488.63 717.00 L 484.43 717.13 L 478.91 716.91 L 475.58 716.46 L 472.89 715.77 L 471.66 715.22 L 470.77 714.55 L 470.77 679.31 Z" fill="url(#linear-gradient)" fill-rule="nonzero" group-id="1,13,39" id="路径_1167-2" node-id="138" stroke="none" target-height="37.81903" target-width="26.233002" target-x="470.767" target-y="679.31"></path><path d="M 470.64 679.44 L 471.00 678.83 L 472.45 678.12 L 474.37 677.62 L 477.19 677.18 L 480.26 676.92 L 483.87 676.83 L 487.48 676.92 L 490.55 677.18 L 493.38 677.62 L 495.30 678.12 L 496.75 678.83 L 497.11 679.44 L 496.75 680.04 L 495.30 680.76 L 493.38 681.26 L 490.55 681.69 L 487.48 681.95 L 483.87 682.05 L 480.26 681.95 L 477.19 681.69 L 474.37 681.26 L 472.45 680.76 L 471.00 680.04 L 470.64 679.44 Z" fill="#b7bbc2" fill-rule="nonzero" group-id="1,13,40" id="椭圆_359-2" node-id="139" stroke="none" target-height="5.223999" target-width="26.468994" target-x="470.639" target-y="676.826"></path><path d="M 472.03 680.48 L 472.31 680.14 L 473.62 679.69 L 477.81 679.13 L 483.70 678.92 L 489.59 679.13 L 493.77 679.69 L 495.08 680.14 L 495.37 680.48 L 495.08 680.83 L 493.77 681.27 L 489.59 681.84 L 483.70 682.05 L 477.81 681.84 L 473.62 681.27 L 472.31 680.83 L 472.03 680.48 Z" fill="#769be5" fill-rule="nonzero" group-id="1,13,41" id="椭圆_360-2" node-id="140" stroke="none" target-height="3.1339722" target-width="23.334015" target-x="472.032" target-y="678.91595"></path><path d="M 488.92 671.07 L 488.46 669.25 L 488.11 668.32 L 487.33 667.26 L 486.44 666.32 L 486.01 665.42 L 485.65 663.92 L 485.47 662.32 L 485.51 660.86 L 485.86 659.66 L 486.44 659.19 L 487.22 658.84 L 488.07 658.07 L 488.75 657.08 L 489.20 655.99 L 489.29 654.88 L 488.92 653.94 L 488.17 653.27 L 487.29 652.83 L 485.49 651.95 L 484.79 651.24 L 484.26 649.98 L 484.11 648.47 L 484.21 646.98 L 484.41 644.36 L 484.14 643.39 L 483.37 642.75 L 482.22 642.51 L 480.96 642.63 L 479.74 643.05 L 478.65 643.70 L 477.75 644.54 L 477.23 645.43 L 476.72 646.23 L 476.00 646.82 L 474.44 647.66 L 473.87 648.10 L 473.67 648.59 L 473.81 649.21 L 474.20 649.96 L 475.15 651.35 L 475.50 651.96 L 475.55 652.26 L 474.93 652.79 L 473.92 653.81 L 473.49 654.62 L 473.17 655.92 L 472.89 656.84 L 472.51 657.32 L 471.53 657.95 L 471.13 658.32 L 470.86 658.96 L 470.81 659.81 L 471.09 661.47 L 471.54 664.06 L 471.49 664.81 L 471.35 665.25 L 470.88 666.12 L 470.50 667.71 L 470.11 670.71 L 470.09 672.10 L 470.39 673.26 L 471.10 674.19 L 472.58 674.94 L 475.12 675.44 L 477.09 675.42 L 480.80 674.94 L 483.23 674.82 L 486.11 674.47 L 487.41 674.03 L 488.36 673.38 L 488.90 672.45 L 488.92 671.07 Z" fill="#adbbb4" fill-rule="nonzero" group-id="1,13,42,107" id="路径_1168-3" node-id="142" stroke="none" target-height="32.924255" target-width="19.192322" target-x="470.0939" target-y="642.5114"></path><path d="M 480.90 645.33 L 480.33 648.33 L 479.19 655.80 L 478.67 660.43 L 478.33 665.43 L 478.28 670.42 L 478.62 674.92 L 479.15 677.83 L 479.92 680.14 L 480.90 681.96" fill="none" group-id="1,13,42,108" id="路径_1169-3" node-id="143" stroke="#ababab" stroke-linecap="butt" stroke-width="0.6" target-height="36.63501" target-width="2.6166382" target-x="478.2794" target-y="645.326"></path><path d="M 482.69 648.76 L 479.63 652.64 L 478.00 650.48" fill="none" group-id="1,13,42,109" id="路径_1170-3" node-id="144" stroke="#ababab" stroke-linecap="butt" stroke-width="0.6" target-height="3.8770142" target-width="4.6879883" target-x="478.005" target-y="648.763"></path><path d="M 484.68 655.16 L 483.05 655.92 L 481.64 656.96 L 480.43 658.16 L 479.60 659.17 L 478.85 660.25 L 477.28 658.09 L 475.48 656.11" fill="none" group-id="1,13,42,110" id="路径_1171-3" node-id="145" stroke="#ababab" stroke-linecap="butt" stroke-width="0.6" target-height="5.09198" target-width="9.194" target-x="475.481" target-y="655.161"></path><path d="M 484.02 663.32 L 482.64 663.98 L 481.26 665.02 L 479.08 667.28 L 478.20 668.41 L 477.63 667.08 L 476.97 665.83 L 475.98 664.37 L 474.77 663.08 L 473.32 662.19" fill="none" group-id="1,13,42,111" id="路径_1172-3" node-id="146" stroke="#ababab" stroke-linecap="butt" stroke-width="0.6" target-height="6.2199707" target-width="10.700012" target-x="473.318" target-y="662.193"></path><path d="M 481.93 670.53 L 481.08 670.83 L 480.25 671.47 L 478.97 673.03 L 478.46 673.85 L 473.90 672.11" fill="none" group-id="1,13,42,112" id="路径_1173-3" node-id="147" stroke="#ababab" stroke-linecap="butt" stroke-width="0.6" target-height="3.3239746" target-width="8.022003" target-x="473.904" target-y="670.529"></path><path d="M 476.35 669.01 L 476.90 666.84 L 477.31 665.75 L 477.80 664.94 L 478.24 664.48 L 479.30 663.36 L 479.80 662.29 L 480.24 660.51 L 480.45 658.61 L 480.40 656.87 L 480.16 655.79 L 479.78 655.18 L 479.30 654.89 L 478.37 654.47 L 477.36 653.56 L 476.54 652.38 L 476.02 651.08 L 475.91 649.76 L 476.35 648.65 L 477.24 647.84 L 478.29 647.32 L 480.43 646.28 L 481.26 645.43 L 481.89 643.94 L 482.08 642.14 L 481.96 640.38 L 481.70 637.26 L 481.86 636.43 L 482.26 635.81 L 482.95 635.34 L 484.31 635.06 L 485.81 635.20 L 487.26 635.70 L 488.56 636.47 L 489.62 637.47 L 490.25 638.52 L 490.85 639.48 L 491.71 640.18 L 493.57 641.18 L 494.25 641.70 L 494.48 642.29 L 494.32 643.02 L 493.85 643.92 L 492.72 645.57 L 492.30 646.29 L 492.25 646.64 L 492.98 647.28 L 493.54 647.73 L 494.18 648.49 L 494.69 649.45 L 495.07 651.00 L 495.40 652.09 L 495.85 652.66 L 497.01 653.41 L 497.49 653.85 L 497.82 654.61 L 497.87 655.63 L 497.54 657.59 L 497.01 660.67 L 497.06 661.57 L 497.23 662.10 L 497.79 663.12 L 498.04 663.79 L 498.25 665.01 L 498.71 668.57 L 498.73 670.23 L 498.38 671.61 L 497.89 672.37 L 497.06 673.04 L 495.78 673.60 L 493.72 674.08 L 492.01 674.23 L 488.91 674.00 L 486.01 673.60 L 483.11 673.47 L 479.69 673.05 L 478.14 672.53 L 477.02 671.75 L 476.52 671.07 L 476.29 670.18 L 476.35 669.01 Z" fill="#cbd7d1" fill-rule="nonzero" group-id="1,13,43,113" id="路径_1168-4" node-id="149" stroke="none" target-height="39.174683" target-width="22.819153" target-x="475.9123" target-y="635.05664"></path><path d="M 485.89 638.40 L 486.38 640.94 L 487.46 647.47 L 488.54 656.43 L 488.89 661.32 L 489.03 666.22 L 488.86 671.03 L 488.34 675.26 L 487.71 677.97 L 486.89 680.18 L 485.89 681.96" fill="none" group-id="1,13,43,114" id="路径_1169-4" node-id="150" stroke="#707070" stroke-linecap="butt" stroke-width="0.6" target-height="43.557007" target-width="3.1390991" target-x="485.88702" target-y="638.404"></path><path d="M 483.75 642.49 L 487.40 647.10 L 489.32 644.53" fill="none" group-id="1,13,43,115" id="路径_1170-4" node-id="151" stroke="#707070" stroke-linecap="butt" stroke-width="0.6" target-height="4.609009" target-width="5.571991" target-x="483.751" target-y="642.49"></path><path d="M 481.39 650.10 L 483.33 651.00 L 485.00 652.24 L 486.44 653.67 L 487.43 654.87 L 488.31 656.15 L 490.19 653.58 L 492.33 651.22" fill="none" group-id="1,13,43,116" id="路径_1171-4" node-id="152" stroke="#707070" stroke-linecap="butt" stroke-width="0.6" target-height="6.054016" target-width="10.932007" target-x="481.394" target-y="650.099"></path><path d="M 482.18 659.80 L 483.82 660.58 L 485.46 661.82 L 488.05 664.51 L 489.10 665.86 L 489.77 664.27 L 490.56 662.78 L 491.73 661.04 L 493.18 659.52 L 494.90 658.46" fill="none" group-id="1,13,43,117" id="路径_1172-4" node-id="153" stroke="#707070" stroke-linecap="butt" stroke-width="0.6" target-height="7.4000244" target-width="12.716003" target-x="482.181" target-y="658.457"></path><path d="M 484.66 668.37 L 485.67 668.72 L 486.66 669.49 L 488.17 671.34 L 488.78 672.32 L 494.20 670.25" fill="none" group-id="1,13,43,118" id="路径_1173-4" node-id="154" stroke="#707070" stroke-linecap="butt" stroke-width="0.6" target-height="3.9509888" target-width="9.537994" target-x="484.66202" target-y="668.37"></path><path d="M 502.00 375.76 L 503.83 375.93 L 505.50 376.39 L 507.05 377.13 L 508.45 378.12 L 509.64 379.31 L 510.63 380.71 L 511.37 382.26 L 511.83 383.93 L 512.00 385.76 L 512.00 476.90 L 511.83 478.73 L 511.37 480.40 L 510.63 481.95 L 509.64 483.35 L 508.45 484.54 L 507.05 485.54 L 505.50 486.28 L 503.83 486.73 L 502.00 486.90 L 366.11 486.90 L 364.29 486.73 L 362.62 486.28 L 361.07 485.54 L 359.66 484.54 L 358.47 483.35 L 357.48 481.95 L 356.74 480.40 L 356.28 478.73 L 356.11 476.90 L 356.11 385.76 L 356.28 383.93 L 356.74 382.26 L 357.48 380.71 L 358.47 379.31 L 359.66 378.12 L 361.07 377.13 L 362.62 376.39 L 364.29 375.93 L 366.11 375.76 Z" fill="#007dfe" fill-rule="nonzero" group-id="1,14,44" id="矩形_1555" node-id="156" stroke="none" target-height="111.142" target-width="155.887" target-x="356.113" target-y="375.76"></path><path d="M 364.21 385.33 L 504.65 385.33 L 504.65 478.28 L 364.21 478.28 Z" fill="none" group-id="1,14,45,119" id="矩形_1519" node-id="158" stroke="none" target-height="92.951996" target-width="140.435" target-x="364.212" target-y="385.332"></path><path d="M 434.25 455.68 L 476.92 415.11 L 504.65 478.28 L 364.21 478.28 L 396.71 440.56 Z" fill="#bed7ff" fill-rule="nonzero" group-id="1,14,45,120" id="路径_1242" node-id="159" stroke="none" target-height="63.178986" target-width="140.435" target-x="364.212" target-y="415.106"></path><path d="M 416.76 422.64 L 416.93 420.56 L 417.39 418.67 L 418.13 416.92 L 419.13 415.31 L 420.32 413.96 L 421.70 412.85 L 423.26 412.01 L 424.92 411.49 L 426.74 411.30 L 428.55 411.49 L 430.21 412.01 L 431.77 412.85 L 433.15 413.96 L 434.34 415.31 L 435.34 416.92 L 436.08 418.67 L 436.54 420.56 L 436.71 422.64 L 436.54 424.72 L 436.08 426.62 L 435.34 428.37 L 434.34 429.97 L 433.15 431.32 L 431.77 432.43 L 430.21 433.28 L 428.55 433.79 L 426.74 433.98 L 424.92 433.79 L 423.26 433.28 L 421.70 432.43 L 420.32 431.32 L 419.13 429.97 L 418.13 428.36 L 417.39 426.62 L 416.93 424.72 L 416.76 422.64 Z" fill="#bed7ff" fill-rule="nonzero" group-id="1,14,45,121" id="椭圆_380" node-id="160" stroke="none" target-height="22.679016" target-width="19.941986" target-x="416.764" target-y="411.302"></path></g></g></svg>