<?xml version="1.0" standalone="no"?><!DOCTYPE svg PUBLIC "-//W3C//DTD SVG 1.1//EN" "http://www.w3.org/Graphics/SVG/1.1/DTD/svg11.dtd"><svg class="icon" width="200px" height="200.00px" viewBox="0 0 1024 1024" version="1.1" xmlns="http://www.w3.org/2000/svg"><path d="M377.376 569.376a32 32 0 0 1 45.248 45.248l-272 272a32 32 0 1 1-45.248-45.248l272-272z m-96-416a32 32 0 0 1 45.248 0l96 96a32 32 0 1 1-45.248 45.248l-96-96a32 32 0 0 1 0-45.248z m512 0a32 32 0 0 1 45.248 45.248l-96 96a32 32 0 0 1-45.248-45.248l96-96z m-96 416a32 32 0 0 1 45.248 0l96 96a32 32 0 0 1-45.248 45.248l-96-96a32 32 0 0 1 0-45.248zM336 400a32 32 0 0 1 0 64h-128a32 32 0 0 1 0-64h128z m576 0a32 32 0 0 1 0 64h-128a32 32 0 0 1 0-64h128z m-352 224a32 32 0 0 1 32 32v128a32 32 0 0 1-64 0v-128a32 32 0 0 1 32-32z m0-576a32 32 0 0 1 32 32v128a32 32 0 0 1-64 0v-128a32 32 0 0 1 32-32z" /></svg>