<?xml version="1.0" standalone="no"?><!DOCTYPE svg PUBLIC "-//W3C//DTD SVG 1.1//EN" "http://www.w3.org/Graphics/SVG/1.1/DTD/svg11.dtd"><svg class="icon" width="200px" height="184.01px" viewBox="0 0 1113 1024" version="1.1" xmlns="http://www.w3.org/2000/svg"><path d="M632.05784 161.329449v568.060878c0 48.500494-150.831984 102.33149-150.831985 102.33149-42.352295 9.427828-91.153348 14.798109-143.097011 14.79811-162.332785 0-293.928995-52.443121-293.928995-117.1296V161.329449" fill="#FFCA5F" /><path d="M479.289902 832.124036c0.636478-0.14144 1.303896-0.265199 1.935953-0.402219 0 0 150.831984-53.835416 150.831985-102.33149V161.329449h-152.767938v670.794587z" fill="#E6B05E" /><path d="M184.627189 829.290826c42.250636 10.333925 91.568827 16.495384 144.383226 17.145121v-585.206H184.627189v568.060879z" fill="#FFE278" /><path d="M184.627189 161.329449H44.199849v568.060878c0 42.263896 56.195688 79.290109 140.42734 99.900499V161.329449z" fill="#FFF48F" /><path d="M609.957915 161.329449v568.060878c0 16.919702-66.171594 56.540447-136.162054 81.517781l2.625471-0.760237c-41.936817 9.330588-89.761053 14.272131-138.296908 14.272131-155.579048 0-271.829071-50.175669-271.829071-95.029675V161.329449H22.099924v568.060878c0 90.432891 162.823403 139.229524 316.02892 139.229524 51.713823 0 102.857468-5.299562 147.897115-15.324088l1.334835-0.296139 1.290636-0.459678c1.595615-0.570178 39.558865-14.183732 78.145333-34.162063C626.400259 787.513128 654.157764 759.242905 654.157764 729.390327V161.329449h-44.199849z" fill="#6E6E96" /><path d="M44.199849 161.329449a293.928995 117.1296 0 1 0 587.857991 0 293.928995 117.1296 0 1 0-587.857991 0Z" fill="#FFF48F" /><path d="M338.128844 300.558973C184.923328 300.558973 22.099924 251.762339 22.099924 161.329449c0-40.95116 35.518999-77.654715 100.006579-103.352507C180.163004 34.842741 256.880682 22.099924 338.128844 22.099924 491.334361 22.099924 654.157764 70.896558 654.157764 161.329449c0 40.95116-35.514579 77.654715-100.006578 103.352506C496.094684 287.816156 419.377007 300.558973 338.128844 300.558973z m0-234.2592C182.549796 66.299773 66.299773 116.471022 66.299773 161.329449S182.549796 256.359124 338.128844 256.359124 609.957915 206.187875 609.957915 161.329449 493.707893 66.299773 338.128844 66.299773zM338.128844 677.477604c-153.201096 0-316.0245-48.796633-316.0245-139.229524h44.199849c0 44.858427 116.250023 95.029675 271.824651 95.029675 48.531434 0 96.355671-4.932703 138.296908-14.267711l9.600207 43.147893c-45.044066 10.024526-96.183291 15.319668-147.897115 15.319667zM338.128844 492.929975c-153.201096 0-316.0245-48.796633-316.0245-139.229524h44.199849c0 44.858427 116.250023 95.029675 271.824651 95.029675 49.132552 0 97.469507-5.047623 139.786443-14.59921l9.728386 43.116953c-45.459545 10.258785-97.160108 15.682106-149.514829 15.682106z" fill="#6E6E96" /><path d="M1069.075006 467.753741v394.91681c0 64.686479-131.59179 117.1296-293.928995 117.1296s-293.928995-52.443121-293.928996-117.1296v-394.91681" fill="#FFCA5F" /><path d="M620.729418 467.753741h-139.503563v394.91681c0 42.109196 55.797889 79.01607 139.503563 99.66182V467.753741z" fill="#FFF48F" /><path d="M620.729418 962.332371c44.880527 11.063222 97.765646 17.46778 154.425433 17.46778 9.043289 0 17.962819-0.190059 26.793948-0.503878V467.758161h-181.219381v494.57421z" fill="#FFE278" /><path d="M963.110288 952.701224c64.735099-21.476707 105.964718-53.835416 105.964718-90.030673v-394.91681h-105.964718v484.947483z" fill="#E6B05E" /><path d="M1046.975081 467.753741v394.91681c0 44.854007-116.254443 95.029675-271.82907 95.029676-155.579048 0-271.829071-50.175669-271.829071-95.029676v-394.91681h-44.199849v394.91681c0 90.428471 162.827823 139.229524 316.02892 139.229525s316.02892-48.801053 316.028919-139.229525v-394.91681h-44.199849z" fill="#6E6E96" /><path d="M481.217015 467.753741a293.928995 117.1296 0 1 0 587.857991 0 293.928995 117.1296 0 1 0-587.857991 0Z" fill="#FFF48F" /><path d="M775.146011 606.987685c-153.201096 0-316.02892-48.796633-316.02892-139.229524 0-40.95116 35.518999-77.654715 100.006578-103.352507 58.056502-23.134201 134.774179-35.877017 216.022342-35.877017 153.201096 0 316.02892 48.796633 316.028919 139.229524 0 40.94674-35.514579 77.654715-100.006578 103.352507-58.060922 23.134201-134.774179 35.877017-216.022341 35.877017z m0-234.263619c-155.579048 0-271.829071 50.171249-271.829071 95.029675s116.250023 95.029675 271.829071 95.029675 271.829071-50.171249 271.82907-95.029675-116.250023-95.029675-271.82907-95.029675zM774.624452 809.697032c-153.201096 0-316.0245-48.796633-316.024499-139.229524h44.199848c0 44.858427 116.250023 95.029675 271.824651 95.029676s271.824651-50.171249 271.824651-95.029676h44.199849c0 90.432891-162.823403 139.229524-316.0245 139.229524z" fill="#6E6E96" /><path d="M841.728663 72.209293h110.499622v44.199849h-110.499622z" fill="#6E6E96" /><path d="M874.87855 30.219437h44.199849v179.009388h-44.199849z" fill="#6E6E96" /></svg>