{
  "asset": {
    "generator": "Khronos glTF Blender I/O v1.8.19",
    "version": "2.0"
  },
  "scene": 0,
  "scenes": [
    {
      "name": "Scene",
      "nodes": [0]
    }
  ],
  "nodes": [
    {
      "mesh": 0,
      "name": "\u52a8\u7269_\u732b"
    }
  ],
  "materials": [
    {
      "doubleSided": true,
      "name": "Mat3d66-792798-3-3575",
      "pbrMetallicRoughness": {
        "baseColorTexture": {
          "index": 0
        },
        "metallicFactor": 0,
        "roughnessFactor": 0.9409449100494385
      }
    }
  ],
  "meshes": [
    {
      "name": "Obj3d66-792798-3-53",
      "primitives": [
        {
          "attributes": {
            "POSITION": 0,
            "NORMAL": 1,
            "TEXCOORD_0": 2
          },
          "indices": 3,
          "material": 0
        }
      ]
    }
  ],
  "textures": [
    {
      "sampler": 0,
      "source": 0
    }
  ],
  "images": [
    {
      "bufferView": 4,
      "mimeType": "image/jpeg",
      "name": "Image_0"
    }
  ],
  "accessors": [
    {
      "bufferView": 0,
      "componentType": 5126,
      "count": 4715,
      "max": [0.018912216648459435, 0.03864992409944534, 0.032896675169467926],
      "min": [
        -0.010023119859397411, -0.00031338626286014915, -0.03197547048330307
      ],
      "type": "VEC3"
    },
    {
      "bufferView": 1,
      "componentType": 5126,
      "count": 4715,
      "type": "VEC3"
    },
    {
      "bufferView": 2,
      "componentType": 5126,
      "count": 4715,
      "type": "VEC2"
    },
    {
      "bufferView": 3,
      "componentType": 5123,
      "count": 21774,
      "type": "SCALAR"
    }
  ],
  "bufferViews": [
    {
      "buffer": 0,
      "byteLength": 56580,
      "byteOffset": 0
    },
    {
      "buffer": 0,
      "byteLength": 56580,
      "byteOffset": 56580
    },
    {
      "buffer": 0,
      "byteLength": 37720,
      "byteOffset": 113160
    },
    {
      "buffer": 0,
      "byteLength": 43548,
      "byteOffset": 150880
    },
    {
      "buffer": 0,
      "byteLength": 697068,
      "byteOffset": 194428
    }
  ],
  "samplers": [
    {
      "magFilter": 9729,
      "minFilter": 9987
    }
  ],
  "buffers": [
    {
      "byteLength": 891496,
      "uri": "data:application/octet-stream;base64,"
    }
  ]
}
