{
  "asset": {
    "generator": "Khronos glTF Blender I/O v1.8.19",
    "version": "2.0"
  },
  "scene": 0,
  "scenes": [
    {
      "name": "Scene",
      "nodes": [0]
    }
  ],
  "nodes": [
    {
      "mesh": 0,
      "name": "\u914d\u7535\u7bb106"
    }
  ],
  "materials": [
    {
      "doubleSided": true,
      "name": "Mat3d66-4735027-41-30496",
      "pbrMetallicRoughness": {
        "baseColorFactor": [
          0.2862749993801117, 0.36862701177597046, 0.274509996175766, 1
        ],
        "metallicFactor": 0.13385826349258423,
        "roughnessFactor": 0.7440944910049438
      }
    },
    {
      "doubleSided": true,
      "name": "Mat3d66-4735027-38-87506",
      "pbrMetallicRoughness": {
        "baseColorTexture": {
          "index": 0
        },
        "metallicFactor": 0,
        "roughnessFactor": 0.8149605989456177
      }
    },
    {
      "doubleSided": true,
      "name": "Mat3d66-4735027-39-54938",
      "pbrMetallicRoughness": {
        "baseColorFactor": [
          0.07058800011873245, 0.06666699796915054, 0.06666699796915054, 1
        ],
        "metallicFactor": 0.21259842813014984,
        "roughnessFactor": 0.7204724550247192
      }
    },
    {
      "doubleSided": true,
      "name": "Mat3d66-4735027-40-71262",
      "pbrMetallicRoughness": {
        "baseColorFactor": [
          0.7764710187911987, 0.800000011920929, 0.8196079730987549, 1
        ],
        "metallicFactor": 0,
        "roughnessFactor": 0.5
      }
    },
    {
      "doubleSided": true,
      "name": "Mat3d66-4735027-35-77202",
      "pbrMetallicRoughness": {
        "baseColorFactor": [0, 0, 0, 1],
        "metallicFactor": 0.21259842813014984,
        "roughnessFactor": 0.7755905389785767
      }
    },
    {
      "doubleSided": true,
      "name": "Mat3d66-4735027-37-33416",
      "pbrMetallicRoughness": {
        "baseColorFactor": [
          0.21568599343299866, 0.21568599343299866, 0.21568599343299866, 1
        ],
        "metallicFactor": 0,
        "roughnessFactor": 0.5
      }
    },
    {
      "doubleSided": true,
      "name": "Mat3d66-4735027-34-29709",
      "pbrMetallicRoughness": {
        "baseColorFactor": [
          0.9294120073318481, 0.9019610285758972, 0.8784310221672058, 1
        ],
        "metallicFactor": 0,
        "roughnessFactor": 0.8307086229324341
      }
    },
    {
      "doubleSided": true,
      "name": "Mat3d66-4735027-36-59870",
      "pbrMetallicRoughness": {
        "baseColorFactor": [
          0.9137259721755981, 0.8784310221672058, 0.2784309983253479, 1
        ],
        "metallicFactor": 0,
        "roughnessFactor": 0.7913385629653931
      }
    }
  ],
  "meshes": [
    {
      "name": "Obj3d66-4735027-40-436",
      "primitives": [
        {
          "attributes": {
            "POSITION": 0,
            "NORMAL": 1,
            "TEXCOORD_0": 2,
            "TEXCOORD_1": 3
          },
          "indices": 4,
          "material": 0
        },
        {
          "attributes": {
            "POSITION": 5,
            "NORMAL": 6,
            "TEXCOORD_0": 7,
            "TEXCOORD_1": 8
          },
          "indices": 9,
          "material": 1
        },
        {
          "attributes": {
            "POSITION": 10,
            "NORMAL": 11,
            "TEXCOORD_0": 12,
            "TEXCOORD_1": 13
          },
          "indices": 14,
          "material": 2
        },
        {
          "attributes": {
            "POSITION": 15,
            "NORMAL": 16,
            "TEXCOORD_0": 17,
            "TEXCOORD_1": 18
          },
          "indices": 19,
          "material": 3
        },
        {
          "attributes": {
            "POSITION": 20,
            "NORMAL": 21,
            "TEXCOORD_0": 22,
            "TEXCOORD_1": 23
          },
          "indices": 24,
          "material": 4
        },
        {
          "attributes": {
            "POSITION": 25,
            "NORMAL": 26,
            "TEXCOORD_0": 27,
            "TEXCOORD_1": 28
          },
          "indices": 29,
          "material": 5
        },
        {
          "attributes": {
            "POSITION": 30,
            "NORMAL": 31,
            "TEXCOORD_0": 32,
            "TEXCOORD_1": 33
          },
          "indices": 34,
          "material": 6
        },
        {
          "attributes": {
            "POSITION": 35,
            "NORMAL": 36,
            "TEXCOORD_0": 37,
            "TEXCOORD_1": 38
          },
          "indices": 39,
          "material": 7
        }
      ]
    }
  ],
  "textures": [
    {
      "sampler": 0,
      "source": 0
    }
  ],
  "images": [
    {
      "bufferView": 10,
      "mimeType": "image/jpeg",
      "name": "3d66Model-4735027-files-21"
    }
  ],
  "accessors": [
    {
      "bufferView": 0,
      "componentType": 5126,
      "count": 108,
      "max": [2.261767625808716, 3.6295089721679688, 1.5678305625915527],
      "min": [-2.324199676513672, 0.6689980030059814, -1.4590035676956177],
      "type": "VEC3"
    },
    {
      "bufferView": 1,
      "componentType": 5126,
      "count": 108,
      "type": "VEC3"
    },
    {
      "bufferView": 2,
      "componentType": 5126,
      "count": 108,
      "type": "VEC2"
    },
    {
      "bufferView": 3,
      "componentType": 5126,
      "count": 108,
      "type": "VEC2"
    },
    {
      "bufferView": 4,
      "componentType": 5123,
      "count": 180,
      "type": "SCALAR"
    },
    {
      "bufferView": 5,
      "componentType": 5126,
      "count": 48,
      "max": [3.640626907348633, 0.5579991340637207, 2.5241470336914062],
      "min": [-3.640626907348633, 0, -2.5241470336914062],
      "type": "VEC3"
    },
    {
      "bufferView": 6,
      "componentType": 5126,
      "count": 48,
      "type": "VEC3"
    },
    {
      "bufferView": 7,
      "componentType": 5126,
      "count": 48,
      "type": "VEC2"
    },
    {
      "bufferView": 8,
      "componentType": 5126,
      "count": 48,
      "type": "VEC2"
    },
    {
      "bufferView": 9,
      "componentType": 5123,
      "count": 72,
      "type": "SCALAR"
    },
    {
      "bufferView": 11,
      "componentType": 5126,
      "count": 9790,
      "max": [3.4414405822753906, 1.6538503170013428, 2.3355894088745117],
      "min": [-3.3822059631347656, 0.5579969882965088, -2.2589306831359863],
      "type": "VEC3"
    },
    {
      "bufferView": 12,
      "componentType": 5126,
      "count": 9790,
      "type": "VEC3"
    },
    {
      "bufferView": 13,
      "componentType": 5126,
      "count": 9790,
      "type": "VEC2"
    },
    {
      "bufferView": 14,
      "componentType": 5126,
      "count": 9790,
      "type": "VEC2"
    },
    {
      "bufferView": 15,
      "componentType": 5123,
      "count": 20088,
      "type": "SCALAR"
    },
    {
      "bufferView": 16,
      "componentType": 5126,
      "count": 3996,
      "max": [3.3992300033569336, 0.9759438037872314, 2.2935142517089844],
      "min": [-3.3401296138763428, 0.5579969882965088, -2.2168445587158203],
      "type": "VEC3"
    },
    {
      "bufferView": 17,
      "componentType": 5126,
      "count": 3996,
      "type": "VEC3"
    },
    {
      "bufferView": 18,
      "componentType": 5126,
      "count": 3996,
      "type": "VEC2"
    },
    {
      "bufferView": 19,
      "componentType": 5126,
      "count": 3996,
      "type": "VEC2"
    },
    {
      "bufferView": 20,
      "componentType": 5123,
      "count": 7236,
      "type": "SCALAR"
    },
    {
      "bufferView": 21,
      "componentType": 5126,
      "count": 1044,
      "max": [2.077383518218994, 2.800004482269287, 1.3871350288391113],
      "min": [-2.1398234367370605, 0.5579917430877686, -1.2668037414550781],
      "type": "VEC3"
    },
    {
      "bufferView": 22,
      "componentType": 5126,
      "count": 1044,
      "type": "VEC3"
    },
    {
      "bufferView": 23,
      "componentType": 5126,
      "count": 1044,
      "type": "VEC2"
    },
    {
      "bufferView": 24,
      "componentType": 5126,
      "count": 1044,
      "type": "VEC2"
    },
    {
      "bufferView": 25,
      "componentType": 5123,
      "count": 2178,
      "type": "SCALAR"
    },
    {
      "bufferView": 26,
      "componentType": 5126,
      "count": 72,
      "max": [0.18297052383422852, 1.9718399047851562, 1.4070100784301758],
      "min": [-2.175834894180298, 1.793986439704895, -0.12305805087089539],
      "type": "VEC3"
    },
    {
      "bufferView": 27,
      "componentType": 5126,
      "count": 72,
      "type": "VEC3"
    },
    {
      "bufferView": 28,
      "componentType": 5126,
      "count": 72,
      "type": "VEC2"
    },
    {
      "bufferView": 29,
      "componentType": 5126,
      "count": 72,
      "type": "VEC2"
    },
    {
      "bufferView": 30,
      "componentType": 5123,
      "count": 108,
      "type": "SCALAR"
    },
    {
      "bufferView": 31,
      "componentType": 5126,
      "count": 80,
      "max": [1.691258430480957, 2.803926944732666, 1.3871338367462158],
      "min": [1.435122013092041, 2.3462724685668945, 1.3756264448165894],
      "type": "VEC3"
    },
    {
      "bufferView": 32,
      "componentType": 5126,
      "count": 80,
      "type": "VEC3"
    },
    {
      "bufferView": 33,
      "componentType": 5126,
      "count": 80,
      "type": "VEC2"
    },
    {
      "bufferView": 34,
      "componentType": 5126,
      "count": 80,
      "type": "VEC2"
    },
    {
      "bufferView": 35,
      "componentType": 5123,
      "count": 180,
      "type": "SCALAR"
    },
    {
      "bufferView": 36,
      "componentType": 5126,
      "count": 66,
      "max": [1.685258150100708, 2.7941555976867676, 1.3860876560211182],
      "min": [1.44112229347229, 2.3512015342712402, 1.3756264448165894],
      "type": "VEC3"
    },
    {
      "bufferView": 37,
      "componentType": 5126,
      "count": 66,
      "type": "VEC3"
    },
    {
      "bufferView": 38,
      "componentType": 5126,
      "count": 66,
      "type": "VEC2"
    },
    {
      "bufferView": 39,
      "componentType": 5126,
      "count": 66,
      "type": "VEC2"
    },
    {
      "bufferView": 40,
      "componentType": 5123,
      "count": 126,
      "type": "SCALAR"
    }
  ],
  "bufferViews": [
    {
      "buffer": 0,
      "byteLength": 1296,
      "byteOffset": 0
    },
    {
      "buffer": 0,
      "byteLength": 1296,
      "byteOffset": 1296
    },
    {
      "buffer": 0,
      "byteLength": 864,
      "byteOffset": 2592
    },
    {
      "buffer": 0,
      "byteLength": 864,
      "byteOffset": 3456
    },
    {
      "buffer": 0,
      "byteLength": 360,
      "byteOffset": 4320
    },
    {
      "buffer": 0,
      "byteLength": 576,
      "byteOffset": 4680
    },
    {
      "buffer": 0,
      "byteLength": 576,
      "byteOffset": 5256
    },
    {
      "buffer": 0,
      "byteLength": 384,
      "byteOffset": 5832
    },
    {
      "buffer": 0,
      "byteLength": 384,
      "byteOffset": 6216
    },
    {
      "buffer": 0,
      "byteLength": 144,
      "byteOffset": 6600
    },
    {
      "buffer": 0,
      "byteLength": 199348,
      "byteOffset": 6744
    },
    {
      "buffer": 0,
      "byteLength": 117480,
      "byteOffset": 206092
    },
    {
      "buffer": 0,
      "byteLength": 117480,
      "byteOffset": 323572
    },
    {
      "buffer": 0,
      "byteLength": 78320,
      "byteOffset": 441052
    },
    {
      "buffer": 0,
      "byteLength": 78320,
      "byteOffset": 519372
    },
    {
      "buffer": 0,
      "byteLength": 40176,
      "byteOffset": 597692
    },
    {
      "buffer": 0,
      "byteLength": 47952,
      "byteOffset": 637868
    },
    {
      "buffer": 0,
      "byteLength": 47952,
      "byteOffset": 685820
    },
    {
      "buffer": 0,
      "byteLength": 31968,
      "byteOffset": 733772
    },
    {
      "buffer": 0,
      "byteLength": 31968,
      "byteOffset": 765740
    },
    {
      "buffer": 0,
      "byteLength": 14472,
      "byteOffset": 797708
    },
    {
      "buffer": 0,
      "byteLength": 12528,
      "byteOffset": 812180
    },
    {
      "buffer": 0,
      "byteLength": 12528,
      "byteOffset": 824708
    },
    {
      "buffer": 0,
      "byteLength": 8352,
      "byteOffset": 837236
    },
    {
      "buffer": 0,
      "byteLength": 8352,
      "byteOffset": 845588
    },
    {
      "buffer": 0,
      "byteLength": 4356,
      "byteOffset": 853940
    },
    {
      "buffer": 0,
      "byteLength": 864,
      "byteOffset": 858296
    },
    {
      "buffer": 0,
      "byteLength": 864,
      "byteOffset": 859160
    },
    {
      "buffer": 0,
      "byteLength": 576,
      "byteOffset": 860024
    },
    {
      "buffer": 0,
      "byteLength": 576,
      "byteOffset": 860600
    },
    {
      "buffer": 0,
      "byteLength": 216,
      "byteOffset": 861176
    },
    {
      "buffer": 0,
      "byteLength": 960,
      "byteOffset": 861392
    },
    {
      "buffer": 0,
      "byteLength": 960,
      "byteOffset": 862352
    },
    {
      "buffer": 0,
      "byteLength": 640,
      "byteOffset": 863312
    },
    {
      "buffer": 0,
      "byteLength": 640,
      "byteOffset": 863952
    },
    {
      "buffer": 0,
      "byteLength": 360,
      "byteOffset": 864592
    },
    {
      "buffer": 0,
      "byteLength": 792,
      "byteOffset": 864952
    },
    {
      "buffer": 0,
      "byteLength": 792,
      "byteOffset": 865744
    },
    {
      "buffer": 0,
      "byteLength": 528,
      "byteOffset": 866536
    },
    {
      "buffer": 0,
      "byteLength": 528,
      "byteOffset": 867064
    },
    {
      "buffer": 0,
      "byteLength": 252,
      "byteOffset": 867592
    }
  ],
  "samplers": [
    {
      "magFilter": 9729,
      "minFilter": 9987
    }
  ],
  "buffers": [
    {
      "byteLength": 867844,
      "uri": "data:application/octet-stream;base64,"
    }
  ]
}
