{
  "asset": {
    "generator": "Khronos glTF Blender I/O v1.8.19",
    "version": "2.0"
  },
  "scene": 0,
  "scenes": [
    {
      "name": "Scene",
      "nodes": [0]
    }
  ],
  "nodes": [
    {
      "mesh": 0,
      "name": "\u529e\u516c\u697c172"
    }
  ],
  "materials": [
    {
      "doubleSided": true,
      "name": "00\u5c42\u677f.023",
      "pbrMetallicRoughness": {
        "baseColorTexture": {
          "index": 0
        },
        "metallicFactor": 0,
        "roughnessFactor": 0.5
      }
    },
    {
      "doubleSided": true,
      "name": "00\u7a97\u6846.021",
      "pbrMetallicRoughness": {
        "baseColorFactor": [
          0.2509799897670746, 0.2980389893054962, 0.34902000427246094, 1
        ],
        "metallicFactor": 0,
        "roughnessFactor": 0.5
      }
    },
    {
      "doubleSided": true,
      "name": "00\u767d\u8272.009",
      "pbrMetallicRoughness": {
        "metallicFactor": 0,
        "roughnessFactor": 0.5
      }
    },
    {
      "doubleSided": true,
      "name": "00\u680f\u6746.007",
      "pbrMetallicRoughness": {
        "baseColorFactor": [
          0.2509799897670746, 0.4235289990901947, 0.4549019932746887, 1
        ],
        "metallicFactor": 0,
        "roughnessFactor": 0.5
      }
    },
    {
      "doubleSided": true,
      "name": "00\u73bb\u7483.026",
      "pbrMetallicRoughness": {
        "baseColorFactor": [
          0.564706027507782, 0.7372549772262573, 0.8352940082550049, 1
        ],
        "metallicFactor": 0,
        "roughnessFactor": 0.5
      }
    },
    {
      "doubleSided": true,
      "name": "Material #30",
      "pbrMetallicRoughness": {
        "baseColorTexture": {
          "index": 1
        },
        "metallicFactor": 0,
        "roughnessFactor": 0.5
      }
    },
    {
      "doubleSided": true,
      "name": "00\u8e0f\u6b65.027",
      "pbrMetallicRoughness": {
        "baseColorTexture": {
          "index": 2
        },
        "metallicFactor": 0,
        "roughnessFactor": 0.5
      }
    }
  ],
  "meshes": [
    {
      "name": "Obj3d66-1207533-6678-815",
      "primitives": [
        {
          "attributes": {
            "POSITION": 0,
            "NORMAL": 1,
            "TEXCOORD_0": 2
          },
          "indices": 3,
          "material": 0
        },
        {
          "attributes": {
            "POSITION": 4,
            "NORMAL": 5,
            "TEXCOORD_0": 6
          },
          "indices": 7,
          "material": 1
        },
        {
          "attributes": {
            "POSITION": 8,
            "NORMAL": 9,
            "TEXCOORD_0": 10
          },
          "indices": 11,
          "material": 2
        },
        {
          "attributes": {
            "POSITION": 12,
            "NORMAL": 13,
            "TEXCOORD_0": 14
          },
          "indices": 15,
          "material": 3
        },
        {
          "attributes": {
            "POSITION": 16,
            "NORMAL": 17,
            "TEXCOORD_0": 18
          },
          "indices": 19,
          "material": 4
        },
        {
          "attributes": {
            "POSITION": 20,
            "NORMAL": 21,
            "TEXCOORD_0": 22
          },
          "indices": 23,
          "material": 5
        },
        {
          "attributes": {
            "POSITION": 24,
            "NORMAL": 25,
            "TEXCOORD_0": 26
          },
          "indices": 27,
          "material": 6
        }
      ]
    }
  ],
  "textures": [
    {
      "sampler": 0,
      "source": 0
    },
    {
      "sampler": 0,
      "source": 1
    },
    {
      "sampler": 0,
      "source": 2
    }
  ],
  "images": [
    {
      "bufferView": 4,
      "mimeType": "image/jpeg",
      "name": "3d66Model-1207533-files-1"
    },
    {
      "bufferView": 25,
      "mimeType": "image/jpeg",
      "name": "3d66Model-1207533-files-26"
    },
    {
      "bufferView": 30,
      "mimeType": "image/jpeg",
      "name": "3d66Model-1207533-files-7"
    }
  ],
  "accessors": [
    {
      "bufferView": 0,
      "componentType": 5126,
      "count": 504,
      "max": [22.000038146972656, 14.650005340576172, 8.800017356872559],
      "min": [-21.999969482421875, 7.62939453125e-6, -8.799983978271484],
      "type": "VEC3"
    },
    {
      "bufferView": 1,
      "componentType": 5126,
      "count": 504,
      "type": "VEC3"
    },
    {
      "bufferView": 2,
      "componentType": 5126,
      "count": 504,
      "type": "VEC2"
    },
    {
      "bufferView": 3,
      "componentType": 5123,
      "count": 948,
      "type": "SCALAR"
    },
    {
      "bufferView": 5,
      "componentType": 5126,
      "count": 14256,
      "max": [22.09864044189453, 14.350008964538574, 9.198577880859375],
      "min": [-22.09857940673828, 0.3000068664550781, -9.198617935180664],
      "type": "VEC3"
    },
    {
      "bufferView": 6,
      "componentType": 5126,
      "count": 14256,
      "type": "VEC3"
    },
    {
      "bufferView": 7,
      "componentType": 5126,
      "count": 14256,
      "type": "VEC2"
    },
    {
      "bufferView": 8,
      "componentType": 5123,
      "count": 32664,
      "type": "SCALAR"
    },
    {
      "bufferView": 9,
      "componentType": 5126,
      "count": 5040,
      "max": [23.27798843383789, 14.350008964538574, 12.429491996765137],
      "min": [-23.277923583984375, 4.76837158203125e-6, -12.429492950439453],
      "type": "VEC3"
    },
    {
      "bufferView": 10,
      "componentType": 5126,
      "count": 5040,
      "type": "VEC3"
    },
    {
      "bufferView": 11,
      "componentType": 5126,
      "count": 5040,
      "type": "VEC2"
    },
    {
      "bufferView": 12,
      "componentType": 5123,
      "count": 7560,
      "type": "SCALAR"
    },
    {
      "bufferView": 13,
      "componentType": 5126,
      "count": 20160,
      "max": [18.049983978271484, 12.200006484985352, 11.79085922241211],
      "min": [-18.049922943115234, 0.014678001403808594, -11.790852546691895],
      "type": "VEC3"
    },
    {
      "bufferView": 14,
      "componentType": 5126,
      "count": 20160,
      "type": "VEC3"
    },
    {
      "bufferView": 15,
      "componentType": 5126,
      "count": 20160,
      "type": "VEC2"
    },
    {
      "bufferView": 16,
      "componentType": 5123,
      "count": 30288,
      "type": "SCALAR"
    },
    {
      "bufferView": 17,
      "componentType": 5126,
      "count": 1968,
      "max": [22.058643341064453, 14.350008964538574, 9.158577919006348],
      "min": [-22.058578491210938, 4.76837158203125e-6, -9.158617973327637],
      "type": "VEC3"
    },
    {
      "bufferView": 18,
      "componentType": 5126,
      "count": 1968,
      "type": "VEC3"
    },
    {
      "bufferView": 19,
      "componentType": 5126,
      "count": 1968,
      "type": "VEC2"
    },
    {
      "bufferView": 20,
      "componentType": 5123,
      "count": 2952,
      "type": "SCALAR"
    },
    {
      "bufferView": 21,
      "componentType": 5126,
      "count": 2208,
      "max": [22.40003204345703, 15.750008583068848, 9.999984741210938],
      "min": [-22.399986267089844, 0, -9.999980926513672],
      "type": "VEC3"
    },
    {
      "bufferView": 22,
      "componentType": 5126,
      "count": 2208,
      "type": "VEC3"
    },
    {
      "bufferView": 23,
      "componentType": 5126,
      "count": 2208,
      "type": "VEC2"
    },
    {
      "bufferView": 24,
      "componentType": 5123,
      "count": 3408,
      "type": "SCALAR"
    },
    {
      "bufferView": 26,
      "componentType": 5126,
      "count": 468,
      "max": [23.877986907958984, 0.6500101089477539, 12.631243705749512],
      "min": [-23.877986907958984, 6.67572021484375e-6, -12.631243705749512],
      "type": "VEC3"
    },
    {
      "bufferView": 27,
      "componentType": 5126,
      "count": 468,
      "type": "VEC3"
    },
    {
      "bufferView": 28,
      "componentType": 5126,
      "count": 468,
      "type": "VEC2"
    },
    {
      "bufferView": 29,
      "componentType": 5123,
      "count": 696,
      "type": "SCALAR"
    }
  ],
  "bufferViews": [
    {
      "buffer": 0,
      "byteLength": 6048,
      "byteOffset": 0
    },
    {
      "buffer": 0,
      "byteLength": 6048,
      "byteOffset": 6048
    },
    {
      "buffer": 0,
      "byteLength": 4032,
      "byteOffset": 12096
    },
    {
      "buffer": 0,
      "byteLength": 1896,
      "byteOffset": 16128
    },
    {
      "buffer": 0,
      "byteLength": 12584,
      "byteOffset": 18024
    },
    {
      "buffer": 0,
      "byteLength": 171072,
      "byteOffset": 30608
    },
    {
      "buffer": 0,
      "byteLength": 171072,
      "byteOffset": 201680
    },
    {
      "buffer": 0,
      "byteLength": 114048,
      "byteOffset": 372752
    },
    {
      "buffer": 0,
      "byteLength": 65328,
      "byteOffset": 486800
    },
    {
      "buffer": 0,
      "byteLength": 60480,
      "byteOffset": 552128
    },
    {
      "buffer": 0,
      "byteLength": 60480,
      "byteOffset": 612608
    },
    {
      "buffer": 0,
      "byteLength": 40320,
      "byteOffset": 673088
    },
    {
      "buffer": 0,
      "byteLength": 15120,
      "byteOffset": 713408
    },
    {
      "buffer": 0,
      "byteLength": 241920,
      "byteOffset": 728528
    },
    {
      "buffer": 0,
      "byteLength": 241920,
      "byteOffset": 970448
    },
    {
      "buffer": 0,
      "byteLength": 161280,
      "byteOffset": 1212368
    },
    {
      "buffer": 0,
      "byteLength": 60576,
      "byteOffset": 1373648
    },
    {
      "buffer": 0,
      "byteLength": 23616,
      "byteOffset": 1434224
    },
    {
      "buffer": 0,
      "byteLength": 23616,
      "byteOffset": 1457840
    },
    {
      "buffer": 0,
      "byteLength": 15744,
      "byteOffset": 1481456
    },
    {
      "buffer": 0,
      "byteLength": 5904,
      "byteOffset": 1497200
    },
    {
      "buffer": 0,
      "byteLength": 26496,
      "byteOffset": 1503104
    },
    {
      "buffer": 0,
      "byteLength": 26496,
      "byteOffset": 1529600
    },
    {
      "buffer": 0,
      "byteLength": 17664,
      "byteOffset": 1556096
    },
    {
      "buffer": 0,
      "byteLength": 6816,
      "byteOffset": 1573760
    },
    {
      "buffer": 0,
      "byteLength": 69704,
      "byteOffset": 1580576
    },
    {
      "buffer": 0,
      "byteLength": 5616,
      "byteOffset": 1650280
    },
    {
      "buffer": 0,
      "byteLength": 5616,
      "byteOffset": 1655896
    },
    {
      "buffer": 0,
      "byteLength": 3744,
      "byteOffset": 1661512
    },
    {
      "buffer": 0,
      "byteLength": 1392,
      "byteOffset": 1665256
    },
    {
      "buffer": 0,
      "byteLength": 91327,
      "byteOffset": 1666648
    }
  ],
  "samplers": [
    {
      "magFilter": 9729,
      "minFilter": 9987
    }
  ],
  "buffers": [
    {
      "byteLength": 1757976,
      "uri": "data:application/octet-stream;base64,"
    }
  ]
}
