{
  "asset": {
    "generator": "Khronos glTF Blender I/O v1.8.19",
    "version": "2.0"
  },
  "scene": 0,
  "scenes": [
    {
      "name": "Scene",
      "nodes": [0]
    }
  ],
  "nodes": [
    {
      "mesh": 0,
      "name": "\u82b1\u575b_\u8349\u576a03"
    }
  ],
  "materials": [
    {
      "doubleSided": true,
      "name": "02f-sujiao.001",
      "pbrMetallicRoughness": {
        "baseColorFactor": [
          0.3294117748737335, 0.3294117748737335, 0.3294117748737335, 1
        ],
        "metallicFactor": 0,
        "roughnessFactor": 0.858578622341156
      }
    },
    {
      "doubleSided": true,
      "name": "0009_Linen.004",
      "pbrMetallicRoughness": {
        "baseColorTexture": {
          "index": 0
        },
        "metallicFactor": 0,
        "roughnessFactor": 0.858578622341156
      }
    },
    {
      "doubleSided": true,
      "name": "[Vegetation_HoneyLocust]7.001",
      "pbrMetallicRoughness": {
        "baseColorTexture": {
          "index": 1
        },
        "metallicFactor": 0
      }
    }
  ],
  "meshes": [
    {
      "name": "\u7f51\u683c.002",
      "primitives": [
        {
          "attributes": {
            "POSITION": 0,
            "NORMAL": 1,
            "TEXCOORD_0": 2,
            "TEXCOORD_1": 3
          },
          "indices": 4,
          "material": 0
        },
        {
          "attributes": {
            "POSITION": 5,
            "NORMAL": 6,
            "TEXCOORD_0": 7,
            "TEXCOORD_1": 8
          },
          "indices": 9,
          "material": 1
        },
        {
          "attributes": {
            "POSITION": 10,
            "NORMAL": 11,
            "TEXCOORD_0": 12,
            "TEXCOORD_1": 13
          },
          "indices": 14,
          "material": 2
        }
      ]
    }
  ],
  "textures": [
    {
      "sampler": 0,
      "source": 0
    },
    {
      "sampler": 0,
      "source": 1
    }
  ],
  "images": [
    {
      "bufferView": 10,
      "mimeType": "image/jpeg",
      "name": "Image_0"
    },
    {
      "bufferView": 16,
      "mimeType": "image/jpeg",
      "name": "Image_1"
    }
  ],
  "accessors": [
    {
      "bufferView": 0,
      "componentType": 5126,
      "count": 186,
      "max": [1.0306084156036377, 0.020000126212835312, 1.4137442111968994],
      "min": [-1.030611515045166, 2.812045707401012e-9, -1.4137420654296875],
      "type": "VEC3"
    },
    {
      "bufferView": 1,
      "componentType": 5126,
      "count": 186,
      "type": "VEC3"
    },
    {
      "bufferView": 2,
      "componentType": 5126,
      "count": 186,
      "type": "VEC2"
    },
    {
      "bufferView": 3,
      "componentType": 5126,
      "count": 186,
      "type": "VEC2"
    },
    {
      "bufferView": 4,
      "componentType": 5123,
      "count": 558,
      "type": "SCALAR"
    },
    {
      "bufferView": 5,
      "componentType": 5126,
      "count": 2408,
      "max": [1.050614833831787, 0.10000012814998627, 1.433748722076416],
      "min": [-1.050614833831787, 2.812045707401012e-9, -1.4337488412857056],
      "type": "VEC3"
    },
    {
      "bufferView": 6,
      "componentType": 5126,
      "count": 2408,
      "type": "VEC3"
    },
    {
      "bufferView": 7,
      "componentType": 5126,
      "count": 2408,
      "type": "VEC2"
    },
    {
      "bufferView": 8,
      "componentType": 5126,
      "count": 2408,
      "type": "VEC2"
    },
    {
      "bufferView": 9,
      "componentType": 5123,
      "count": 2790,
      "type": "SCALAR"
    },
    {
      "bufferView": 11,
      "componentType": 5126,
      "count": 642,
      "max": [0.8505514860153198, 0.3000001311302185, 1.2337067127227783],
      "min": [-0.8505854606628418, 0.10000001639127731, -1.2336819171905518],
      "type": "VEC3"
    },
    {
      "bufferView": 12,
      "componentType": 5126,
      "count": 642,
      "type": "VEC3"
    },
    {
      "bufferView": 13,
      "componentType": 5126,
      "count": 642,
      "type": "VEC2"
    },
    {
      "bufferView": 14,
      "componentType": 5126,
      "count": 642,
      "type": "VEC2"
    },
    {
      "bufferView": 15,
      "componentType": 5123,
      "count": 831,
      "type": "SCALAR"
    }
  ],
  "bufferViews": [
    {
      "buffer": 0,
      "byteLength": 2232,
      "byteOffset": 0
    },
    {
      "buffer": 0,
      "byteLength": 2232,
      "byteOffset": 2232
    },
    {
      "buffer": 0,
      "byteLength": 1488,
      "byteOffset": 4464
    },
    {
      "buffer": 0,
      "byteLength": 1488,
      "byteOffset": 5952
    },
    {
      "buffer": 0,
      "byteLength": 1116,
      "byteOffset": 7440
    },
    {
      "buffer": 0,
      "byteLength": 28896,
      "byteOffset": 8556
    },
    {
      "buffer": 0,
      "byteLength": 28896,
      "byteOffset": 37452
    },
    {
      "buffer": 0,
      "byteLength": 19264,
      "byteOffset": 66348
    },
    {
      "buffer": 0,
      "byteLength": 19264,
      "byteOffset": 85612
    },
    {
      "buffer": 0,
      "byteLength": 5580,
      "byteOffset": 104876
    },
    {
      "buffer": 0,
      "byteLength": 55780,
      "byteOffset": 110456
    },
    {
      "buffer": 0,
      "byteLength": 7704,
      "byteOffset": 166236
    },
    {
      "buffer": 0,
      "byteLength": 7704,
      "byteOffset": 173940
    },
    {
      "buffer": 0,
      "byteLength": 5136,
      "byteOffset": 181644
    },
    {
      "buffer": 0,
      "byteLength": 5136,
      "byteOffset": 186780
    },
    {
      "buffer": 0,
      "byteLength": 1662,
      "byteOffset": 191916
    },
    {
      "buffer": 0,
      "byteLength": 14308,
      "byteOffset": 193580
    }
  ],
  "samplers": [
    {
      "magFilter": 9729,
      "minFilter": 9987
    }
  ],
  "buffers": [
    {
      "byteLength": 207888,
      "uri": "data:application/octet-stream;base64,"
    }
  ]
}
