{
  "asset": {
    "generator": "Khronos glTF Blender I/O v1.8.19",
    "version": "2.0"
  },
  "scene": 0,
  "scenes": [
    {
      "name": "Scene",
      "nodes": [0]
    }
  ],
  "nodes": [
    {
      "mesh": 0,
      "name": "\u9053\u8def05"
    }
  ],
  "materials": [
    {
      "doubleSided": true,
      "name": "Mat3d66-1012412-9-3364",
      "pbrMetallicRoughness": {
        "metallicFactor": 0
      }
    },
    {
      "doubleSided": true,
      "name": "Mat3d66-1012412-11-6470",
      "pbrMetallicRoughness": {
        "baseColorFactor": [0.5, 0.5, 0.5, 1],
        "metallicFactor": 0
      }
    },
    {
      "doubleSided": true,
      "name": "Mat3d66-1012412-10-3692",
      "pbrMetallicRoughness": {
        "baseColorFactor": [0.5, 0.5, 0.5, 1],
        "metallicFactor": 0
      }
    },
    {
      "doubleSided": true,
      "name": "Mat3d66-1012412-8-3201",
      "pbrMetallicRoughness": {
        "baseColorFactor": [1, 1, 0, 1],
        "metallicFactor": 0
      }
    },
    {
      "doubleSided": true,
      "name": "Mat3d66-1012412-12-7635",
      "pbrMetallicRoughness": {
        "baseColorFactor": [
          0.48235300183296204, 0.6000000238418579, 0.4666669964790344, 1
        ],
        "metallicFactor": 0
      }
    },
    {
      "doubleSided": true,
      "name": "Mat3d66-1012412-2-4290",
      "pbrMetallicRoughness": {
        "baseColorTexture": {
          "index": 0
        },
        "metallicFactor": 0
      }
    }
  ],
  "meshes": [
    {
      "name": "Obj3d66-1012412-684-941",
      "primitives": [
        {
          "attributes": {
            "POSITION": 0,
            "NORMAL": 1,
            "TEXCOORD_0": 2
          },
          "indices": 3,
          "material": 0
        },
        {
          "attributes": {
            "POSITION": 4,
            "NORMAL": 5,
            "TEXCOORD_0": 6
          },
          "indices": 7,
          "material": 1
        },
        {
          "attributes": {
            "POSITION": 8,
            "NORMAL": 9,
            "TEXCOORD_0": 10
          },
          "indices": 11,
          "material": 2
        },
        {
          "attributes": {
            "POSITION": 12,
            "NORMAL": 13,
            "TEXCOORD_0": 14
          },
          "indices": 15,
          "material": 3
        },
        {
          "attributes": {
            "POSITION": 16,
            "NORMAL": 17,
            "TEXCOORD_0": 18
          },
          "indices": 19,
          "material": 4
        },
        {
          "attributes": {
            "POSITION": 20,
            "NORMAL": 21,
            "TEXCOORD_0": 22
          },
          "indices": 23,
          "material": 5
        }
      ]
    }
  ],
  "textures": [
    {
      "sampler": 0,
      "source": 0
    }
  ],
  "images": [
    {
      "bufferView": 24,
      "mimeType": "image/jpeg",
      "name": "3d66Model-1012412-files-24"
    }
  ],
  "accessors": [
    {
      "bufferView": 0,
      "componentType": 5126,
      "count": 176,
      "max": [34.75001525878906, 0.011000003665685654, 34.75005340576172],
      "min": [-32.87042999267578, 0.011000003665685654, -32.870384216308594],
      "type": "VEC3"
    },
    {
      "bufferView": 1,
      "componentType": 5126,
      "count": 176,
      "type": "VEC3"
    },
    {
      "bufferView": 2,
      "componentType": 5126,
      "count": 176,
      "type": "VEC2"
    },
    {
      "bufferView": 3,
      "componentType": 5123,
      "count": 264,
      "type": "SCALAR"
    },
    {
      "bufferView": 4,
      "componentType": 5126,
      "count": 92,
      "max": [34.75, 0.009999997913837433, 34.74999237060547],
      "min": [-33.25001525878906, -9.313225746154785e-10, -33.250030517578125],
      "type": "VEC3"
    },
    {
      "bufferView": 5,
      "componentType": 5126,
      "count": 92,
      "type": "VEC3"
    },
    {
      "bufferView": 6,
      "componentType": 5126,
      "count": 92,
      "type": "VEC2"
    },
    {
      "bufferView": 7,
      "componentType": 5123,
      "count": 228,
      "type": "SCALAR"
    },
    {
      "bufferView": 8,
      "componentType": 5126,
      "count": 184,
      "max": [34.75, 0.019999999552965164, 34.750022888183594],
      "min": [-34.75001525878906, -9.313225746154785e-10, -34.75005340576172],
      "type": "VEC3"
    },
    {
      "bufferView": 9,
      "componentType": 5126,
      "count": 184,
      "type": "VEC3"
    },
    {
      "bufferView": 10,
      "componentType": 5126,
      "count": 184,
      "type": "VEC2"
    },
    {
      "bufferView": 11,
      "componentType": 5123,
      "count": 456,
      "type": "SCALAR"
    },
    {
      "bufferView": 12,
      "componentType": 5126,
      "count": 16,
      "max": [28.4825496673584, 0.011000003665685654, 28.482559204101562],
      "min": [-29.60002326965332, 0.011000003665685654, -29.599939346313477],
      "type": "VEC3"
    },
    {
      "bufferView": 13,
      "componentType": 5126,
      "count": 16,
      "type": "VEC3"
    },
    {
      "bufferView": 14,
      "componentType": 5126,
      "count": 16,
      "type": "VEC2"
    },
    {
      "bufferView": 15,
      "componentType": 5123,
      "count": 24,
      "type": "SCALAR"
    },
    {
      "bufferView": 16,
      "componentType": 5126,
      "count": 432,
      "max": [18.347877502441406, 0.034272853285074234, 10.408672332763672],
      "min": [-33.89934539794922, 0.005946644581854343, -33.891868591308594],
      "type": "VEC3"
    },
    {
      "bufferView": 17,
      "componentType": 5126,
      "count": 432,
      "type": "VEC3"
    },
    {
      "bufferView": 18,
      "componentType": 5126,
      "count": 432,
      "type": "VEC2"
    },
    {
      "bufferView": 19,
      "componentType": 5123,
      "count": 648,
      "type": "SCALAR"
    },
    {
      "bufferView": 20,
      "componentType": 5126,
      "count": 2016,
      "max": [18.43285369873047, 0.051267415285110474, 10.493663787841797],
      "min": [-33.96544647216797, 0.005946398712694645, -33.957969665527344],
      "type": "VEC3"
    },
    {
      "bufferView": 21,
      "componentType": 5126,
      "count": 2016,
      "type": "VEC3"
    },
    {
      "bufferView": 22,
      "componentType": 5126,
      "count": 2016,
      "type": "VEC2"
    },
    {
      "bufferView": 23,
      "componentType": 5123,
      "count": 4320,
      "type": "SCALAR"
    }
  ],
  "bufferViews": [
    {
      "buffer": 0,
      "byteLength": 2112,
      "byteOffset": 0
    },
    {
      "buffer": 0,
      "byteLength": 2112,
      "byteOffset": 2112
    },
    {
      "buffer": 0,
      "byteLength": 1408,
      "byteOffset": 4224
    },
    {
      "buffer": 0,
      "byteLength": 528,
      "byteOffset": 5632
    },
    {
      "buffer": 0,
      "byteLength": 1104,
      "byteOffset": 6160
    },
    {
      "buffer": 0,
      "byteLength": 1104,
      "byteOffset": 7264
    },
    {
      "buffer": 0,
      "byteLength": 736,
      "byteOffset": 8368
    },
    {
      "buffer": 0,
      "byteLength": 456,
      "byteOffset": 9104
    },
    {
      "buffer": 0,
      "byteLength": 2208,
      "byteOffset": 9560
    },
    {
      "buffer": 0,
      "byteLength": 2208,
      "byteOffset": 11768
    },
    {
      "buffer": 0,
      "byteLength": 1472,
      "byteOffset": 13976
    },
    {
      "buffer": 0,
      "byteLength": 912,
      "byteOffset": 15448
    },
    {
      "buffer": 0,
      "byteLength": 192,
      "byteOffset": 16360
    },
    {
      "buffer": 0,
      "byteLength": 192,
      "byteOffset": 16552
    },
    {
      "buffer": 0,
      "byteLength": 128,
      "byteOffset": 16744
    },
    {
      "buffer": 0,
      "byteLength": 48,
      "byteOffset": 16872
    },
    {
      "buffer": 0,
      "byteLength": 5184,
      "byteOffset": 16920
    },
    {
      "buffer": 0,
      "byteLength": 5184,
      "byteOffset": 22104
    },
    {
      "buffer": 0,
      "byteLength": 3456,
      "byteOffset": 27288
    },
    {
      "buffer": 0,
      "byteLength": 1296,
      "byteOffset": 30744
    },
    {
      "buffer": 0,
      "byteLength": 24192,
      "byteOffset": 32040
    },
    {
      "buffer": 0,
      "byteLength": 24192,
      "byteOffset": 56232
    },
    {
      "buffer": 0,
      "byteLength": 16128,
      "byteOffset": 80424
    },
    {
      "buffer": 0,
      "byteLength": 8640,
      "byteOffset": 96552
    },
    {
      "buffer": 0,
      "byteLength": 232057,
      "byteOffset": 105192
    }
  ],
  "samplers": [
    {
      "magFilter": 9729,
      "minFilter": 9987
    }
  ],
  "buffers": [
    {
      "byteLength": 337252,
      "uri": "data:application/octet-stream;base64,"
    }
  ]
}
