{
  "asset": {
    "generator": "Khronos glTF Blender I/O v1.8.19",
    "version": "2.0"
  },
  "scene": 0,
  "scenes": [
    {
      "name": "Scene",
      "nodes": [0]
    }
  ],
  "nodes": [
    {
      "mesh": 0,
      "name": "\u9053\u8def07"
    }
  ],
  "materials": [
    {
      "doubleSided": true,
      "name": "Mat3d66-1012412-11-6470",
      "pbrMetallicRoughness": {
        "baseColorFactor": [0.5, 0.5, 0.5, 1],
        "metallicFactor": 0
      }
    },
    {
      "doubleSided": true,
      "name": "Mat3d66-1012412-10-3692",
      "pbrMetallicRoughness": {
        "baseColorFactor": [0.5, 0.5, 0.5, 1],
        "metallicFactor": 0
      }
    },
    {
      "doubleSided": true,
      "name": "Mat3d66-1012412-7-2359",
      "pbrMetallicRoughness": {
        "metallicFactor": 0
      }
    },
    {
      "doubleSided": true,
      "name": "Mat3d66-1012412-6-964",
      "pbrMetallicRoughness": {
        "baseColorFactor": [1, 1, 0, 1],
        "metallicFactor": 0
      }
    },
    {
      "doubleSided": true,
      "name": "Mat3d66-1012412-12-7635",
      "pbrMetallicRoughness": {
        "baseColorFactor": [
          0.48235300183296204, 0.6000000238418579, 0.4666669964790344, 1
        ],
        "metallicFactor": 0
      }
    },
    {
      "doubleSided": true,
      "name": "Mat3d66-1012412-2-4290",
      "pbrMetallicRoughness": {
        "baseColorTexture": {
          "index": 0
        },
        "metallicFactor": 0
      }
    }
  ],
  "meshes": [
    {
      "name": "Obj3d66-1012412-409-109",
      "primitives": [
        {
          "attributes": {
            "POSITION": 0,
            "NORMAL": 1,
            "TEXCOORD_0": 2
          },
          "indices": 3,
          "material": 0
        },
        {
          "attributes": {
            "POSITION": 4,
            "NORMAL": 5,
            "TEXCOORD_0": 6
          },
          "indices": 7,
          "material": 1
        },
        {
          "attributes": {
            "POSITION": 8,
            "NORMAL": 9,
            "TEXCOORD_0": 10
          },
          "indices": 11,
          "material": 2
        },
        {
          "attributes": {
            "POSITION": 12,
            "NORMAL": 13,
            "TEXCOORD_0": 14
          },
          "indices": 15,
          "material": 3
        },
        {
          "attributes": {
            "POSITION": 16,
            "NORMAL": 17,
            "TEXCOORD_0": 18
          },
          "indices": 19,
          "material": 4
        },
        {
          "attributes": {
            "POSITION": 20,
            "NORMAL": 21,
            "TEXCOORD_0": 22
          },
          "indices": 23,
          "material": 5
        }
      ]
    }
  ],
  "textures": [
    {
      "sampler": 0,
      "source": 0
    }
  ],
  "images": [
    {
      "bufferView": 24,
      "mimeType": "image/jpeg",
      "name": "3d66Model-1012412-files-24"
    }
  ],
  "accessors": [
    {
      "bufferView": 0,
      "componentType": 5126,
      "count": 104,
      "max": [44.2498779296875, 0.010000004433095455, 78.00509643554688],
      "min": [-41.75014877319336, 0, -77.99495697021484],
      "type": "VEC3"
    },
    {
      "bufferView": 1,
      "componentType": 5126,
      "count": 104,
      "type": "VEC3"
    },
    {
      "bufferView": 2,
      "componentType": 5126,
      "count": 104,
      "type": "VEC2"
    },
    {
      "bufferView": 3,
      "componentType": 5123,
      "count": 252,
      "type": "SCALAR"
    },
    {
      "bufferView": 4,
      "componentType": 5126,
      "count": 208,
      "max": [44.24989318847656, 0.02000000886619091, 78.00509643554688],
      "min": [-44.250152587890625, 0, -78.0051040649414],
      "type": "VEC3"
    },
    {
      "bufferView": 5,
      "componentType": 5126,
      "count": 208,
      "type": "VEC3"
    },
    {
      "bufferView": 6,
      "componentType": 5126,
      "count": 208,
      "type": "VEC2"
    },
    {
      "bufferView": 7,
      "componentType": 5123,
      "count": 492,
      "type": "SCALAR"
    },
    {
      "bufferView": 8,
      "componentType": 5126,
      "count": 996,
      "max": [44.250152587890625, 0.010999999940395355, 78.0051040649414],
      "min": [-41.95020294189453, 0.010999999940395355, -77.99492645263672],
      "type": "VEC3"
    },
    {
      "bufferView": 9,
      "componentType": 5126,
      "count": 996,
      "type": "VEC3"
    },
    {
      "bufferView": 10,
      "componentType": 5126,
      "count": 996,
      "type": "VEC2"
    },
    {
      "bufferView": 11,
      "componentType": 5123,
      "count": 1764,
      "type": "SCALAR"
    },
    {
      "bufferView": 12,
      "componentType": 5126,
      "count": 24,
      "max": [37.810028076171875, 0.010999999940395355, 71.56525421142578],
      "min": [-34.100196838378906, 0.010999999940395355, -71.55509185791016],
      "type": "VEC3"
    },
    {
      "bufferView": 13,
      "componentType": 5126,
      "count": 24,
      "type": "VEC3"
    },
    {
      "bufferView": 14,
      "componentType": 5126,
      "count": 24,
      "type": "VEC2"
    },
    {
      "bufferView": 15,
      "componentType": 5123,
      "count": 36,
      "type": "SCALAR"
    },
    {
      "bufferView": 16,
      "componentType": 5126,
      "count": 816,
      "max": [32.647491455078125, 0.03681955114006996, 66.45357513427734],
      "min": [-42.89848327636719, 3.725290298461914e-9, -67.50626373291016],
      "type": "VEC3"
    },
    {
      "bufferView": 17,
      "componentType": 5126,
      "count": 816,
      "type": "VEC3"
    },
    {
      "bufferView": 18,
      "componentType": 5126,
      "count": 816,
      "type": "VEC2"
    },
    {
      "bufferView": 19,
      "componentType": 5123,
      "count": 1224,
      "type": "SCALAR"
    },
    {
      "bufferView": 20,
      "componentType": 5126,
      "count": 3808,
      "max": [32.75794982910156, 0.05891163647174835, 66.56403350830078],
      "min": [-43.008941650390625, 3.5762803918260033e-7, -67.6167221069336],
      "type": "VEC3"
    },
    {
      "bufferView": 21,
      "componentType": 5126,
      "count": 3808,
      "type": "VEC3"
    },
    {
      "bufferView": 22,
      "componentType": 5126,
      "count": 3808,
      "type": "VEC2"
    },
    {
      "bufferView": 23,
      "componentType": 5123,
      "count": 8160,
      "type": "SCALAR"
    }
  ],
  "bufferViews": [
    {
      "buffer": 0,
      "byteLength": 1248,
      "byteOffset": 0
    },
    {
      "buffer": 0,
      "byteLength": 1248,
      "byteOffset": 1248
    },
    {
      "buffer": 0,
      "byteLength": 832,
      "byteOffset": 2496
    },
    {
      "buffer": 0,
      "byteLength": 504,
      "byteOffset": 3328
    },
    {
      "buffer": 0,
      "byteLength": 2496,
      "byteOffset": 3832
    },
    {
      "buffer": 0,
      "byteLength": 2496,
      "byteOffset": 6328
    },
    {
      "buffer": 0,
      "byteLength": 1664,
      "byteOffset": 8824
    },
    {
      "buffer": 0,
      "byteLength": 984,
      "byteOffset": 10488
    },
    {
      "buffer": 0,
      "byteLength": 11952,
      "byteOffset": 11472
    },
    {
      "buffer": 0,
      "byteLength": 11952,
      "byteOffset": 23424
    },
    {
      "buffer": 0,
      "byteLength": 7968,
      "byteOffset": 35376
    },
    {
      "buffer": 0,
      "byteLength": 3528,
      "byteOffset": 43344
    },
    {
      "buffer": 0,
      "byteLength": 288,
      "byteOffset": 46872
    },
    {
      "buffer": 0,
      "byteLength": 288,
      "byteOffset": 47160
    },
    {
      "buffer": 0,
      "byteLength": 192,
      "byteOffset": 47448
    },
    {
      "buffer": 0,
      "byteLength": 72,
      "byteOffset": 47640
    },
    {
      "buffer": 0,
      "byteLength": 9792,
      "byteOffset": 47712
    },
    {
      "buffer": 0,
      "byteLength": 9792,
      "byteOffset": 57504
    },
    {
      "buffer": 0,
      "byteLength": 6528,
      "byteOffset": 67296
    },
    {
      "buffer": 0,
      "byteLength": 2448,
      "byteOffset": 73824
    },
    {
      "buffer": 0,
      "byteLength": 45696,
      "byteOffset": 76272
    },
    {
      "buffer": 0,
      "byteLength": 45696,
      "byteOffset": 121968
    },
    {
      "buffer": 0,
      "byteLength": 30464,
      "byteOffset": 167664
    },
    {
      "buffer": 0,
      "byteLength": 16320,
      "byteOffset": 198128
    },
    {
      "buffer": 0,
      "byteLength": 232057,
      "byteOffset": 214448
    }
  ],
  "samplers": [
    {
      "magFilter": 9729,
      "minFilter": 9987
    }
  ],
  "buffers": [
    {
      "byteLength": 446508,
      "uri": "data:application/octet-stream;base64,"
    }
  ]
}
