{
  "asset": {
    "generator": "Khronos glTF Blender I/O v1.8.19",
    "version": "2.0"
  },
  "scene": 0,
  "scenes": [
    {
      "name": "Scene",
      "nodes": [0]
    }
  ],
  "nodes": [
    {
      "mesh": 0,
      "name": "\u8def\u706f22"
    }
  ],
  "materials": [
    {
      "doubleSided": true,
      "name": "Mat3d66-1676363-8-212.005",
      "pbrMetallicRoughness": {
        "baseColorFactor": [
          0.09019599854946136, 0.08627499639987946, 0.08235300332307816, 1
        ],
        "metallicFactor": 0,
        "roughnessFactor": 0.6417322754859924
      }
    },
    {
      "doubleSided": true,
      "name": "Mat3d66-1676363-10-9110.006",
      "pbrMetallicRoughness": {
        "metallicFactor": 0,
        "roughnessFactor": 0.5
      }
    },
    {
      "doubleSided": true,
      "name": "Mat3d66-1676363-9-6145.005",
      "pbrMetallicRoughness": {
        "baseColorFactor": [
          0.4666669964790344, 0.37254899740219116, 0.1411760002374649, 1
        ],
        "metallicFactor": 0,
        "roughnessFactor": 0.5
      }
    }
  ],
  "meshes": [
    {
      "name": "Obj3d66-1676363-44-380",
      "primitives": [
        {
          "attributes": {
            "POSITION": 0,
            "NORMAL": 1,
            "TEXCOORD_0": 2
          },
          "indices": 3,
          "material": 0
        },
        {
          "attributes": {
            "POSITION": 4,
            "NORMAL": 5,
            "TEXCOORD_0": 6
          },
          "indices": 7,
          "material": 1
        },
        {
          "attributes": {
            "POSITION": 8,
            "NORMAL": 9,
            "TEXCOORD_0": 10
          },
          "indices": 11,
          "material": 2
        }
      ]
    }
  ],
  "accessors": [
    {
      "bufferView": 0,
      "componentType": 5126,
      "count": 1085,
      "max": [0.23050689697265625, 4.040314674377441, 0.03347907215356827],
      "min": [-0.23050689697265625, 1.0323665142059326, -0.8366075754165649],
      "type": "VEC3"
    },
    {
      "bufferView": 1,
      "componentType": 5126,
      "count": 1085,
      "type": "VEC3"
    },
    {
      "bufferView": 2,
      "componentType": 5126,
      "count": 1085,
      "type": "VEC2"
    },
    {
      "bufferView": 3,
      "componentType": 5123,
      "count": 6102,
      "type": "SCALAR"
    },
    {
      "bufferView": 4,
      "componentType": 5126,
      "count": 523,
      "max": [0.19869232177734375, 2.945079803466797, -0.40117326378822327],
      "min": [-0.19869232177734375, 2.801064968109131, -0.8042913675308228],
      "type": "VEC3"
    },
    {
      "bufferView": 5,
      "componentType": 5126,
      "count": 523,
      "type": "VEC3"
    },
    {
      "bufferView": 6,
      "componentType": 5126,
      "count": 523,
      "type": "VEC2"
    },
    {
      "bufferView": 7,
      "componentType": 5123,
      "count": 2970,
      "type": "SCALAR"
    },
    {
      "bufferView": 8,
      "componentType": 5126,
      "count": 1235,
      "max": [0.19532012939453125, 4.103382110595703, 0.19379176199436188],
      "min": [-0.19533538818359375, 0, -0.6620203256607056],
      "type": "VEC3"
    },
    {
      "bufferView": 9,
      "componentType": 5126,
      "count": 1235,
      "type": "VEC3"
    },
    {
      "bufferView": 10,
      "componentType": 5126,
      "count": 1235,
      "type": "VEC2"
    },
    {
      "bufferView": 11,
      "componentType": 5123,
      "count": 6078,
      "type": "SCALAR"
    }
  ],
  "bufferViews": [
    {
      "buffer": 0,
      "byteLength": 13020,
      "byteOffset": 0
    },
    {
      "buffer": 0,
      "byteLength": 13020,
      "byteOffset": 13020
    },
    {
      "buffer": 0,
      "byteLength": 8680,
      "byteOffset": 26040
    },
    {
      "buffer": 0,
      "byteLength": 12204,
      "byteOffset": 34720
    },
    {
      "buffer": 0,
      "byteLength": 6276,
      "byteOffset": 46924
    },
    {
      "buffer": 0,
      "byteLength": 6276,
      "byteOffset": 53200
    },
    {
      "buffer": 0,
      "byteLength": 4184,
      "byteOffset": 59476
    },
    {
      "buffer": 0,
      "byteLength": 5940,
      "byteOffset": 63660
    },
    {
      "buffer": 0,
      "byteLength": 14820,
      "byteOffset": 69600
    },
    {
      "buffer": 0,
      "byteLength": 14820,
      "byteOffset": 84420
    },
    {
      "buffer": 0,
      "byteLength": 9880,
      "byteOffset": 99240
    },
    {
      "buffer": 0,
      "byteLength": 12156,
      "byteOffset": 109120
    }
  ],
  "buffers": [
    {
      "byteLength": 121276,
      "uri": "data:application/octet-stream;base64,"
    }
  ]
}
