{
  "asset": {
    "generator": "Khronos glTF Blender I/O v3.4.49",
    "version": "2.0"
  },
  "scene": 0,
  "scenes": [
    {
      "name": "Scene",
      "nodes": [0]
    }
  ],
  "nodes": [
    {
      "mesh": 0,
      "name": "\u5382\u623f21"
    }
  ],
  "materials": [
    {
      "doubleSided": true,
      "name": "Mat3d66-9137221-129-45803",
      "pbrMetallicRoughness": {
        "baseColorTexture": {
          "index": 0
        },
        "metallicFactor": 0
      }
    },
    {
      "doubleSided": true,
      "name": "Mat3d66-9137221-116-79890",
      "pbrMetallicRoughness": {
        "baseColorTexture": {
          "index": 1
        },
        "metallicFactor": 0
      }
    },
    {
      "doubleSided": true,
      "name": "Mat3d66-9137221-112-18011",
      "pbrMetallicRoughness": {
        "baseColorFactor": [
          0.5882350206375122, 0.5882350206375122, 0.5882350206375122, 1
        ],
        "metallicFactor": 0
      }
    },
    {
      "doubleSided": true,
      "name": "Mat3d66-9137221-113-31137",
      "pbrMetallicRoughness": {
        "baseColorFactor": [
          0.784313976764679, 0.784313976764679, 0.784313976764679, 1
        ],
        "metallicFactor": 0
      }
    },
    {
      "doubleSided": true,
      "name": "Mat3d66-9137221-114-77482",
      "pbrMetallicRoughness": {
        "baseColorTexture": {
          "index": 2
        },
        "metallicFactor": 0
      }
    },
    {
      "doubleSided": true,
      "name": "Mat3d66-9137221-115-23866",
      "pbrMetallicRoughness": {
        "baseColorFactor": [
          0.564706027507782, 0.7372549772262573, 0.8352940082550049, 1
        ],
        "metallicFactor": 0
      }
    }
  ],
  "meshes": [
    {
      "name": "Obj3d66-9137221-8872-105",
      "primitives": [
        {
          "attributes": {
            "POSITION": 0,
            "TEXCOORD_0": 1,
            "NORMAL": 2
          },
          "indices": 3,
          "material": 0
        },
        {
          "attributes": {
            "POSITION": 4,
            "TEXCOORD_0": 5,
            "NORMAL": 6
          },
          "indices": 7,
          "material": 1
        },
        {
          "attributes": {
            "POSITION": 8,
            "TEXCOORD_0": 9,
            "NORMAL": 10
          },
          "indices": 11,
          "material": 2
        },
        {
          "attributes": {
            "POSITION": 12,
            "TEXCOORD_0": 13,
            "NORMAL": 14
          },
          "indices": 15,
          "material": 3
        },
        {
          "attributes": {
            "POSITION": 16,
            "TEXCOORD_0": 17,
            "NORMAL": 18
          },
          "indices": 19,
          "material": 4
        },
        {
          "attributes": {
            "POSITION": 20,
            "TEXCOORD_0": 21,
            "NORMAL": 22
          },
          "indices": 23,
          "material": 5
        }
      ]
    }
  ],
  "textures": [
    {
      "sampler": 0,
      "source": 0
    },
    {
      "sampler": 0,
      "source": 1
    },
    {
      "sampler": 0,
      "source": 2
    }
  ],
  "images": [
    {
      "bufferView": 4,
      "mimeType": "image/jpeg",
      "name": "3d66Model-9137221-files-29"
    },
    {
      "bufferView": 9,
      "mimeType": "image/jpeg",
      "name": "3d66Model-9137221-files-21"
    },
    {
      "bufferView": 22,
      "mimeType": "image/jpeg",
      "name": "3d66Model-9137221-files-18"
    }
  ],
  "accessors": [
    {
      "bufferView": 0,
      "componentType": 5126,
      "count": 36,
      "max": [31.35039520263672, 11.226516723632812, 18.222496032714844],
      "min": [-31.349613189697266, 9.83373737335205, -18.227514266967773],
      "type": "VEC3"
    },
    {
      "bufferView": 1,
      "componentType": 5126,
      "count": 36,
      "type": "VEC2"
    },
    {
      "bufferView": 2,
      "componentType": 5126,
      "count": 36,
      "type": "VEC3"
    },
    {
      "bufferView": 3,
      "componentType": 5123,
      "count": 60,
      "type": "SCALAR"
    },
    {
      "bufferView": 5,
      "componentType": 5126,
      "count": 24,
      "max": [31.350393295288086, 0.10001564025878906, 18.222496032714844],
      "min": [-31.349613189697266, 1.52587890625e-5, -18.227514266967773],
      "type": "VEC3"
    },
    {
      "bufferView": 6,
      "componentType": 5126,
      "count": 24,
      "type": "VEC2"
    },
    {
      "bufferView": 7,
      "componentType": 5126,
      "count": 24,
      "type": "VEC3"
    },
    {
      "bufferView": 8,
      "componentType": 5123,
      "count": 36,
      "type": "SCALAR"
    },
    {
      "bufferView": 10,
      "componentType": 5126,
      "count": 1124,
      "max": [31.550399780273438, 11.651456832885742, 18.422494888305664],
      "min": [-31.549606323242188, 0.0014696121215820312, -18.427528381347656],
      "type": "VEC3"
    },
    {
      "bufferView": 11,
      "componentType": 5126,
      "count": 1124,
      "type": "VEC2"
    },
    {
      "bufferView": 12,
      "componentType": 5126,
      "count": 1124,
      "type": "VEC3"
    },
    {
      "bufferView": 13,
      "componentType": 5123,
      "count": 1968,
      "type": "SCALAR"
    },
    {
      "bufferView": 14,
      "componentType": 5126,
      "count": 1296,
      "max": [33.05039978027344, 11.45145320892334, 19.9224853515625],
      "min": [-33.04961013793945, 1.0514678955078125, -19.927520751953125],
      "type": "VEC3"
    },
    {
      "bufferView": 15,
      "componentType": 5126,
      "count": 1296,
      "type": "VEC2"
    },
    {
      "bufferView": 16,
      "componentType": 5126,
      "count": 1296,
      "type": "VEC3"
    },
    {
      "bufferView": 17,
      "componentType": 5123,
      "count": 2376,
      "type": "SCALAR"
    },
    {
      "bufferView": 18,
      "componentType": 5126,
      "count": 10272,
      "max": [33.353851318359375, 9.251461029052734, 20.22593879699707],
      "min": [-33.353065490722656, 0.0014638900756835938, -20.230979919433594],
      "type": "VEC3"
    },
    {
      "bufferView": 19,
      "componentType": 5126,
      "count": 10272,
      "type": "VEC2"
    },
    {
      "bufferView": 20,
      "componentType": 5126,
      "count": 10272,
      "type": "VEC3"
    },
    {
      "bufferView": 21,
      "componentType": 5123,
      "count": 15792,
      "type": "SCALAR"
    },
    {
      "bufferView": 23,
      "componentType": 5126,
      "count": 96,
      "max": [31.38039207458496, 9.251453399658203, 18.252479553222656],
      "min": [-31.37961196899414, 0.15146923065185547, -18.257532119750977],
      "type": "VEC3"
    },
    {
      "bufferView": 24,
      "componentType": 5126,
      "count": 96,
      "type": "VEC2"
    },
    {
      "bufferView": 25,
      "componentType": 5126,
      "count": 96,
      "type": "VEC3"
    },
    {
      "bufferView": 26,
      "componentType": 5123,
      "count": 144,
      "type": "SCALAR"
    }
  ],
  "bufferViews": [
    {
      "buffer": 0,
      "byteLength": 432,
      "byteOffset": 0,
      "target": 34962
    },
    {
      "buffer": 0,
      "byteLength": 288,
      "byteOffset": 432,
      "target": 34962
    },
    {
      "buffer": 0,
      "byteLength": 432,
      "byteOffset": 720,
      "target": 34962
    },
    {
      "buffer": 0,
      "byteLength": 120,
      "byteOffset": 1152,
      "target": 34963
    },
    {
      "buffer": 0,
      "byteLength": 67410,
      "byteOffset": 1272
    },
    {
      "buffer": 0,
      "byteLength": 288,
      "byteOffset": 68684,
      "target": 34962
    },
    {
      "buffer": 0,
      "byteLength": 192,
      "byteOffset": 68972,
      "target": 34962
    },
    {
      "buffer": 0,
      "byteLength": 288,
      "byteOffset": 69164,
      "target": 34962
    },
    {
      "buffer": 0,
      "byteLength": 72,
      "byteOffset": 69452,
      "target": 34963
    },
    {
      "buffer": 0,
      "byteLength": 37172,
      "byteOffset": 69524
    },
    {
      "buffer": 0,
      "byteLength": 13488,
      "byteOffset": 106696,
      "target": 34962
    },
    {
      "buffer": 0,
      "byteLength": 8992,
      "byteOffset": 120184,
      "target": 34962
    },
    {
      "buffer": 0,
      "byteLength": 13488,
      "byteOffset": 129176,
      "target": 34962
    },
    {
      "buffer": 0,
      "byteLength": 3936,
      "byteOffset": 142664,
      "target": 34963
    },
    {
      "buffer": 0,
      "byteLength": 15552,
      "byteOffset": 146600,
      "target": 34962
    },
    {
      "buffer": 0,
      "byteLength": 10368,
      "byteOffset": 162152,
      "target": 34962
    },
    {
      "buffer": 0,
      "byteLength": 15552,
      "byteOffset": 172520,
      "target": 34962
    },
    {
      "buffer": 0,
      "byteLength": 4752,
      "byteOffset": 188072,
      "target": 34963
    },
    {
      "buffer": 0,
      "byteLength": 123264,
      "byteOffset": 192824,
      "target": 34962
    },
    {
      "buffer": 0,
      "byteLength": 82176,
      "byteOffset": 316088,
      "target": 34962
    },
    {
      "buffer": 0,
      "byteLength": 123264,
      "byteOffset": 398264,
      "target": 34962
    },
    {
      "buffer": 0,
      "byteLength": 31584,
      "byteOffset": 521528,
      "target": 34963
    },
    {
      "buffer": 0,
      "byteLength": 132586,
      "byteOffset": 553112
    },
    {
      "buffer": 0,
      "byteLength": 1152,
      "byteOffset": 685700,
      "target": 34962
    },
    {
      "buffer": 0,
      "byteLength": 768,
      "byteOffset": 686852,
      "target": 34962
    },
    {
      "buffer": 0,
      "byteLength": 1152,
      "byteOffset": 687620,
      "target": 34962
    },
    {
      "buffer": 0,
      "byteLength": 288,
      "byteOffset": 688772,
      "target": 34963
    }
  ],
  "samplers": [
    {
      "magFilter": 9729,
      "minFilter": 9987
    }
  ],
  "buffers": [
    {
      "byteLength": 689060,
      "uri": "data:application/octet-stream;base64,"
    }
  ]
}
